<?xml version="1.0" standalone="no"?>
<!DOCTYPE svg PUBLIC "-//W3C//DTD SVG 1.1//EN" "http://www.w3.org/Graphics/SVG/1.1/DTD/svg11.dtd" >
<svg>
<metadata>
Created by FontForge 20090622 at Sun May 17 16:46:47 2020
 By deploy user
Copyright (c) 2014 Commercial Type. All rights reserved.
</metadata>
<defs>
<font id="MarianText-1800Italic" horiz-adv-x="350" >
  <font-face 
    font-family="Marian Text"
    font-weight="400"
    font-style="italic"
    font-stretch="normal"
    units-per-em="1000"
    panose-1="0 0 0 0 0 0 0 0 0 0"
    ascent="700"
    descent="-300"
    x-height="462"
    cap-height="700"
    bbox="-254 -406 1193 1178"
    underline-thickness="26"
    underline-position="-178"
    slope="-21"
    unicode-range="U+000D-U+FB04"
  />
<missing-glyph horiz-adv-x="250" 
 />
    <glyph glyph-name="f_b" unicode="fb" horiz-adv-x="777" 
d="M192 454h248l103 266q-43 40 -110 40q-62 0 -112 -43q-62 -55 -100 -173zM715 303q0 61 -30.5 98t-90.5 37t-109.5 -42.5t-75.5 -104.5l-31 -77q-16 -39 -16 -90q0 -50 28 -79t86 -29q67 0 124.5 51.5t86 116.5t28.5 119zM-169 -295q-36 0 -60.5 18.5t-24.5 52.5
q0 32 21 58l23 -15q-14 -20 -14 -41q0 -49 56 -49q61 0 100 63t95 238l127 398h-96l9 26h95l32 101q45 132 108 183q54 46 131 46q81 0 143 -57l-131 -338q64 73 149 73q73 0 112.5 -44t39.5 -115q0 -45 -20 -98t-54 -101t-86.5 -80t-109.5 -32q-72 0 -108.5 36.5
t-36.5 95.5q0 49 20 101l79 203h-246l-130 -406q-63 -196 -100 -249q-45 -68 -123 -68z" />
    <glyph glyph-name="f_f_b" unicode="ffb" horiz-adv-x="1052" 
d="M467 454h248l103 266q-43 40 -110 40q-62 0 -112 -43q-62 -55 -100 -173zM437 454l32 101q23 72 54 119q-16 66 -96 66q-62 0 -112 -43q-62 -55 -100 -173l-22 -70h244zM751 16q67 0 124.5 51.5t86 116.5t28.5 119q0 61 -30.5 98t-90.5 37t-109.5 -42.5t-75.5 -104.5
l-31 -77q-16 -39 -16 -90q0 -50 28 -79t86 -29zM106 -295q-36 0 -60.5 18.5t-24.5 52.5q0 32 21 58l23 -15q-14 -20 -14 -41q0 -49 56 -49q61 0 100 63t95 238l127 398h-245l-130 -406q-63 -196 -100 -249q-45 -68 -123 -68q-36 0 -60.5 18.5t-24.5 52.5q0 32 21 58l23 -15
q-14 -20 -14 -41q0 -49 56 -49q61 0 100 63t95 238l127 398h-96l9 26h95l26 81q45 132 108 183q54 46 131 46q43 0 74.5 -15.5t42.5 -44.5q12 17 33 34q54 46 131 46q81 0 143 -57l-131 -338q64 73 149 73q73 0 112.5 -44t39.5 -115q0 -45 -20 -98t-54 -101t-86.5 -80
t-109.5 -32q-72 0 -108.5 36.5t-36.5 95.5q0 49 20 101l79 203h-246l-130 -406q-63 -196 -100 -249q-45 -68 -123 -68z" />
    <glyph glyph-name="f_f_h" unicode="ffh" horiz-adv-x="1102" 
d="M466 454h249l106 265q-43 41 -114 41q-62 0 -112 -43q-62 -55 -100 -173zM427 740q-62 0 -112 -43q-62 -55 -100 -173l-22 -70h243l32 101q22 67 55 121q-8 30 -33.5 47t-62.5 17zM576 738q54 46 131 46q85 0 147 -57l-167 -421q31 44 63 76q80 80 162 80q94 0 94 -86
q0 -32 -14 -62l-102 -250q-7 -19 -7 -28q0 -20 33 -20q35 0 68 26.5t53 77.5l23 -9q-50 -119 -144 -119q-62 0 -62 44q0 16 7 33l104 256q11 24 11 51q0 62 -65 62q-74 0 -153 -84q-83 -87 -124 -181l-69 -173h-31l171 428h-247l-130 -406q-63 -196 -100 -249
q-45 -68 -123 -68q-36 0 -60.5 18.5t-24.5 52.5q0 32 21 58l23 -15q-14 -20 -14 -41q0 -49 56 -49q61 0 100 63t95 238l127 398h-244l-130 -406q-63 -196 -100 -249q-45 -68 -123 -68q-36 0 -60.5 18.5t-24.5 52.5q0 32 21 58l23 -15q-14 -20 -14 -41q0 -49 56 -49
q61 0 100 63t95 238l127 398h-96l9 26h95l26 81q45 132 108 183q54 46 131 46q93 0 117 -59q16 19 32 33z" />
    <glyph glyph-name="f_f_j" unicode="ffj" horiz-adv-x="770" 
d="M437 454l32 101q23 72 54 119q-13 66 -96 66q-62 0 -112 -43q-62 -55 -100 -173l-22 -70h244zM577 738q54 46 124 46q46 0 79 -23.5t33 -64.5q0 -50 -45 -80l-17 21q32 27 32 58q0 30 -25 47.5t-57 17.5q-55 0 -105 -43q-62 -55 -100 -173l-29 -90h176q65 0 96 10h21
l-232 -621q-25 -67 -59 -102.5t-84 -35.5q-37 0 -56.5 21t-19.5 52q0 37 26 66l23 -15q-20 -25 -20 -51q0 -21 12.5 -35t34.5 -14q41 0 67.5 32t48.5 93l216 578q-31 -4 -71 -4h-187l-131 -406q-63 -196 -100 -249q-45 -68 -123 -68q-36 0 -60.5 18.5t-24.5 52.5q0 32 21 58
l23 -15q-14 -20 -14 -41q0 -49 56 -49q61 0 100 63t95 238l127 398h-244l-130 -406q-63 -196 -100 -249q-45 -68 -123 -68q-36 0 -60.5 18.5t-24.5 52.5q0 32 21 58l23 -15q-14 -20 -14 -41q0 -49 56 -49q61 0 100 63t95 238l127 398h-96l9 26h95l26 81q45 132 108 183
q54 46 131 46q43 0 74.5 -15.5t42.5 -44.5q12 17 33 34z" />
    <glyph glyph-name="f_f_k" unicode="ffk" horiz-adv-x="1082" 
d="M467 454h249l106 265q-43 41 -114 41q-62 0 -112 -43q-62 -55 -100 -173zM427 740q-62 0 -112 -43q-62 -55 -100 -173l-22 -70h244l32 101q23 72 54 119q-16 66 -96 66zM427 764q43 0 74.5 -15.5t42.5 -44.5q12 17 33 34q54 46 131 46q85 0 147 -57l-165 -417h77
q60 0 100 69q23 39 48 61t65 22q32 0 51 -15t19 -39q0 -26 -23 -57l-22 15q17 26 17 42q0 30 -42 30q-21 0 -39.5 -13t-28 -26t-22.5 -34q-35 -62 -97 -73q62 -33 55 -108l-7 -81q-7 -87 48 -87q80 0 131 145l23 -8q-50 -161 -154 -161q-45 0 -63 26.5t-13 86.5l7 81
q4 44 -17.5 71t-58.5 27h-64l-113 -284h-31l170 428h-247l-130 -406q-63 -196 -100 -249q-45 -68 -123 -68q-36 0 -60.5 18.5t-24.5 52.5q0 32 21 58l23 -15q-14 -20 -14 -41q0 -49 56 -49q61 0 100 63t95 238l127 398h-245l-130 -406q-63 -196 -100 -249q-45 -68 -123 -68
q-36 0 -60.5 18.5t-24.5 52.5q0 32 21 58l23 -15q-14 -20 -14 -41q0 -49 56 -49q61 0 100 63t95 238l127 398h-96l9 26h95l26 81q45 132 108 183q54 46 131 46z" />
    <glyph glyph-name="f_h" unicode="fh" horiz-adv-x="828" 
d="M192 454h249l106 265q-43 41 -114 41q-62 0 -112 -43q-62 -55 -100 -173zM-169 -295q-36 0 -60.5 18.5t-24.5 52.5q0 32 21 58l23 -15q-14 -20 -14 -41q0 -49 56 -49q61 0 100 63t95 238l127 398h-96l9 26h95l32 101q45 132 108 183q54 46 131 46q85 0 147 -57l-167 -421
q31 44 63 76q80 80 162 80q94 0 94 -86q0 -32 -14 -62l-102 -250q-7 -19 -7 -28q0 -20 33 -20q35 0 68 26.5t53 77.5l23 -9q-50 -119 -144 -119q-62 0 -62 44q0 16 7 33l104 256q11 24 11 51q0 62 -65 62q-74 0 -153 -84q-83 -87 -124 -181l-69 -173h-31l171 428h-247
l-130 -406q-63 -196 -100 -249q-45 -68 -123 -68z" />
    <glyph glyph-name="f_j" unicode="fj" horiz-adv-x="496" 
d="M111 -295q-37 0 -56.5 21t-19.5 52q0 37 26 66l23 -15q-20 -23 -20 -51q0 -21 12.5 -35t34.5 -14q41 0 67.5 32t48.5 93l216 578q-31 -4 -71 -4h-187l-131 -406q-63 -196 -100 -249q-45 -68 -123 -68q-36 0 -60.5 18.5t-24.5 52.5q0 32 21 58l23 -15q-14 -20 -14 -41
q0 -49 56 -49q61 0 100 63t95 238l127 398h-96l9 26h96l32 101q45 132 108 183q54 46 124 46q46 0 79 -23.5t33 -64.5q0 -50 -45 -80l-17 21q32 27 32 58q0 30 -25 47.5t-57 17.5q-55 0 -105 -43q-62 -55 -100 -173l-29 -90h176q65 0 96 10h21l-232 -621q-25 -67 -59 -102.5
t-84 -35.5z" />
    <glyph glyph-name="f_k" unicode="fk" horiz-adv-x="807" 
d="M192 454h249l106 265q-43 41 -114 41q-62 0 -112 -43q-62 -55 -100 -173zM-169 -295q-36 0 -60.5 18.5t-24.5 52.5q0 32 21 58l23 -15q-14 -20 -14 -41q0 -49 56 -49q61 0 100 63t95 238l127 398h-96l9 26h95l32 101q45 132 108 183q54 46 131 46q85 0 147 -57l-165 -417
h77q60 0 100 69q23 39 48 61t65 22q32 0 51 -15t19 -39q0 -26 -23 -57l-22 15q17 26 17 42q0 30 -42 30q-21 0 -39.5 -13t-28 -26t-22.5 -34q-35 -62 -97 -73q62 -33 55 -108l-7 -81q-8 -87 48 -87q80 0 131 145l23 -8q-50 -161 -154 -161q-45 0 -63 26.5t-13 86.5l7 81
q4 44 -17.5 71t-58.5 27h-64l-113 -284h-31l170 428h-247l-130 -406q-63 -196 -100 -249q-45 -68 -123 -68z" />
    <glyph glyph-name="f_f" unicode="ff" horiz-adv-x="586" 
d="M437 454l32 101q23 72 54 119q-13 66 -96 66q-62 0 -112 -43q-62 -55 -100 -173l-22 -70h244zM105 -295q-36 0 -60.5 18.5t-24.5 52.5q0 32 21 58l23 -15q-14 -20 -14 -41q0 -49 56 -49q61 0 100 63t95 238l127 398h-244l-130 -406q-63 -196 -100 -249q-45 -68 -123 -68
q-36 0 -60.5 18.5t-24.5 52.5q0 32 21 58l23 -15q-14 -20 -14 -41q0 -49 56 -49q61 0 100 63t95 238l127 398h-96l9 26h95l26 81q45 132 108 183q54 46 131 46q43 0 74.5 -15.5t42.5 -44.5q12 17 33 34q54 46 124 46q46 0 79 -23.5t33 -64.5q0 -50 -45 -80l-17 21
q32 27 32 58q0 30 -25 47.5t-57 17.5q-55 0 -105 -43q-62 -55 -100 -173l-29 -90h162l-9 -26h-161l-131 -406q-63 -196 -100 -249q-45 -68 -123 -68z" />
    <glyph glyph-name="f_i" unicode="fi" horiz-adv-x="548" 
d="M-169 -295q-36 0 -60.5 18.5t-24.5 52.5q0 32 21 58l23 -15q-14 -20 -14 -41q0 -49 56 -49q61 0 100 63t95 238l127 398h-96l9 26h96l32 101q45 132 108 183q54 46 124 46q46 0 79 -23.5t33 -64.5q0 -50 -45 -80l-17 21q32 27 32 58q0 30 -25 47.5t-57 17.5
q-55 0 -105 -43q-62 -55 -100 -173l-29 -90h168q65 0 96 10h21l-157 -388q-7 -19 -7 -35q0 -25 35 -25q33 0 68.5 26.5t58.5 77.5l23 -9q-25 -60 -65.5 -89t-84.5 -30q-65 -1 -65 50q0 22 9 45l141 345q-31 -4 -70 -4h-179l-131 -406q-63 -196 -100 -249q-45 -68 -123 -68z
" />
    <glyph glyph-name="f_l" unicode="fl" horiz-adv-x="514" 
d="M440 454l103 266q-43 40 -110 40q-62 0 -112 -43q-62 -55 -100 -173l-29 -90h248zM184 428l-130 -406q-63 -196 -100 -249q-45 -68 -123 -68q-36 0 -60.5 18.5t-24.5 52.5q0 32 21 58l23 -15q-14 -20 -14 -41q0 -49 56 -49q61 0 100 63t95 238l127 398h-96l9 26h95
l32 101q45 132 108 183q54 46 131 46q81 0 143 -57l-253 -657q-5 -17 -5 -26q0 -28 39 -28q73 0 126 104l21 -9q-26 -59 -66.5 -89t-80.5 -30q-69 0 -69 52q0 15 8 37l134 347h-246z" />
    <glyph glyph-name="f_f_i" unicode="ffi" horiz-adv-x="822" 
d="M427 740q-62 0 -112 -43q-62 -55 -100 -173l-22 -70h244l32 101q23 72 54 119q-12 66 -96 66zM427 764q43 0 74.5 -15.5t42.5 -44.5q12 17 33 34q54 46 124 46q46 0 79 -23.5t33 -64.5q0 -50 -45 -80l-17 21q32 27 32 58q0 30 -25 47.5t-57 17.5q-55 0 -105 -43
q-62 -55 -100 -173l-29 -90h168q65 0 96 10h21l-157 -388q-7 -19 -7 -35q0 -25 35 -25q33 0 68.5 26.5t58.5 77.5l23 -9q-25 -60 -65.5 -89t-84.5 -30q-65 -1 -65 50q0 22 9 45l141 345q-31 -4 -70 -4h-179l-131 -406q-63 -196 -100 -249q-45 -68 -123 -68q-36 0 -60.5 18.5
t-24.5 52.5q0 32 21 58l23 -15q-14 -20 -14 -41q0 -49 56 -49q61 0 100 63t95 238l127 398h-244l-130 -406q-63 -196 -100 -249q-45 -68 -123 -68q-36 0 -60.5 18.5t-24.5 52.5q0 32 21 58l23 -15q-14 -20 -14 -41q0 -49 56 -49q61 0 100 63t95 238l127 398h-96l9 26h95
l26 81q45 132 108 183q54 46 131 46z" />
    <glyph glyph-name="f_f_l" unicode="ffl" horiz-adv-x="788" 
d="M714 454l103 266q-43 40 -110 40q-62 0 -112 -43q-62 -55 -100 -173l-29 -90h248zM436 454l32 101q22 67 55 121q-8 30 -33.5 47t-62.5 17q-62 0 -112 -43q-62 -55 -100 -173l-22 -70h243zM427 764q93 0 117 -59q16 19 32 33q54 46 131 46q81 0 143 -57l-253 -657
q-5 -17 -5 -26q0 -28 39 -28q73 0 126 104l21 -9q-26 -59 -66.5 -89t-80.5 -30q-69 0 -69 52q0 15 8 37l134 347h-246l-130 -406q-63 -196 -100 -249q-45 -68 -123 -68q-36 0 -60.5 18.5t-24.5 52.5q0 32 21 58l23 -15q-14 -20 -14 -41q0 -49 56 -49q61 0 100 63t95 238
l127 398h-244l-130 -406q-63 -196 -100 -249q-45 -68 -123 -68q-36 0 -60.5 18.5t-24.5 52.5q0 32 21 58l23 -15q-14 -20 -14 -41q0 -49 56 -49q61 0 100 63t95 238l127 398h-96l9 26h95l26 81q45 132 108 183q54 46 131 46z" />
    <glyph glyph-name="g_y" unicode="gy" horiz-adv-x="931" 
d="M451 -273q-56 0 -77 44q-77 -65 -208 -65q-107 0 -160.5 43.5t-53.5 113.5q0 51 34.5 84.5t93.5 59.5q-58 23 -58 83q0 37 28 65t80 37q-18 35 -18 79q0 85 48.5 138t126.5 53q114 0 148 -96q19 50 51.5 73t67.5 23q27 0 43 -11.5t24 -42.5q30 -121 56 -338l22 55
q63 160 122 263q24 41 46 57.5t53 16.5q47 0 66 -50l-20 -14q-19 40 -47 40q-23 0 -38.5 -14t-36.5 -51q-53 -90 -120 -259q-102 -256 -173 -335q-45 -52 -100 -52zM394 -210q14 -39 57 -39q39 0 81 47q48 51 123 222q-23 216 -61 379q-9 39 -40 39q-35 0 -64.5 -32.5
t-43.5 -96.5l-4 -25q-12 -77 -56 -120.5t-118 -43.5q-79 0 -122 49q-94 -15 -94 -81q0 -24 19.5 -43.5t63.5 -21.5l168 -9q134 -7 134 -114q0 -61 -43 -110zM166 -270q96 0 168 44.5t72 124.5q0 43 -25 64.5t-80 24.5l-167 9q-4 0 -9 0.5t-8 0.5q-64 -26 -99 -56.5
t-35 -78.5q0 -63 47.5 -98t135.5 -35zM412 311q0 59 -34.5 93t-90.5 34q-65 0 -104.5 -46t-39.5 -121q0 -59 32 -93t93 -34q65 0 104.5 46t39.5 121z" />
    <glyph glyph-name=".notdef" horiz-adv-x="250" 
 />
    <glyph glyph-name=".null" horiz-adv-x="0" 
 />
    <glyph glyph-name="nonmarkingreturn" horiz-adv-x="333" 
 />
    <glyph glyph-name="NULL" horiz-adv-x="0" 
 />
    <glyph glyph-name="NULL" horiz-adv-x="0" 
 />
    <glyph glyph-name="CR" unicode="&#xd;" horiz-adv-x="200" 
 />
    <glyph glyph-name="space" unicode=" " horiz-adv-x="200" 
 />
    <glyph glyph-name="exclam" unicode="!" horiz-adv-x="243" 
d="M292 700l-186 -522h-32l186 522h32zM50 -8q-16 0 -28 11.5t-12 28.5t12 28.5t28 11.5t28 -11.5t12 -28.5t-12 -28.5t-28 -11.5z" />
    <glyph glyph-name="quotedbl" unicode="&#x22;" horiz-adv-x="255" 
d="M361 700l-80 -224h-30l80 224h30zM239 700l-80 -224h-30l80 224h30z" />
    <glyph glyph-name="numbersign" unicode="#" horiz-adv-x="689" 
d="M293 386l-62 -173h162l62 173h-162zM464 412l64 180h31l-64 -180h159l-9 -26h-159l-62 -173h160l-9 -26h-160l-67 -187h-31l67 187h-162l-67 -187h-31l67 187h-161l9 26h161l62 173h-163l9 26h163l64 180h31l-64 -180h162z" />
    <glyph glyph-name="dollar" unicode="$" horiz-adv-x="458" 
d="M134 -95h-30l32 89q-66 6 -96.5 37.5t-30.5 73.5q0 61 58 92l13 -22q-42 -23 -42 -70q0 -79 106 -88l94 263l-23 18q-64 50 -64 122q0 61 49.5 98t124.5 37h11l28 79h30l-29 -82q55 -8 82.5 -37t27.5 -70q0 -48 -45 -76l-14 20q30 21 30 56q0 72 -89 84l-86 -239l22 -17
q67 -52 67 -127q0 -71 -54 -112.5t-138 -41.5h-3zM276 250l-15 12l-87 -246h6q68 3 109 37.5t41 92.5q0 62 -54 104zM232 321l16 -13l79 223h-1q-62 0 -103.5 -28t-41.5 -83q0 -59 51 -99z" />
    <glyph glyph-name="percent" unicode="%" horiz-adv-x="630" 
d="M16 -32l579 631l19 -16l-579 -631zM295 448q0 -61 -43.5 -112.5t-109.5 -51.5q-51 0 -79 30t-28 76q0 61 44 112.5t111 51.5q51 0 78 -30.5t27 -75.5zM266 448q0 36 -18.5 59.5t-57.5 23.5q-56 0 -91 -43.5t-35 -97.5q0 -37 19.5 -60t58.5 -23q54 0 89 43.5t35 97.5z
M490 268q51 0 78 -30.5t27 -75.5q0 -61 -43.5 -112.5t-109.5 -51.5q-51 0 -79 30t-28 76q0 61 44 112.5t111 51.5zM442 21q54 0 89 43.5t35 97.5q0 36 -18.5 59.5t-57.5 23.5q-56 0 -91 -43.5t-35 -97.5q0 -37 19.5 -60t58.5 -23z" />
    <glyph glyph-name="ampersand" unicode="&#x26;" horiz-adv-x="726" 
d="M650 367q33 0 51.5 -17.5t18.5 -42.5q0 -35 -34 -69l-20 16q26 31 26 53q0 16 -11 26t-31 10q-10 0 -18.5 -2t-16.5 -8l-13 -10t-12.5 -14.5t-10 -14.5l-10 -16.5t-9.5 -15.5q-59 -98 -134 -170q46 -76 108 -76q50 0 102 37l13 -21q-58 -40 -115 -40q-82 0 -130 80
q-97 -80 -215 -80q-76 0 -125.5 40.5t-49.5 103.5q0 40 16 75.5t37 60t59.5 50.5t64.5 40t71 36q-29 72 -29 133q0 69 51.5 123t131.5 54q59 0 91 -26t32 -72q0 -31 -16.5 -60.5t-36.5 -49.5t-59.5 -44.5t-62 -36l-66.5 -33.5q47 -127 115 -269q54 52 124 160q20 32 29 45
t32.5 29t51.5 16zM263 531q0 -50 26 -120q113 55 153 86q66 52 66 113q0 74 -92 74q-68 0 -110.5 -46.5t-42.5 -106.5zM189 16q110 0 201 80q-66 141 -119 277l-45 -23t-43 -23.5t-44.5 -29l-35.5 -31t-32 -37.5t-18 -42.5t-8 -50.5q0 -55 40.5 -87.5t103.5 -32.5z" />
    <glyph glyph-name="quotesingle" unicode="'" horiz-adv-x="133" 
d="M239 700l-80 -224h-30l80 224h30z" />
    <glyph glyph-name="parenleft" unicode="(" horiz-adv-x="359" 
d="M65 110q0 410 428 700l14 -23q-193 -130 -302 -301t-109 -376q0 -96 28 -174.5t89 -156.5l-21 -18q-127 146 -127 349z" />
    <glyph glyph-name="parenright" unicode=")" horiz-adv-x="359" 
d="M314 462q0 -410 -428 -700l-14 23q193 130 302 301t109 376q0 96 -28 174.5t-89 156.5l21 18q127 -146 127 -349z" />
    <glyph glyph-name="asterisk" unicode="*" horiz-adv-x="473" 
d="M183 648l149 -97l46 174l30 -8l-47 -174l181 10v-30l-180 -8l66 -169l-28 -11l-64 170l-139 -114l-18 24l139 110l-151 98z" />
    <glyph glyph-name="plus" unicode="+" horiz-adv-x="465" 
d="M417 232h-176v-190h-33v190h-174v26h174v179h33v-179h176v-26z" />
    <glyph glyph-name="comma" unicode="," horiz-adv-x="282" 
d="M61 15l-23 -11q-10 11 -10 34q0 35 24 55t58 20q37 0 61.5 -24t24.5 -68q0 -133 -228 -225l-10 24q44 18 76 34.5t65 41t50.5 56t17.5 69.5q0 34 -16 51.5t-41 17.5q-22 0 -38 -13.5t-16 -38.5q0 -8 5 -23z" />
    <glyph glyph-name="hyphen" unicode="-" horiz-adv-x="272" 
d="M209 231h-160l9 26h160z" />
    <glyph glyph-name="period" unicode="." horiz-adv-x="220" 
d="M77 -8q-16 0 -28 11.5t-12 28.5t12 28.5t28 11.5t28 -11.5t12 -28.5t-12 -28.5t-28 -11.5z" />
    <glyph glyph-name="slash" unicode="/" horiz-adv-x="327" 
d="M-104 -154l586 892l24 -14l-586 -892z" />
    <glyph glyph-name="zero" unicode="0" horiz-adv-x="521" 
d="M211 -8q-79 0 -128.5 51.5t-49.5 128.5q0 75 40.5 146.5t105.5 109.5q56 34 131 34q79 0 128.5 -51.5t49.5 -128.5q0 -75 -40.5 -147t-105.5 -110q-60 -33 -131 -33zM211 16q68 0 115 30q60 36 95.5 100.5t35.5 135.5q0 67 -40.5 111.5t-106.5 44.5q-68 0 -115 -30
q-60 -36 -95.5 -100.5t-35.5 -135.5q0 -67 40.5 -111.5t106.5 -44.5z" />
    <glyph glyph-name="one" unicode="1" horiz-adv-x="295" 
d="M80 0l153 377q-50 -58 -164 -148l-14 18q146 118 211 207h25l-181 -454h-30z" />
    <glyph glyph-name="two" unicode="2" horiz-adv-x="478" 
d="M351 0h-374l7 20q143 69 212 108q98 54 151.5 104t53.5 111q0 48 -35.5 71.5t-89.5 23.5q-71 0 -121.5 -35t-50.5 -89q0 -23 10 -34.5t24 -11.5q18 0 35 14l14 -18q-20 -20 -49 -20q-26 0 -44.5 18t-18.5 52q0 60 57.5 104t143.5 44q67 0 110.5 -31.5t43.5 -87.5
q0 -67 -58 -122.5t-164 -114.5q-86 -47 -159 -81h285l70 136h30z" />
    <glyph glyph-name="three" unicode="3" horiz-adv-x="538" 
d="M239 325q61 0 128 83q-27 7 -62 7q-44 0 -75.5 -13t-31.5 -41q0 -19 12 -27.5t29 -8.5zM517 261q0 -68 -31.5 -122t-80.5 -85t-103.5 -46.5t-106.5 -15.5q-96 0 -145 38.5t-49 95.5q0 42 22.5 63t50.5 21q26 0 42 -13l-11 -20q-15 9 -30 9q-45 0 -45 -60q0 -50 44 -80.5
t121 -30.5q46 0 95 14.5t94.5 43t74 77.5t28.5 111q0 100 -93 138q-41 -52 -76.5 -75t-79.5 -23q-28 0 -47.5 15.5t-19.5 43.5q0 34 34 56t100 22q44 0 78 -10q0 1 19 28l142 199q-87 -23 -238 -23q-29 0 -50 4q-25 -54 -68 -124l-22 12q76 125 99 210l24 -7
q-11 -36 -23 -68q13 -3 40 -3q191 0 265 33l17 -18l-179 -252q108 -46 108 -158z" />
    <glyph glyph-name="four" unicode="4" horiz-adv-x="500" 
d="M418 485l20 -18l-104.5 -98.5l-88.5 -88.5l-62 -63q-80 -80 -171 -191h264l135 340h32l-134 -340h139l-9 -26h-140l-85 -215h-33l85 215h-300l7 20q104 130 191 217q76 80 254 248z" />
    <glyph glyph-name="five" unicode="5" horiz-adv-x="476" 
d="M126 362l115 284h246l32 70h28l-44 -96h-244l-91 -225q39 17 89 17q82 0 127.5 -40t45.5 -112q0 -121 -82.5 -194.5t-208.5 -73.5q-70 0 -106 31t-36 77q0 31 14 52t44 41l16 -24q-23 -15 -33.5 -30t-10.5 -39q0 -38 28.5 -61t83.5 -23q113 0 186.5 66t73.5 178
q0 63 -36.5 95.5t-105.5 32.5q-63 0 -105 -26h-26z" />
    <glyph glyph-name="six" unicode="6" horiz-adv-x="476" 
d="M506 660v-24q-116 0 -224.5 -86t-167.5 -206q73 70 171 70q73 0 113.5 -40.5t40.5 -105.5q0 -120 -75 -198t-175 -78q-73 0 -113.5 46t-40.5 122q0 53 19 107q23 71 66.5 140.5t101.5 126t132.5 91.5t151.5 35zM66 160q0 -66 31 -105t92 -39q88 0 153.5 71t65.5 181
q0 57 -32 89.5t-91 32.5q-67 0 -123 -36.5t-79 -93.5q-17 -39 -17 -100z" />
    <glyph glyph-name="seven" unicode="7" horiz-adv-x="476" 
d="M46 237l-20 16q59 75 86 130.5t33 132.5l26 -2q-1 -19 -7 -57q58 -18 126 -18q92 0 140 9t97 34l15 -21q-49 -52 -108 -123.5t-92 -115l-88.5 -119.5t-57.5 -78q-2 -3 -16 -21.5t-24.5 -34t-23 -37t-20 -42.5t-7.5 -38q0 -48 43 -48q37 0 61 52l20 -9q-9 -28 -30 -47.5
t-52 -19.5q-32 0 -51 18t-19 52q0 24 14 56.5t28 55t33.5 50t20.5 28.5l41 56l58.5 79.5l61 80.5l75.5 94.5l74 85.5q-69 -22 -193 -22q-73 0 -132 17q-24 -87 -112 -194z" />
    <glyph glyph-name="eight" unicode="8" horiz-adv-x="458" 
d="M200 -8q-84 0 -130 46t-46 107q0 41 18 75.5t53 61t67.5 44t80.5 37.5q-55 46 -80 84.5t-25 79.5q0 73 57 114.5t127 41.5q74 0 114.5 -36.5t40.5 -89.5q0 -64 -46 -111.5t-138 -88.5q121 -91 121 -184q0 -74 -57.5 -127.5t-156.5 -53.5zM168 527q0 -77 103 -152
q92 39 134 80t42 102q0 46 -32 74t-93 28q-59 0 -106.5 -34t-47.5 -98zM200 16q85 0 134.5 45.5t49.5 111.5q0 27 -7.5 49t-29 46t-34 35.5t-48.5 41.5q-106 -47 -142 -75q-69 -52 -69 -125q0 -52 38.5 -90.5t107.5 -38.5z" />
    <glyph glyph-name="nine" unicode="9" horiz-adv-x="476" 
d="M-37 -207v24q121 0 227 80.5t167 198.5q-63 -57 -164 -57q-71 0 -114 41t-43 105q0 115 74.5 195.5t175.5 80.5q73 0 113.5 -48.5t40.5 -127.5q0 -49 -20 -111q-22 -67 -64 -133t-100 -122.5t-135 -91t-158 -34.5zM193 63q69 0 123 32.5t77 88.5q16 51 16 101
q0 68 -31 110t-92 42q-88 0 -153.5 -74.5t-65.5 -177.5q0 -56 34.5 -89t91.5 -33z" />
    <glyph glyph-name="colon" unicode=":" horiz-adv-x="224" 
d="M188 382q-16 0 -28 11.5t-12 28.5t12 28.5t28 11.5t28 -11.5t12 -28.5t-12 -28.5t-28 -11.5zM33 -8q-16 0 -28 11.5t-12 28.5t12 28.5t28 11.5t28 -11.5t12 -28.5t-12 -28.5t-28 -11.5z" />
    <glyph glyph-name="semicolon" unicode=";" horiz-adv-x="290" 
d="M206 382q-16 0 -28 11.5t-12 28.5t12 28.5t28 11.5t28 -11.5t12 -28.5t-12 -28.5t-28 -11.5zM59 15l-23 -11q-10 11 -10 34q0 35 24 55t58 20q37 0 61.5 -24t24.5 -68q0 -133 -228 -225l-10 24q44 18 76 34.5t65 41t50.5 56t17.5 69.5q0 34 -16 51.5t-41 17.5
q-22 0 -38 -13.5t-16 -38.5q0 -8 5 -23z" />
    <glyph glyph-name="less" unicode="&#x3c;" horiz-adv-x="400" 
d="M349 81l-323 152v22l323 154v-32l-279 -133l279 -132v-31z" />
    <glyph glyph-name="equal" unicode="=" horiz-adv-x="405" 
d="M362 300h-323v27h323v-27zM362 162h-323v27h323v-27z" />
    <glyph glyph-name="greater" unicode="&#x3e;" horiz-adv-x="400" 
d="M51 81v31l279 132l-279 133v32l323 -154v-22z" />
    <glyph glyph-name="question" unicode="?" horiz-adv-x="422" 
d="M437 586q0 44 -27 71t-82 27t-94.5 -28t-39.5 -75q0 -31 23 -45l-14 -20q-39 18 -39 65q0 55 49 91t115 36q70 0 105 -35t35 -87q0 -14 -3.5 -28.5t-7 -25t-13.5 -25l-15.5 -22t-21 -23t-20.5 -20l-24.5 -22t-23.5 -21.5l-35.5 -31l-38.5 -34t-34.5 -33.5t-35.5 -39
t-27.5 -40t-24.5 -47.5l-27 7q10 26 25.5 51t29.5 43t37 41.5t36 35l41 36l38 33.5q4 4 31 28t34 32.5l23 28.5t21 37.5t5 38.5zM87 -8q-16 0 -28 11.5t-12 28.5t12 28.5t28 11.5t28 -11.5t12 -28.5t-12 -28.5t-28 -11.5z" />
    <glyph glyph-name="at" unicode="@" horiz-adv-x="987" 
d="M636 18q96 0 174.5 82.5t78.5 219.5q0 132 -94 218t-245 86q-91 0 -175.5 -31.5t-151.5 -89.5t-107.5 -148t-40.5 -199q0 -69 24 -133t70 -116.5t120 -84t166 -31.5q303 0 457 220l23 -17q-163 -230 -480 -230q-129 0 -224.5 57t-141 144.5t-45.5 190.5q0 114 42.5 209.5
t113.5 156.5t161.5 94.5t188.5 33.5q166 0 268 -94t102 -236q0 -77 -27 -141.5t-69.5 -104t-91 -61t-96.5 -21.5q-43 0 -64 19.5t-21 49.5q0 14 5 32q-69 -101 -161 -101q-63 0 -95.5 35.5t-32.5 99.5q0 117 82.5 211.5t193.5 94.5q77 0 114 -56l20 48h32l-99 -247
q-29 -81 -29 -117q0 -18 14.5 -30.5t40.5 -12.5zM395 18q57 0 107 50.5t82 129.5l61 149q-27 60 -102 60q-97 0 -170.5 -86.5t-73.5 -193.5q0 -109 96 -109z" />
    <glyph glyph-name="A" unicode="A" horiz-adv-x="678" 
d="M243 263h239l59 379zM476 26h119l-9 -26h-268l9 26h118l32 211h-255l-166 -211h102l-9 -26h-229l9 26h93l532 674h26z" />
    <glyph glyph-name="B" unicode="B" horiz-adv-x="641" 
d="M-68 0l9 26h127l229 648h-120l9 26h305q171 0 171 -134q0 -72 -49 -124.5t-133 -70.5q111 -27 111 -138t-85.5 -172t-210.5 -61h-363zM490 674h-162l-102 -288h184q94 0 157.5 50.5t63.5 129.5q0 55 -33.5 81.5t-107.5 26.5zM394 360h-177l-118 -334h197q70 0 128 20.5
t97 69t39 117.5q0 127 -166 127z" />
    <glyph glyph-name="C" unicode="C" horiz-adv-x="662" 
d="M445 708q52 0 88 -14t56 -41.5t29 -55.5t15 -68l63 171h29l-86 -228h-24q-9 109 -43.5 160.5t-126.5 51.5q-97 0 -177.5 -66.5t-122.5 -164t-42 -199.5q0 -113 57.5 -175.5t155.5 -62.5q95 0 166 57.5t110 156.5l22 -6q-32 -102 -112.5 -167t-185.5 -65q-112 0 -178 69
t-66 193q0 110 46.5 213.5t134 172t192.5 68.5z" />
    <glyph glyph-name="D" unicode="D" horiz-adv-x="727" 
d="M186 700h268q272 0 272 -260q0 -124 -59.5 -230t-165.5 -161q-90 -49 -215 -49h-346l9 26h122l230 648h-124zM102 26h184q113 0 201 46q99 52 153.5 151t54.5 217q0 235 -243 234h-120z" />
    <glyph glyph-name="E" unicode="E" horiz-adv-x="654" 
d="M589 213l-75 -213h-578l9 26h122l230 648h-124l9 26h525l-80 -222h-29l70 196h-340l-105 -295h192l41 114h28l-87 -242h-28l37 102h-192l-116 -327h397l65 187h29z" />
    <glyph glyph-name="F" unicode="F" horiz-adv-x="609" 
d="M98 26h144l-9 -26h-297l9 26h122l230 648h-124l9 26h525l-80 -222h-29l70 196h-340l-104 -294h190l40 113h28l-85 -242h-28l36 103h-191z" />
    <glyph glyph-name="G" unicode="G" horiz-adv-x="712" 
d="M473 708q162 0 177 -164l56 156h29l-79 -217h-24q-6 103 -40 152t-119 49q-95 0 -183 -65t-139.5 -165.5t-51.5 -203.5q0 -110 64 -172t164 -62q122 0 194 65l51 143h-144l9 26h278l-9 -26h-104l-53 -150q-74 -82 -222 -82q-115 0 -187 68t-72 190q0 80 32.5 162.5
t86 147.5t129.5 106.5t157 41.5z" />
    <glyph glyph-name="H" unicode="H" horiz-adv-x="750" 
d="M182 700h257l-9 -26h-102l-107 -302h403l108 302h-107l9 26h256l-9 -26h-118l-231 -648h120l-9 -26h-246l9 26h95l114 320h-403l-114 -320h103l-9 -26h-256l9 26h122l230 648h-124z" />
    <glyph glyph-name="I" unicode="I" horiz-adv-x="317" 
d="M181 700h276l-9 -26h-120l-230 -648h121l-9 -26h-276l9 26h124l231 648h-126z" />
    <glyph glyph-name="J" unicode="J" horiz-adv-x="355" 
d="M170 163l179 511h-133l9 26h258l-9 -26h-94l-182 -519q-56 -163 -167 -163q-43 0 -64 23.5t-21 54.5q0 41 38 68l17 -17q-26 -19 -26 -51q0 -22 14 -38t42 -16q49 0 80 35.5t59 111.5z" />
    <glyph glyph-name="K" unicode="K" horiz-adv-x="673" 
d="M187 700h246l-9 -26h-99l-114 -321l402 321h-95l9 26h244l-9 -26h-108l-343 -274l204 -374h106l-9 -26h-243l9 26h102l-193 355l-93 -74l-100 -281h101l-9 -26h-245l9 26h113l231 648h-116z" />
    <glyph glyph-name="L" unicode="L" horiz-adv-x="616" 
d="M180 700h276l-9 -26h-121l-229 -648h376l73 209h29l-83 -235h-558l9 26h123l229 648h-124z" />
    <glyph glyph-name="M" unicode="M" horiz-adv-x="853" 
d="M357 43l468 657h168l-9 -26h-119l-231 -648h119l-9 -26h-252l9 26h102l226 636l-477 -670h-23l-6 678l-228 -644h102l-9 -26h-252l9 26h122l230 648h-125l9 26h170z" />
    <glyph glyph-name="N" unicode="N" horiz-adv-x="741" 
d="M620 700h256l-9 -26h-105l-238 -674h-26l-171 671l-230 -645h119l-9 -26h-271l9 26h122l231 648h-124l9 26h167l165 -641l218 615h-122z" />
    <glyph glyph-name="O" unicode="O" horiz-adv-x="686" 
d="M305 -8q-100 0 -162 68t-62 198q0 138 80 263.5t201 170.5q38 16 99 16q99 0 161.5 -68.5t62.5 -197.5q0 -138 -80 -264t-201 -170q-39 -16 -99 -16zM305 16q45 0 89 15q111 41 185.5 162t74.5 249q0 118 -53 180.5t-140 62.5q-45 0 -89 -16q-113 -41 -186.5 -161
t-73.5 -250q0 -118 53 -180t140 -62z" />
    <glyph glyph-name="P" unicode="P" horiz-adv-x="595" 
d="M386 343q101 0 170 53t69 152q0 57 -37.5 91.5t-109.5 34.5h-146l-113 -318q82 -13 167 -13zM102 26h134l-9 -26h-286l9 26h121l230 648h-121l9 26h289q86 0 132 -43t46 -109q0 -109 -77 -170t-193 -61q-87 0 -176 13z" />
    <glyph glyph-name="Q" unicode="Q" horiz-adv-x="686" 
d="M81 258q0 138 80 263.5t201 170.5q38 16 99 16q99 0 161.5 -68.5t62.5 -197.5q0 -138 -80 -264t-201 -170q-37 -14 -82 -16q6 -77 59 -126.5t137 -49.5q66 0 122 14l4 -24q-48 -15 -127 -15q-97 0 -158 56t-67 145q-95 4 -153 72.5t-58 193.5zM305 16q45 0 89 15
q111 41 185.5 162t74.5 249q0 118 -53 180.5t-140 62.5q-45 0 -89 -16q-113 -41 -186.5 -161t-73.5 -250q0 -118 53 -180t140 -62z" />
    <glyph glyph-name="R" unicode="R" horiz-adv-x="656" 
d="M99 26h113l-9 -26h-271l9 26h127l229 648h-121l9 26h276q84 0 124 -40.5t40 -100.5q0 -85 -57.5 -141t-145.5 -62q81 -27 81 -106q0 -31 -17 -87q-17 -55 -18 -81q0 -66 59 -66q25 0 46 19t26 49l24 -6q-7 -41 -32.5 -63.5t-63.5 -22.5q-41 0 -65.5 22.5t-24.5 67.5
q1 19 21 89q15 45 15 79q0 47 -33.5 73.5t-88.5 26.5h-138zM222 376h160q87 0 149.5 48.5t62.5 135.5q0 50 -32.5 82t-100.5 32h-133z" />
    <glyph glyph-name="S" unicode="S" horiz-adv-x="603" 
d="M559 505h-28q1 15 1 34q0 62 -42 103.5t-112 41.5q-64 0 -109 -36.5t-45 -102.5q0 -13 2 -25t8 -23.5l10 -19.5t15.5 -19l17 -16.5t21 -16.5l21 -15t24 -16t23.5 -15q42 -27 61.5 -41t46.5 -40t38.5 -54.5t11.5 -63.5q0 -86 -59 -137t-153 -51q-194 0 -214 165l-55 -157
h-29l83 235h29q-5 -18 -5 -48q0 -71 45.5 -121t145.5 -50q80 0 130.5 44.5t50.5 119.5q0 31 -10.5 56t-34.5 47.5t-42 36t-55 36.5q-40 24 -61.5 39.5t-47.5 39.5t-37.5 51t-11.5 59q0 75 55 119t130 44q77 0 122 -38.5t54 -99.5l45 130h29z" />
    <glyph glyph-name="T" unicode="T" horiz-adv-x="655" 
d="M495 674l-230 -648h132l-9 -26h-296l9 26h133l230 648h-241l-74 -207h-29l83 233h573l-83 -233h-29l74 207h-243z" />
    <glyph glyph-name="U" unicode="U" horiz-adv-x="754" 
d="M656 700h258l-9 -26h-119l-149 -420q-48 -134 -117 -198t-196 -64q-97 0 -155 42t-58 125q0 47 20 104l145 411h-122l9 26h271l-9 -26h-118l-149 -422q-17 -50 -17 -93q0 -72 50.5 -107.5t132.5 -35.5q100 0 159 46q76 55 127 203l145 409h-108z" />
    <glyph glyph-name="V" unicode="V" horiz-adv-x="676" 
d="M263 674h-107l9 26h253l-9 -26h-117l-93 -615l494 615h-115l9 26h240l-9 -26h-91l-542 -674h-25z" />
    <glyph glyph-name="W" unicode="W" horiz-adv-x="989" 
d="M275 674h-127l9 26h253l-9 -26h-96l-112 -617l400 505l20 112h-112l9 26h258l-9 -26h-117l-112 -616l485 616h-117l9 26h239l-9 -26h-87l-531 -673h-28l92 508l-401 -508h-28z" />
    <glyph glyph-name="X" unicode="X" horiz-adv-x="730" 
d="M202 0h-253l9 26h102l324 346l-95 302h-119l9 26h256l-9 -26h-105l87 -276l258 276h-120l9 26h259l-9 -26h-102l-286 -305l108 -343h115l-9 -26h-263l9 26h116l-100 317l-297 -317h115z" />
    <glyph glyph-name="Y" unicode="Y" horiz-adv-x="637" 
d="M670 674h-96l9 26h211l-9 -26h-80l-317 -361l-103 -287h122l-9 -26h-267l9 26h114l106 295l-119 353h-94l9 26h221l-9 -26h-95l110 -328z" />
    <glyph glyph-name="Z" unicode="Z" horiz-adv-x="618" 
d="M231 674l-57 -158h-29l67 184h476l-9 -21l-643 -653h425l66 185h29l-76 -211h-498l10 21l643 653h-404z" />
    <glyph glyph-name="bracketleft" unicode="[" horiz-adv-x="346" 
d="M297 780h195l-9 -26h-164l-340 -957h170l-9 -26h-203z" />
    <glyph glyph-name="backslash" unicode="\" horiz-adv-x="250" 
d="M16 729l29 6l166 -895l-29 -6z" />
    <glyph glyph-name="bracketright" unicode="]" horiz-adv-x="346" 
d="M49 -229h-195l9 26h164l340 957h-170l9 26h203z" />
    <glyph glyph-name="asciicircum" unicode="^" horiz-adv-x="365" 
d="M324 700l84 -243l-26 -10l-75 219l-211 -215l-20 19l226 230h22z" />
    <glyph glyph-name="underscore" unicode="_" horiz-adv-x="404" 
d="M-104 -204h412v-26h-412v26z" />
    <glyph glyph-name="grave" unicode="`" 
d="M88 751l26 13l107 -206l-26 -13z" />
    <glyph glyph-name="a" unicode="a" horiz-adv-x="545" 
d="M387 16q34 0 66.5 26.5t56.5 78.5l22 -10q-27 -60 -65 -89.5t-80 -29.5q-61 0 -61 75q0 12 1 19q-60 -94 -163 -94q-66 0 -100.5 41.5t-34.5 110.5q0 65 36 133t97 121q75 59 157 59q81 0 122 -48l22 53h29l-129 -326q-12 -36 -12 -69q0 -51 36 -51zM164 16
q59 0 106 40.5t66 90.5l95 236q-33 50 -112 50q-72 0 -135 -52q-55 -47 -89.5 -113t-34.5 -124q0 -59 27 -93.5t77 -34.5z" />
    <glyph glyph-name="b" unicode="b" horiz-adv-x="487" 
d="M315 789l-160 -400q64 73 149 73q73 0 112.5 -44t39.5 -115q0 -45 -20 -98t-54 -101t-86.5 -80t-109.5 -32q-72 0 -108.5 36.5t-36.5 95.5q0 49 20 101l210 532q-31 -4 -70 -4h-55l9 26h43q65 0 96 10h21zM304 438q-60 0 -109.5 -42.5t-75.5 -104.5l-31 -77
q-16 -39 -16 -90q0 -50 28 -79t86 -29q67 0 124.5 51.5t86 116.5t28.5 119q0 61 -30.5 98t-90.5 37z" />
    <glyph glyph-name="c" unicode="c" horiz-adv-x="457" 
d="M410 370q0 68 -103 68q-67 0 -118 -37q-57 -39 -92 -107t-35 -132q0 -69 30 -107.5t92 -38.5q119 0 194 140l23 -9q-33 -71 -90 -113t-127 -42q-76 0 -114.5 45t-38.5 125q0 70 40 144.5t103 115.5q58 40 133 40q59 0 96 -23.5t37 -67.5q0 -33 -25 -65l-22 15
q17 25 17 49z" />
    <glyph glyph-name="d" unicode="d" horiz-adv-x="550" 
d="M444 406l138 351q-31 -4 -70 -4h-55l9 26h43q65 0 96 10h20l-255 -653q-12 -27 -12 -72q0 -23 8.5 -35.5t32.5 -12.5q34 0 66.5 26.5t56.5 78.5l22 -10q-27 -60 -65 -89.5t-80 -29.5q-66 0 -66 72q0 14 1 21q-66 -93 -160 -93q-71 0 -108 45.5t-37 109.5q0 68 34.5 140
t95.5 119q71 56 158 56q81 0 127 -56zM174 16q53 0 100 37t73 104l87 221q-39 60 -117 60q-75 0 -141 -53q-54 -42 -85 -109.5t-31 -128.5q0 -54 28.5 -92.5t85.5 -38.5z" />
    <glyph glyph-name="e" unicode="e" horiz-adv-x="430" 
d="M62 162q0 -146 125 -146q53 0 103 40t79 107l23 -9q-33 -76 -88 -119t-117 -43q-77 0 -116.5 45t-39.5 125q0 108 80.5 204t187.5 96q53 0 82.5 -26.5t29.5 -62.5q0 -76 -100 -115q-67 -27 -243 -42q-6 -27 -6 -54zM299 438q-75 0 -137.5 -57.5t-87.5 -139.5
q156 13 228 40q78 30 78 92q0 30 -21.5 47.5t-59.5 17.5z" />
    <glyph glyph-name="f" unicode="f" horiz-adv-x="312" 
d="M193 454h162l-9 -26h-161l-131 -406q-63 -196 -100 -249q-45 -68 -123 -68q-36 0 -60.5 18.5t-24.5 52.5q0 32 21 58l23 -15q-14 -20 -14 -41q0 -49 56 -49q61 0 100 63t95 238l127 398h-96l9 26h96l32 101q45 132 108 183q54 46 124 46q46 0 79 -23.5t33 -64.5
q0 -50 -45 -80l-17 21q32 27 32 58q0 30 -25 47.5t-57 17.5q-55 0 -105 -43q-62 -55 -100 -173z" />
    <glyph glyph-name="g" unicode="g" horiz-adv-x="561" 
d="M287 438q-65 0 -104.5 -46t-39.5 -121q0 -59 32 -93t93 -34q65 0 104.5 46t39.5 121q0 59 -34.5 93t-90.5 34zM287 462q99 0 138 -73q35 62 83 62q24 0 40.5 -13t16.5 -38q0 -36 -32 -72l-22 17q25 32 25 55q0 13 -8.5 20t-19.5 7q-38 0 -71 -70q6 -22 6 -46
q0 -85 -48.5 -138t-126.5 -53q-79 0 -122 49q-94 -15 -94 -81q0 -24 19.5 -43.5t63.5 -21.5l168 -9q134 -7 134 -114q0 -89 -80 -141.5t-191 -52.5q-107 0 -160.5 43.5t-53.5 113.5q0 51 34.5 84.5t93.5 59.5q-58 23 -58 83q0 37 28 65t80 37q-18 35 -18 79q0 85 48.5 138
t126.5 53zM-17 -137q0 -63 47.5 -98t135.5 -35q96 0 168 44.5t72 124.5q0 43 -25 64.5t-80 24.5l-167 9q-4 0 -9.5 0.5t-7.5 0.5q-64 -26 -99 -56.5t-35 -78.5z" />
    <glyph glyph-name="h" unicode="h" horiz-adv-x="578" 
d="M353 789l-197 -493q29 45 70 86q80 80 162 80q94 0 94 -86q0 -32 -14 -62l-102 -250q-7 -19 -7 -28q0 -20 33 -20q35 0 68 26.5t53 77.5l23 -9q-50 -119 -144 -119q-62 0 -62 44q0 16 7 33l104 256q11 24 11 51q0 62 -65 62q-74 0 -153 -84q-80 -83 -123 -179l-70 -175
h-31l300 757q-31 -4 -70 -4h-55l9 26h43q65 0 96 10h20z" />
    <glyph glyph-name="i" unicode="i" horiz-adv-x="308" 
d="M268 586q-16 0 -28 11.5t-12 28.5t12 28.5t28 11.5t28 -11.5t12 -28.5t-12 -28.5t-28 -11.5zM109 -8q-65 -1 -65 50q0 22 9 45l141 345q-31 -4 -70 -4h-55l9 26h43q65 0 96 10h21l-157 -388q-7 -19 -7 -35q0 -25 35 -25q33 0 68.5 26.5t58.5 77.5l23 -9
q-25 -60 -65.5 -89t-84.5 -30z" />
    <glyph glyph-name="j" unicode="j" horiz-adv-x="241" 
d="M301 626q0 -17 -12 -28.5t-28 -11.5t-28 11.5t-12 28.5t12 28.5t28 11.5t28 -11.5t12 -28.5zM-28 -146l216 578q-31 -4 -71 -4h-55l9 26h43q65 0 96 10h21l-232 -621q-25 -67 -59 -102.5t-84 -35.5q-37 0 -56.5 21t-19.5 52q0 37 26 66l23 -15q-20 -23 -20 -51
q0 -21 12.5 -35t34.5 -14q41 0 67.5 32t48.5 93z" />
    <glyph glyph-name="k" unicode="k" horiz-adv-x="559" 
d="M290 105l7 81q4 44 -17.5 71t-58.5 27h-60l-115 -284h-31l306 757q-31 -4 -69 -4h-55l9 26h43q65 0 96 10h20l-194 -479h73q60 0 100 69q23 39 48 61t65 22q32 0 51 -15t19 -39q0 -26 -23 -57l-22 15q17 26 17 42q0 30 -42 30q-21 0 -39.5 -13t-28 -26t-22.5 -34
q-35 -62 -97 -73q62 -33 55 -108l-7 -81q-8 -87 48 -87q80 0 131 145l23 -8q-50 -161 -154 -161q-45 0 -63 26.5t-13 86.5z" />
    <glyph glyph-name="l" unicode="l" horiz-adv-x="279" 
d="M98 -8q-69 0 -69 52q0 15 8 37l261 676q-31 -4 -70 -4h-55l9 26h43q65 0 96 10h20l-277 -719q-5 -17 -5 -26q0 -28 39 -28q73 0 126 104l21 -9q-26 -59 -66.5 -89t-80.5 -30z" />
    <glyph glyph-name="m" unicode="m" horiz-adv-x="841" 
d="M655 -8q-62 0 -62 44q0 16 7 33l102 256q11 33 11 52q0 61 -56 61q-64 0 -144 -85q-84 -94 -119 -180l-69 -173h-31l125 315q15 32 15 67q0 56 -51 56q-68 0 -148 -85q-86 -93 -122 -185l-67 -168h-31l171 432q-31 -4 -70 -4h-55l9 26h43q65 0 96 10h20l-68 -164
q35 49 58 72q87 90 165 90t78 -73q0 -21 -17 -75l-5 -12q33 47 57 71q87 89 161 89q85 0 85 -85q0 -33 -14 -63l-100 -250q-7 -19 -7 -28q0 -20 33 -20q35 0 68 26.5t53 77.5l23 -9q-50 -119 -144 -119z" />
    <glyph glyph-name="n" unicode="n" horiz-adv-x="582" 
d="M209 464h20l-69 -168q29 45 70 86q80 80 162 80q94 0 94 -86q0 -32 -14 -62l-102 -250q-7 -19 -7 -28q0 -20 33 -20q35 0 68 26.5t53 77.5l23 -9q-50 -119 -144 -119q-62 0 -62 44q0 16 7 33l104 256q11 24 11 51q0 62 -65 62q-69 0 -153 -84q-78 -76 -113 -154l-79 -200
h-31l171 432q-31 -4 -70 -4h-55l9 26h43q65 0 96 10z" />
    <glyph glyph-name="o" unicode="o" horiz-adv-x="501" 
d="M300 462q76 0 122 -51.5t46 -128.5q0 -75 -40.5 -147t-104.5 -110q-52 -33 -122 -33q-77 0 -122.5 51t-45.5 129q0 74 41.5 147t105.5 111q50 32 120 32zM201 16q59 0 106 29q58 35 94 103t36 134q0 68 -36.5 112t-100.5 44q-57 0 -104 -28q-59 -35 -95.5 -103
t-36.5 -135q0 -69 35.5 -112.5t101.5 -43.5z" />
    <glyph glyph-name="p" unicode="p" horiz-adv-x="528" 
d="M341 438q-61 0 -112.5 -45.5t-77.5 -121.5l-23 -69q-18 -54 -18 -66q0 -52 32 -86t88 -34q43 0 81.5 20t66 52t48 71t30.5 78t10 72q0 59 -32 94t-93 35zM214 464l-30 -88q66 86 157 86q74 0 115 -42.5t41 -110.5q0 -48 -19 -102.5t-52 -102.5t-85 -80t-111 -32
q-55 0 -90.5 26.5t-48.5 70.5l-117 -354h104l-9 -26h-220l9 26h86l230 697q-31 -4 -72 -4h-55l9 26h43q65 0 96 10h19z" />
    <glyph glyph-name="q" unicode="q" horiz-adv-x="484" 
d="M195 -265l119 323q-59 -66 -135 -66q-71 0 -110.5 46t-39.5 112q0 70 36 141.5t101 121t139 49.5q87 0 127 -77l28 77h32l-267 -727h94l-9 -26h-221l9 26h97zM179 16q58 0 104.5 44t74.5 121l61 168q-10 39 -39 64t-75 25q-98 0 -171.5 -93t-73.5 -195q0 -57 30 -95.5
t89 -38.5z" />
    <glyph glyph-name="r" unicode="r" horiz-adv-x="392" 
d="M373 336l-21 17q29 27 29 52q0 33 -38 33q-37 0 -96 -69q-104 -124 -141 -218l-60 -151h-31l170 432q-31 -4 -69 -4h-55l9 26h43q65 0 96 10l12 -11l-71 -180q33 63 84 118q32 37 57.5 54t53.5 17q31 0 48.5 -15.5t17.5 -41.5q0 -38 -38 -69z" />
    <glyph glyph-name="s" unicode="s" horiz-adv-x="390" 
d="M348 307l-17 21q25 22 25 45q0 30 -26.5 47.5t-69.5 17.5q-42 0 -71 -20.5t-29 -56.5q0 -20 13.5 -42.5t23.5 -32.5l37 -37q42 -41 61.5 -70t19.5 -61q0 -58 -43.5 -92t-109.5 -34q-77 0 -113 33.5t-36 78.5q0 48 44 85l19 -19q-33 -30 -33 -66q0 -38 29 -63t90 -25
q54 0 88 26.5t34 75.5q0 27 -17 52t-53 59q-39 36 -61.5 66.5t-22.5 63.5q0 47 39 75t91 28q57 0 91.5 -26t34.5 -63q0 -38 -38 -66z" />
    <glyph glyph-name="t" unicode="t" horiz-adv-x="366" 
d="M226 454h156l-9 -26h-158l-131 -327q-8 -22 -8 -37q0 -48 58 -48q46 0 92 44.5t85 117.5l24 -11q-40 -82 -93 -128.5t-108 -46.5q-45 0 -66.5 20t-21.5 52q0 23 11 48l127 316h-121l9 26h123l37 93h31z" />
    <glyph glyph-name="u" unicode="u" horiz-adv-x="555" 
d="M513 454l-148 -382q-7 -18 -7 -32q0 -21 32 -21q34 0 65 26.5t51 77.5l23 -9q-50 -119 -139 -119q-61 0 -61 43q0 17 7 34l36 91q-32 -44 -64 -80q-89 -91 -166 -91q-47 0 -70.5 23t-23.5 64q0 36 15 68l117 285q-31 -4 -70 -4h-55l9 26h43q65 0 96 10h21l-134 -328
q-12 -36 -12 -57q0 -63 64 -63q68 0 149 86q89 94 122 178l69 174h31z" />
    <glyph glyph-name="v" unicode="v" horiz-adv-x="529" 
d="M465 327q0 73 -39 114l21 19q49 -51 49 -133q0 -35 -9.5 -78t-31 -88.5t-50.5 -83t-73 -61.5t-94 -24q-63 0 -98.5 26t-35.5 78q0 34 16 67l92 201q12 29 12 44q0 30 -31 30q-39 0 -77.5 -43t-60.5 -123l-26 6q23 88 68.5 136t97.5 48q28 0 43.5 -15.5t15.5 -39.5
q0 -21 -15 -55l-92 -201q-13 -31 -13 -55q0 -80 108 -80q60 0 113 49.5t81.5 121t28.5 140.5z" />
    <glyph glyph-name="w" unicode="w" horiz-adv-x="811" 
d="M522 -8q-53 0 -85.5 32t-34.5 84v7q-67 -123 -176 -123q-57 0 -90.5 30.5t-33.5 83.5q0 28 13 56l92 203q12 26 12 43q0 29 -31 30q-39 -1 -77.5 -44t-60.5 -122l-26 6q23 87 69 135.5t97 48.5q28 -1 43.5 -16.5t15.5 -38.5q0 -22 -15 -55l-92 -202q-10 -28 -10 -44
q0 -46 26 -68.5t68 -22.5q36 0 67.5 16.5t55 47.5t40.5 62t34 73l101 244l27 -11l-103 -249q-20 -49 -20 -81q0 -47 25.5 -74t68.5 -27q66 0 119 50t79 120.5t26 140.5q0 73 -39 114l21 19q49 -51 49 -133q0 -46 -14.5 -100.5t-43 -108.5t-80.5 -90t-117 -36z" />
    <glyph glyph-name="x" unicode="x" horiz-adv-x="551" 
d="M347 -8q-36 0 -55.5 23t-22.5 96l-5 86q-51 -90 -102 -150q-49 -55 -101 -55q-30 0 -48 17t-18 50q0 19 11 49l25 -8q-9 -27 -9 -41q0 -43 40 -43q39 0 82 50q36 41 118 177l-6 99q-3 53 -14.5 74.5t-38.5 21.5q-36 0 -69 -35t-53 -108l-25 7q22 83 63 121.5t83 38.5
q41 0 59.5 -25t22.5 -95l3 -55q51 82 82 119q45 56 98 56q72 0 72 -67q0 -21 -12 -50l-24 7q9 29 9 43q0 43 -44 43q-38 0 -81 -50q-49 -59 -97 -146l7 -131q3 -53 15 -74t36 -21q42 0 75 39.5t47 108.5l25 -5q-16 -78 -55.5 -122.5t-92.5 -44.5z" />
    <glyph glyph-name="y" unicode="y" horiz-adv-x="528" 
d="M-38 -197l25 4q7 -56 61 -56q39 0 81 47q48 51 123 222q-23 216 -61 379q-9 39 -40 39q-77 0 -100 -149l-26 4q25 169 126 169q27 0 43 -11.5t24 -42.5q30 -121 56 -338l22 55q63 160 122 263q24 41 46 57.5t53 16.5q47 0 66 -50l-20 -14q-19 40 -47 40q-23 0 -38.5 -14
t-36.5 -51q-53 -90 -120 -259q-102 -256 -173 -335q-45 -52 -100 -52q-40 0 -61.5 22.5t-24.5 53.5z" />
    <glyph glyph-name="z" unicode="z" horiz-adv-x="527" 
d="M430 125l16 22q56 -37 56 -91q0 -43 -26 -68t-76 -25q-47 0 -140 53q-4 2 -18 10t-20 10.5l-17.5 7.5t-21.5 6.5t-21 1.5q-67 0 -132 -65l-18 21l410 413q-48 -12 -116 -12q-79 0 -158 31l-37 -101l-28 -74l-25 10l32 89q39 107 39 108q110 -39 178 -39q106 0 154 24
l13 -19l-375 -379q33 19 70 19q9 0 17 -1t17 -3.5l14 -4t15 -6.5l13 -6.5t15 -8.5t15 -9q84 -52 125 -52q35 0 54.5 18t19.5 50q0 39 -44 70z" />
    <glyph glyph-name="braceleft" unicode="{" horiz-adv-x="358" 
d="M160 -203l-9 -26h-13q-66 0 -97 48.5t1 138.5l78 217q16 37 2.5 66t-51.5 29h-46l9 27h37q44 0 77 27.5t51 73.5l87 243q50 139 179 139h38l-9 -26h-32q-104 0 -149 -123l-87 -245q-32 -86 -115 -104q69 -26 36 -117l-78 -218q-24 -75 -2.5 -112.5t74.5 -37.5h19z" />
    <glyph glyph-name="bar" unicode="|" horiz-adv-x="290" 
d="M200 -236h-29v976h29v-976z" />
    <glyph glyph-name="braceright" unicode="}" horiz-adv-x="358" 
d="M198 754l9 26h13q66 0 97 -48.5t-1 -138.5l-78 -217q-16 -37 -2.5 -66t51.5 -29h46l-9 -27h-37q-44 0 -77 -27.5t-51 -73.5l-87 -243q-50 -139 -179 -139h-38l9 26h32q104 0 149 123l87 245q32 86 115 104q-69 26 -36 117l78 218q24 75 2.5 112.5t-74.5 37.5h-19z" />
    <glyph glyph-name="asciitilde" unicode="~" horiz-adv-x="491" 
d="M310 248q46 0 74 59l25 -11q-19 -43 -42.5 -60t-56.5 -17q-22 0 -69.5 21.5t-71.5 21.5q-47 0 -75 -59l-24 12q19 42 42.5 59t56.5 17q25 0 73 -21.5t68 -21.5z" />
    <glyph glyph-name="uni00A0" unicode="&#xa0;" horiz-adv-x="200" 
 />
    <glyph glyph-name="exclamdown" unicode="&#xa1;" horiz-adv-x="243" 
d="M-59 -246l186 522h32l-186 -522h-32zM183 462q16 0 28 -11.5t12 -28.5t-12 -28.5t-28 -11.5t-28 11.5t-12 28.5t12 28.5t28 11.5z" />
    <glyph glyph-name="cent" unicode="&#xa2;" horiz-adv-x="461" 
d="M66 162q0 -122 90 -143l149 419q-55 -1 -110 -37q-59 -41 -94 -105t-35 -134zM147 -87h-29l30 83q-56 12 -84.5 55.5t-28.5 110.5q0 76 39 144.5t104 112.5q64 43 135 43l30 84h29l-31 -86q49 -6 76 -29t27 -61q0 -33 -24 -63l-23 15q18 30 18 48q0 58 -82 67l-149 -421
q125 0 194 136l23 -10q-78 -154 -226 -150z" />
    <glyph glyph-name="sterling" unicode="&#xa3;" horiz-adv-x="557" 
d="M382 -18q-25 0 -49.5 7.5t-67.5 26.5t-59 25l-29 11q-49 -70 -130 -70q-31 0 -53 16.5t-22 44.5t19.5 46.5t56.5 18.5q64 0 119 -25q19 31 50 119h-126l9 26h125q6 14 21 73h-125l9 26h123q1 3 3 10t3 10q38 138 94.5 207t142.5 69q44 0 65.5 -21t21.5 -52q0 -55 -71 -86
l-11 23q53 24 53 63q0 22 -14.5 35.5t-43.5 13.5q-74 0 -124 -65.5t-84 -190.5q-2 -2 -3 -7.5t-2 -8.5h147l-9 -26h-145q-14 -50 -23 -73h147l-9 -26h-146q-26 -80 -54 -128l22 -9l50 -22t71 -28t48 -9q44 0 71 17.5t48 57.5l21 -10q-21 -46 -54 -67.5t-86 -21.5zM48 6
q62 0 105 56q-62 22 -100 22q-24 0 -38.5 -11.5t-14.5 -29.5q0 -19 15.5 -28t32.5 -9z" />
    <glyph glyph-name="yen" unicode="&#xa5;" horiz-adv-x="558" 
d="M125 337h151l-77 257h-93l9 26h221l-9 -26h-97l87 -294l234 294h-98l9 26h211l-9 -26h-78l-204 -257h153l-9 -26h-165l-39 -49l-14 -40h193l-9 -26h-193l-61 -170h121l-9 -26h-267l9 26h115l61 170h-186l9 26h186l19 51l-12 38h-168z" />
    <glyph glyph-name="brokenbar" unicode="&#xa6;" horiz-adv-x="290" 
d="M200 314h-29v426h29v-426zM200 -236h-29v426h29v-426z" />
    <glyph glyph-name="section" unicode="&#xa7;" horiz-adv-x="387" 
d="M129 218l57 -64l20 -24q47 12 75.5 45.5t28.5 76.5q0 58 -50 114l-40 44q-20 24 -23 29q-48 -13 -78.5 -47t-30.5 -76q0 -51 41 -98zM342 684q-68 0 -107 -44.5t-39 -104.5q0 -58 45 -108l40 -44q59 -65 59 -131q0 -49 -30.5 -88t-88.5 -57q25 -43 25 -92
q0 -72 -55.5 -120t-134.5 -48q-55 0 -90 26t-35 70q0 56 65 87l12 -22q-46 -26 -46 -65q0 -37 26 -54.5t68 -17.5q67 0 113.5 40.5t46.5 103.5q0 64 -49 120l-59 66q-50 56 -50 115q0 50 33 88.5t91 57.5q-16 31 -16 73q0 69 48 121t128 52q52 0 80.5 -25t28.5 -62
q0 -56 -65 -87l-12 22q46 26 46 65q0 28 -20.5 45.5t-57.5 17.5z" />
    <glyph glyph-name="dieresis" unicode="&#xa8;" 
d="M299 586q-15 0 -26.5 10.5t-11.5 27.5t11.5 27.5t26.5 10.5t26.5 -10.5t11.5 -27.5t-11.5 -27.5t-26.5 -10.5zM143 586q-15 0 -26.5 10.5t-11.5 27.5t11.5 27.5t26.5 10.5t26.5 -10.5t11.5 -27.5t-11.5 -27.5t-26.5 -10.5z" />
    <glyph glyph-name="copyright" unicode="&#xa9;" horiz-adv-x="1005" 
d="M85 337q0 193 127.5 317.5t313.5 124.5t314 -125t128 -317t-128 -317t-314 -125t-313.5 124.5t-127.5 317.5zM118 337q0 -182 116.5 -298t291.5 -116t292 116t117 298t-117 298t-292 116t-291.5 -116t-116.5 -298zM311 338q0 98 59.5 169t149.5 71q56 0 96.5 -26.5
t58.5 -74.5v101h29v-164h-32q-35 136 -152 136q-78 0 -127 -61.5t-49 -150.5q0 -88 49 -148t127 -60q113 0 152 136h32v-164h-29v101q-19 -47 -59.5 -74t-95.5 -27q-91 0 -150 68.5t-59 167.5z" />
    <glyph glyph-name="ordfeminine" unicode="&#xaa;" horiz-adv-x="470" 
d="M414 320q-54 0 -54 65v3q-46 -68 -126 -68q-56 0 -85.5 35t-29.5 93q0 62 35 121.5t90 96.5q52 36 112 36q61 0 102 -34l15 38h31l-102 -260q-16 -42 -16 -61q0 -41 28 -41q25 0 50.5 24.5t43.5 65.5l24 -10q-23 -50 -54 -77t-64 -27zM234 344q52 0 87 32t53 78l74 188
q-29 36 -92 36q-45 0 -96 -33q-48 -34 -79 -89t-31 -108q0 -104 84 -104z" />
    <glyph glyph-name="guillemotleft" unicode="&#xab;" horiz-adv-x="367" 
d="M217 242l83 -139l-22 -16l-92 152l3 14l161 146l18 -19zM123 87l-92 152l3 14l161 146l18 -19l-151 -138l83 -139z" />
    <glyph glyph-name="logicalnot" unicode="&#xac;" horiz-adv-x="453" 
d="M343 104v150h-327v26h361v-176h-34z" />
    <glyph glyph-name="registered" unicode="&#xae;" horiz-adv-x="579" 
d="M121 462q0 109 69.5 177.5t183.5 68.5t184 -69t70 -177t-70 -177t-184 -69t-183.5 68.5t-69.5 177.5zM598 462q0 101 -60 161t-164 60q-105 0 -164 -59.5t-59 -161.5q0 -100 58.5 -160.5t164.5 -60.5q104 0 164 60.5t60 160.5zM484 393q0 8 -3 23l25 5q5 -14 5 -28
q0 -18 -11.5 -30.5t-32.5 -12.5q-42 0 -48 52l-4 32q-3 26 -29 26h-52v-84h45v-23h-123v23h48v190h-48v23h133q78 0 78 -62q0 -40 -46 -56q19 -6 23 -35l4 -31q5 -32 19 -32q17 0 17 20zM437 527q0 39 -48 39h-55v-83h53q50 0 50 44z" />
    <glyph glyph-name="macron" unicode="&#xaf;" 
d="M110 612h242l-9 -26h-242z" />
    <glyph glyph-name="degree" unicode="&#xb0;" horiz-adv-x="351" 
d="M265 377q-54 0 -96.5 36.5t-42.5 103.5q0 69 42 104.5t97 35.5t97.5 -35.5t42.5 -104.5q0 -67 -43 -103.5t-97 -36.5zM265 630q-46 0 -76.5 -28t-30.5 -85q0 -58 30 -85.5t77 -27.5t77.5 27.5t30.5 85.5q0 57 -30 85t-78 28z" />
    <glyph glyph-name="plusminus" unicode="&#xb1;" horiz-adv-x="465" 
d="M21 78h174v163h-174v26h174v170h33v-170h176v-26h-176v-163h176v-26h-383v26z" />
    <glyph glyph-name="twosuperior" unicode="&#xb2;" horiz-adv-x="351" 
d="M359 539l-59 -113h-254l5 20q156 102 179 119l40 29.5t33.5 29t32 38.5t9.5 37q0 61 -77 61q-41 0 -73.5 -20t-32.5 -58q0 -32 23 -32q16 0 30 10l12 -19q-21 -15 -42 -15q-24 0 -38.5 15t-14.5 41q0 45 41.5 73.5t94.5 28.5q52 0 79.5 -23.5t27.5 -61.5q0 -9 -2.5 -18.5
t-5.5 -17t-10 -17l-12 -16t-15 -16l-15.5 -15t-18 -15t-17 -13.5t-18 -14t-16.5 -12q-7 -6 -141 -93h182l45 87h28z" />
    <glyph glyph-name="threesuperior" unicode="&#xb3;" horiz-adv-x="351" 
d="M160 411q-49 0 -76.5 21t-27.5 53q0 27 30 53l18 -18q-18 -18 -18 -35q0 -23 20.5 -36.5t53.5 -13.5q64 0 104.5 30.5t40.5 67.5q0 28 -23 46.5t-69 18.5h-24l9 26h15q52 0 91.5 27t39.5 63q0 50 -68 50q-31 0 -56.5 -14t-25.5 -38q0 -13 10 -27l-21 -15q-19 21 -19 42
q0 31 34.5 53.5t77.5 22.5q48 0 73 -20t25 -54q0 -33 -26.5 -59.5t-65.5 -42.5q53 -26 53 -79q0 -44 -48.5 -83t-126.5 -39z" />
    <glyph glyph-name="acute" unicode="&#xb4;" 
d="M344 761l22 -16l-174 -200l-22 16z" />
    <glyph glyph-name="uni03BC" unicode="&#xb5;" horiz-adv-x="590" 
d="M109 33v-234h-33v655h34v-342q0 -51 32 -73q25 -19 77 -19q54 0 96 23t87 66v345h34v-378q0 -56 48 -56q34 0 69 53l21 -15q-40 -66 -90 -66q-36 0 -58 19t-24 56v4q-79 -79 -183 -79q-58 0 -90 22q-14 10 -20 19z" />
    <glyph glyph-name="paragraph" unicode="&#xb6;" horiz-adv-x="533" 
d="M284 340h8l119 334h-12q-106 0 -179.5 -54.5t-73.5 -148.5q0 -60 34.5 -95.5t103.5 -35.5zM139 -90l144 404h-6q-78 0 -120 44.5t-42 112.5q0 106 81.5 167.5t202.5 61.5h284l-9 -26h-98l-271 -764h-31l272 764h-105l-271 -764h-31z" />
    <glyph glyph-name="periodcentered" unicode="&#xb7;" horiz-adv-x="220" 
d="M118 213q-16 0 -28 11.5t-12 28.5t12 28.5t28 11.5t28 -11.5t12 -28.5t-12 -28.5t-28 -11.5z" />
    <glyph glyph-name="cedilla" unicode="&#xb8;" 
d="M59 -238q-43 0 -87 21l13 21q34 -18 74 -18q39 0 60.5 15.5t21.5 39.5q0 44 -92 70l37 89h27l-30 -75q88 -33 88 -84q0 -32 -28.5 -55.5t-83.5 -23.5z" />
    <glyph glyph-name="onesuperior" unicode="&#xb9;" horiz-adv-x="280" 
d="M55 429l9 26h83l110 306q-44 -17 -94 -18v25q60 4 111 27h27l-123 -340h82l-9 -26h-196z" />
    <glyph glyph-name="ordmasculine" unicode="&#xba;" horiz-adv-x="410" 
d="M264 320q-64 0 -101 41t-37 110q0 60 27.5 114t74.5 87q52 36 113 36q68 0 103 -40t35 -111q0 -57 -26.5 -110.5t-71.5 -87.5q-54 -39 -117 -39zM243 650q-40 -29 -63 -78t-23 -101q0 -60 28 -93.5t79 -33.5q57 0 104 39q38 32 59 78.5t21 95.5q0 127 -107 127
q-54 0 -98 -34z" />
    <glyph glyph-name="guillemotright" unicode="&#xbb;" horiz-adv-x="367" 
d="M150 247l-83 139l22 16l92 -152l-3 -14l-161 -146l-18 19zM244 402l92 -152l-3 -14l-161 -146l-18 19l151 138l-83 139z" />
    <glyph glyph-name="onequarter" unicode="&#xbc;" horiz-adv-x="534" 
d="M290 358l110 306q-44 -17 -94 -18v25q60 4 111 27h27l-123 -340h82l-9 -26h-196l9 26h83zM26 251h482l-9 -26h-482zM184 -187l28 69h-177l9 21l83.5 90l65.5 67t92 86h35l-74.5 -73l-61.5 -59.5l-46 -46.5l-55 -59h139l41 102l31 9l-44 -111h97l-9 -26h-98l-28 -69h76
l-9 -26h-180l9 26h76z" />
    <glyph glyph-name="onehalf" unicode="&#xbd;" horiz-adv-x="534" 
d="M205 358h83l110 306q-44 -17 -94 -18v25q60 4 111 27h27l-123 -340h82l-9 -26h-196zM26 251h482l-9 -26h-482zM315 -100h28l-59 -113h-254l5 20q156 102 179 119l40 29.5t33.5 29t32 38.5t9.5 37q0 61 -77 61q-41 0 -73.5 -20t-32.5 -58q0 -32 23 -32q16 0 30 10l12 -19
q-21 -15 -42 -15q-24 0 -38.5 15t-14.5 41q0 45 41.5 73.5t94.5 28.5q52 0 79.5 -23.5t27.5 -61.5q0 -9 -2.5 -18.5t-5.5 -17t-10 -17l-12 -16t-15 -16l-15.5 -15t-18 -15t-17 -13.5t-18 -14t-16.5 -12q-7 -6 -141 -93h182z" />
    <glyph glyph-name="threequarters" unicode="&#xbe;" horiz-adv-x="534" 
d="M271 321q-49 0 -76.5 21t-27.5 53q0 27 30 53l18 -18q-18 -18 -18 -35q0 -23 20.5 -36.5t53.5 -13.5q64 0 104.5 30.5t40.5 67.5q0 28 -23 46.5t-69 18.5h-24l9 26h15q52 0 91.5 27t39.5 63q0 50 -68 50q-31 0 -56.5 -14t-25.5 -38q0 -13 10 -27l-21 -15q-19 21 -19 42
q0 31 34.5 53.5t77.5 22.5q48 0 73 -20t25 -54q0 -33 -26.5 -59.5t-65.5 -42.5q53 -26 53 -79q0 -44 -48.5 -83t-126.5 -39zM499 225h-482l9 26h482zM101 -213l9 26h76l28 69h-177l9 21l83.5 90l65.5 67t92 86h35l-74.5 -73l-61.5 -59.5l-46 -46.5l-55 -59h139l41 102l31 9
l-44 -111h97l-9 -26h-98l-28 -69h76l-9 -26h-180z" />
    <glyph glyph-name="questiondown" unicode="&#xbf;" horiz-adv-x="422" 
d="M-15 -132q0 -44 27 -71t82 -27t94.5 28t39.5 75q0 31 -23 45l14 20q39 -18 39 -65q0 -55 -49 -91t-115 -36q-70 0 -105 35t-35 87q0 14 3.5 28.5t7 25t13.5 25l15.5 22t21 23t20.5 20l24.5 22t23.5 21.5l35.5 31l38.5 34t34.5 33.5t35.5 39t27.5 40t24.5 47.5l27 -7
q-10 -26 -25.5 -51t-29.5 -43t-37 -41.5t-36 -35l-41 -36l-38 -33.5q-4 -4 -31 -28t-34 -32.5l-23 -28.5t-21 -37.5t-5 -38.5zM335 462q16 0 28 -11.5t12 -28.5t-12 -28.5t-28 -11.5t-28 11.5t-12 28.5t12 28.5t28 11.5z" />
    <glyph glyph-name="Agrave" unicode="&#xc0;" horiz-adv-x="678" 
d="M243 263h239l59 379zM476 26h119l-9 -26h-268l9 26h118l32 211h-255l-166 -211h102l-9 -26h-229l9 26h93l532 674h26zM505 953l26 11l72 -184l-26 -11z" />
    <glyph glyph-name="Aacute" unicode="&#xc1;" horiz-adv-x="678" 
d="M243 263h239l59 379zM476 26h119l-9 -26h-268l9 26h118l32 211h-255l-166 -211h102l-9 -26h-229l9 26h93l532 674h26zM700 962l20 -18l-152 -175l-20 18z" />
    <glyph glyph-name="Acircumflex" unicode="&#xc2;" horiz-adv-x="678" 
d="M243 263h239l59 379zM476 26h119l-9 -26h-268l9 26h118l32 211h-255l-166 -211h102l-9 -26h-229l9 26h93l532 674h26zM680 771l-79 108l-144 -110l-15 21l155 121h15l90 -125z" />
    <glyph glyph-name="Atilde" unicode="&#xc3;" horiz-adv-x="678" 
d="M243 263h239l59 379zM476 26h119l-9 -26h-268l9 26h118l32 211h-255l-166 -211h102l-9 -26h-229l9 26h93l532 674h26zM722 876l22 -14q-41 -70 -92 -70q-25 0 -69.5 24.5t-66.5 24.5q-39 0 -70 -56l-22 14q41 70 92 70q28 0 72.5 -24.5t63.5 -24.5q39 0 70 56z" />
    <glyph glyph-name="Adieresis" unicode="&#xc4;" horiz-adv-x="678" 
d="M243 263h239l59 379zM476 26h119l-9 -26h-268l9 26h118l32 211h-255l-166 -211h102l-9 -26h-229l9 26h93l532 674h26zM673 792q-15 0 -26.5 10.5t-11.5 27.5t11.5 27.5t26.5 10.5t26.5 -10.5t11.5 -27.5t-11.5 -27.5t-26.5 -10.5zM477 792q-15 0 -26.5 10.5t-11.5 27.5
t11.5 27.5t26.5 10.5t26.5 -10.5t11.5 -27.5t-11.5 -27.5t-26.5 -10.5z" />
    <glyph glyph-name="Aring" unicode="&#xc5;" horiz-adv-x="678" 
d="M243 263h239l59 379zM476 26h119l-9 -26h-268l9 26h118l32 211h-255l-166 -211h102l-9 -26h-229l9 26h93l532 674h26zM578 937q36 0 64.5 -25.5t28.5 -68.5t-28.5 -68.5t-64.5 -25.5t-64.5 25.5t-28.5 68.5t28.5 68.5t64.5 25.5zM578 773q26 0 45 18t19 52t-19 52t-45 18
t-45 -18t-19 -52t19 -52t45 -18z" />
    <glyph glyph-name="AE" unicode="&#xc6;" horiz-adv-x="1005" 
d="M533 349l116 327h-1l-299 -327h184zM154 26l-9 -26h-222l9 26h83l598 648h-89l9 26h525l-80 -222h-29l70 196h-340l-115 -325h191l41 115h28l-87 -242h-28l36 101h-191l-105 -297h397l65 187h29l-75 -213h-578l9 26h122l105 297h-198l-274 -297h103z" />
    <glyph glyph-name="Ccedilla" unicode="&#xc7;" horiz-adv-x="662" 
d="M228 -238q-43 0 -87 21l13 21q34 -18 74 -18q39 0 60.5 15.5t21.5 39.5q0 44 -92 70l36 87q-85 18 -133.5 84t-48.5 172q0 110 46.5 213.5t134 172t192.5 68.5q52 0 88 -14t56 -41.5t29 -55.5t15 -68l63 171h29l-86 -228h-24q-9 109 -43.5 160.5t-126.5 51.5
q-97 0 -177.5 -66.5t-122.5 -164t-42 -199.5q0 -113 57.5 -175.5t155.5 -62.5q95 0 166 57.5t110 156.5l22 -6q-32 -102 -112.5 -167t-185.5 -65q-14 0 -36 2l-28 -69q88 -33 88 -84q0 -32 -28.5 -55.5t-83.5 -23.5z" />
    <glyph glyph-name="Egrave" unicode="&#xc8;" horiz-adv-x="654" 
d="M589 213l-75 -213h-578l9 26h122l230 648h-124l9 26h525l-80 -222h-29l70 196h-340l-105 -295h192l41 114h28l-87 -242h-28l37 102h-192l-116 -327h397l65 187h29zM419 953l26 11l72 -184l-26 -11z" />
    <glyph glyph-name="Eacute" unicode="&#xc9;" horiz-adv-x="654" 
d="M589 213l-75 -213h-578l9 26h122l230 648h-124l9 26h525l-80 -222h-29l70 196h-340l-105 -295h192l41 114h28l-87 -242h-28l37 102h-192l-116 -327h397l65 187h29zM585 962l20 -18l-152 -175l-20 18z" />
    <glyph glyph-name="Ecircumflex" unicode="&#xca;" horiz-adv-x="654" 
d="M589 213l-75 -213h-578l9 26h122l230 648h-124l9 26h525l-80 -222h-29l70 196h-340l-105 -295h192l41 114h28l-87 -242h-28l37 102h-192l-116 -327h397l65 187h29zM604 771l-79 108l-144 -110l-15 21l155 121h15l90 -125z" />
    <glyph glyph-name="Edieresis" unicode="&#xcb;" horiz-adv-x="654" 
d="M589 213l-75 -213h-578l9 26h122l230 648h-124l9 26h525l-80 -222h-29l70 196h-340l-105 -295h192l41 114h28l-87 -242h-28l37 102h-192l-116 -327h397l65 187h29zM591 792q-15 0 -26.5 10.5t-11.5 27.5t11.5 27.5t26.5 10.5t26.5 -10.5t11.5 -27.5t-11.5 -27.5
t-26.5 -10.5zM395 792q-15 0 -26.5 10.5t-11.5 27.5t11.5 27.5t26.5 10.5t26.5 -10.5t11.5 -27.5t-11.5 -27.5t-26.5 -10.5z" />
    <glyph glyph-name="Igrave" unicode="&#xcc;" horiz-adv-x="317" 
d="M181 700h276l-9 -26h-120l-230 -648h121l-9 -26h-276l9 26h124l231 648h-126zM267 953l26 11l72 -184l-26 -11z" />
    <glyph glyph-name="Iacute" unicode="&#xcd;" horiz-adv-x="317" 
d="M181 700h276l-9 -26h-120l-230 -648h121l-9 -26h-276l9 26h124l231 648h-126zM463 962l20 -18l-152 -175l-20 18z" />
    <glyph glyph-name="Icircumflex" unicode="&#xce;" horiz-adv-x="317" 
d="M181 700h276l-9 -26h-120l-230 -648h121l-9 -26h-276l9 26h124l231 648h-126zM453 771l-79 108l-144 -110l-15 21l155 121h15l90 -125z" />
    <glyph glyph-name="Idieresis" unicode="&#xcf;" horiz-adv-x="317" 
d="M181 700h276l-9 -26h-120l-230 -648h121l-9 -26h-276l9 26h124l231 648h-126zM435 792q-15 0 -26.5 10.5t-11.5 27.5t11.5 27.5t26.5 10.5t26.5 -10.5t11.5 -27.5t-11.5 -27.5t-26.5 -10.5zM239 792q-15 0 -26.5 10.5t-11.5 27.5t11.5 27.5t26.5 10.5t26.5 -10.5
t11.5 -27.5t-11.5 -27.5t-26.5 -10.5z" />
    <glyph glyph-name="Eth" unicode="&#xd0;" horiz-adv-x="727" 
d="M286 0h-346l9 26h122l110 311h-123l9 26h124l110 311h-124l9 26h268q272 0 272 -260q0 -124 -59.5 -230t-165.5 -161q-90 -49 -215 -49zM102 26h184q113 0 201 46q99 52 153.5 151t54.5 217q0 235 -243 234h-120l-110 -311h209l-9 -26h-210z" />
    <glyph glyph-name="Ntilde" unicode="&#xd1;" horiz-adv-x="741" 
d="M620 700h256l-9 -26h-105l-238 -674h-26l-171 671l-230 -645h119l-9 -26h-271l9 26h122l231 648h-124l9 26h167l165 -641l218 615h-122zM684 876l22 -14q-41 -70 -92 -70q-25 0 -69.5 24.5t-66.5 24.5q-39 0 -70 -56l-22 14q41 70 92 70q28 0 72.5 -24.5t63.5 -24.5
q39 0 70 56z" />
    <glyph glyph-name="Ograve" unicode="&#xd2;" horiz-adv-x="686" 
d="M305 -8q-100 0 -162 68t-62 198q0 138 80 263.5t201 170.5q38 16 99 16q99 0 161.5 -68.5t62.5 -197.5q0 -138 -80 -264t-201 -170q-39 -16 -99 -16zM305 16q45 0 89 15q111 41 185.5 162t74.5 249q0 118 -53 180.5t-140 62.5q-45 0 -89 -16q-113 -41 -186.5 -161
t-73.5 -250q0 -118 53 -180t140 -62zM406 953l26 11l72 -184l-26 -11z" />
    <glyph glyph-name="Oacute" unicode="&#xd3;" horiz-adv-x="686" 
d="M305 -8q-100 0 -162 68t-62 198q0 138 80 263.5t201 170.5q38 16 99 16q99 0 161.5 -68.5t62.5 -197.5q0 -138 -80 -264t-201 -170q-39 -16 -99 -16zM305 16q45 0 89 15q111 41 185.5 162t74.5 249q0 118 -53 180.5t-140 62.5q-45 0 -89 -16q-113 -41 -186.5 -161
t-73.5 -250q0 -118 53 -180t140 -62zM602 962l20 -18l-152 -175l-20 18z" />
    <glyph glyph-name="Ocircumflex" unicode="&#xd4;" horiz-adv-x="686" 
d="M305 -8q-100 0 -162 68t-62 198q0 138 80 263.5t201 170.5q38 16 99 16q99 0 161.5 -68.5t62.5 -197.5q0 -138 -80 -264t-201 -170q-39 -16 -99 -16zM305 16q45 0 89 15q111 41 185.5 162t74.5 249q0 118 -53 180.5t-140 62.5q-45 0 -89 -16q-113 -41 -186.5 -161
t-73.5 -250q0 -118 53 -180t140 -62zM592 771l-79 108l-144 -110l-15 21l155 121h15l90 -125z" />
    <glyph glyph-name="Otilde" unicode="&#xd5;" horiz-adv-x="686" 
d="M305 -8q-100 0 -162 68t-62 198q0 138 80 263.5t201 170.5q38 16 99 16q99 0 161.5 -68.5t62.5 -197.5q0 -138 -80 -264t-201 -170q-39 -16 -99 -16zM305 16q45 0 89 15q111 41 185.5 162t74.5 249q0 118 -53 180.5t-140 62.5q-45 0 -89 -16q-113 -41 -186.5 -161
t-73.5 -250q0 -118 53 -180t140 -62zM624 876l22 -14q-41 -70 -92 -70q-25 0 -69.5 24.5t-66.5 24.5q-39 0 -70 -56l-22 14q41 70 92 70q28 0 72.5 -24.5t63.5 -24.5q39 0 70 56z" />
    <glyph glyph-name="Odieresis" unicode="&#xd6;" horiz-adv-x="686" 
d="M305 -8q-100 0 -162 68t-62 198q0 138 80 263.5t201 170.5q38 16 99 16q99 0 161.5 -68.5t62.5 -197.5q0 -138 -80 -264t-201 -170q-39 -16 -99 -16zM305 16q45 0 89 15q111 41 185.5 162t74.5 249q0 118 -53 180.5t-140 62.5q-45 0 -89 -16q-113 -41 -186.5 -161
t-73.5 -250q0 -118 53 -180t140 -62zM575 792q-15 0 -26.5 10.5t-11.5 27.5t11.5 27.5t26.5 10.5t26.5 -10.5t11.5 -27.5t-11.5 -27.5t-26.5 -10.5zM379 792q-15 0 -26.5 10.5t-11.5 27.5t11.5 27.5t26.5 10.5t26.5 -10.5t11.5 -27.5t-11.5 -27.5t-26.5 -10.5z" />
    <glyph glyph-name="multiply" unicode="&#xd7;" horiz-adv-x="434" 
d="M354 80l-141 141l-141 -141l-20 21l141 141l-141 140l20 21l141 -141l141 141l20 -21l-140 -140l140 -141z" />
    <glyph glyph-name="Oslash" unicode="&#xd8;" horiz-adv-x="686" 
d="M112 258q0 -105 41 -164l432 546q-50 45 -124 45q-45 0 -89 -16q-113 -41 -186.5 -161t-73.5 -250zM305 16q45 0 89 15q111 41 185.5 162t74.5 249q0 114 -51 178l-432 -548q50 -56 134 -56zM305 -8q-93 0 -152 58l-68 -87l-21 18l71 90q-54 66 -54 187q0 138 80 263.5
t201 170.5q38 16 99 16q81 0 140 -48l59 75l21 -16l-61 -77q65 -72 65 -200q0 -138 -80 -264t-201 -170q-39 -16 -99 -16z" />
    <glyph glyph-name="Ugrave" unicode="&#xd9;" horiz-adv-x="754" 
d="M656 700h258l-9 -26h-119l-149 -420q-48 -134 -117 -198t-196 -64q-97 0 -155 42t-58 125q0 47 20 104l145 411h-122l9 26h271l-9 -26h-118l-149 -422q-17 -50 -17 -93q0 -72 50.5 -107.5t132.5 -35.5q100 0 159 46q76 55 127 203l145 409h-108zM481 953l26 11l72 -184
l-26 -11z" />
    <glyph glyph-name="Uacute" unicode="&#xda;" horiz-adv-x="754" 
d="M656 700h258l-9 -26h-119l-149 -420q-48 -134 -117 -198t-196 -64q-97 0 -155 42t-58 125q0 47 20 104l145 411h-122l9 26h271l-9 -26h-118l-149 -422q-17 -50 -17 -93q0 -72 50.5 -107.5t132.5 -35.5q100 0 159 46q76 55 127 203l145 409h-108zM677 962l20 -18
l-152 -175l-20 18z" />
    <glyph glyph-name="Ucircumflex" unicode="&#xdb;" horiz-adv-x="754" 
d="M656 700h258l-9 -26h-119l-149 -420q-48 -134 -117 -198t-196 -64q-97 0 -155 42t-58 125q0 47 20 104l145 411h-122l9 26h271l-9 -26h-118l-149 -422q-17 -50 -17 -93q0 -72 50.5 -107.5t132.5 -35.5q100 0 159 46q76 55 127 203l145 409h-108zM667 771l-79 108
l-144 -110l-15 21l155 121h15l90 -125z" />
    <glyph glyph-name="Udieresis" unicode="&#xdc;" horiz-adv-x="754" 
d="M656 700h258l-9 -26h-119l-149 -420q-48 -134 -117 -198t-196 -64q-97 0 -155 42t-58 125q0 47 20 104l145 411h-122l9 26h271l-9 -26h-118l-149 -422q-17 -50 -17 -93q0 -72 50.5 -107.5t132.5 -35.5q100 0 159 46q76 55 127 203l145 409h-108zM650 792
q-15 0 -26.5 10.5t-11.5 27.5t11.5 27.5t26.5 10.5t26.5 -10.5t11.5 -27.5t-11.5 -27.5t-26.5 -10.5zM454 792q-15 0 -26.5 10.5t-11.5 27.5t11.5 27.5t26.5 10.5t26.5 -10.5t11.5 -27.5t-11.5 -27.5t-26.5 -10.5z" />
    <glyph glyph-name="Yacute" unicode="&#xdd;" horiz-adv-x="637" 
d="M670 674h-96l9 26h211l-9 -26h-80l-317 -361l-103 -287h122l-9 -26h-267l9 26h114l106 295l-119 353h-94l9 26h221l-9 -26h-95l110 -328zM625 962l20 -18l-152 -175l-20 18z" />
    <glyph glyph-name="Thorn" unicode="&#xde;" horiz-adv-x="573" 
d="M313 215q100 0 169.5 50t69.5 138q0 53 -37.5 86.5t-109.5 33.5h-127l-106 -299q67 -9 141 -9zM189 700h286l-9 -26h-134l-45 -125h118q86 0 132 -42t46 -104q0 -97 -78 -155.5t-192 -58.5q-93 0 -150 10l-61 -173h134l-9 -26h-286l9 26h121l230 648h-121z" />
    <glyph glyph-name="germandbls" unicode="&#xdf;" horiz-adv-x="511" 
d="M441 497l-31.5 -20t-36 -24t-29 -24t-24 -31.5t-7.5 -35.5q0 -20 12 -41.5t24 -35t36 -36.5q74 -69 74 -135q0 -52 -40 -87t-105 -35q-77 0 -113 33.5t-36 79.5q0 44 44 84l18 -18q-32 -30 -32 -66q0 -38 29 -63.5t90 -25.5q51 0 82.5 26.5t31.5 71.5q0 55 -64 115
q-40 37 -61 67.5t-21 65.5q0 16 4 30.5t14.5 28.5t18.5 23.5t26 22.5l26 18.5t30 19.5l27 17q29 19 42 29t32 28.5t27 38.5t8 45q0 44 -28.5 70.5t-73.5 26.5q-62 0 -113 -42q-61 -53 -99 -174l-166 -522q-63 -196 -100 -249q-45 -68 -123 -68q-36 0 -60.5 18.5t-24.5 52.5
q0 32 21 58l23 -15q-14 -20 -14 -41q0 -49 56 -49q61 0 100 63t95 238l166 523q40 129 108 185q54 46 131 46q56 0 94.5 -33t38.5 -88q0 -29 -9.5 -52.5t-32.5 -46t-37 -33z" />
    <glyph glyph-name="agrave" unicode="&#xe0;" horiz-adv-x="545" 
d="M387 16q34 0 66.5 26.5t56.5 78.5l22 -10q-27 -60 -65 -89.5t-80 -29.5q-61 0 -61 75q0 12 1 19q-60 -94 -163 -94q-66 0 -100.5 41.5t-34.5 110.5q0 65 36 133t97 121q75 59 157 59q81 0 122 -48l22 53h29l-129 -326q-12 -36 -12 -69q0 -51 36 -51zM164 16
q59 0 106 40.5t66 90.5l95 236q-33 50 -112 50q-72 0 -135 -52q-55 -47 -89.5 -113t-34.5 -124q0 -59 27 -93.5t77 -34.5zM241 751l26 13l107 -206l-26 -13z" />
    <glyph glyph-name="aacute" unicode="&#xe1;" horiz-adv-x="545" 
d="M387 16q34 0 66.5 26.5t56.5 78.5l22 -10q-27 -60 -65 -89.5t-80 -29.5q-61 0 -61 75q0 12 1 19q-60 -94 -163 -94q-66 0 -100.5 41.5t-34.5 110.5q0 65 36 133t97 121q75 59 157 59q81 0 122 -48l22 53h29l-129 -326q-12 -36 -12 -69q0 -51 36 -51zM164 16
q59 0 106 40.5t66 90.5l95 236q-33 50 -112 50q-72 0 -135 -52q-55 -47 -89.5 -113t-34.5 -124q0 -59 27 -93.5t77 -34.5zM477 761l22 -16l-174 -200l-22 16z" />
    <glyph glyph-name="acircumflex" unicode="&#xe2;" horiz-adv-x="545" 
d="M387 16q34 0 66.5 26.5t56.5 78.5l22 -10q-27 -60 -65 -89.5t-80 -29.5q-61 0 -61 75q0 12 1 19q-60 -94 -163 -94q-66 0 -100.5 41.5t-34.5 110.5q0 65 36 133t97 121q75 59 157 59q81 0 122 -48l22 53h29l-129 -326q-12 -36 -12 -69q0 -51 36 -51zM164 16
q59 0 106 40.5t66 90.5l95 236q-33 50 -112 50q-72 0 -135 -52q-55 -47 -89.5 -113t-34.5 -124q0 -59 27 -93.5t77 -34.5zM427 545l-51 176l-152 -177l-19 19l170 196h19l60 -206z" />
    <glyph glyph-name="atilde" unicode="&#xe3;" horiz-adv-x="545" 
d="M387 16q34 0 66.5 26.5t56.5 78.5l22 -10q-27 -60 -65 -89.5t-80 -29.5q-61 0 -61 75q0 12 1 19q-60 -94 -163 -94q-66 0 -100.5 41.5t-34.5 110.5q0 65 36 133t97 121q75 59 157 59q81 0 122 -48l22 53h29l-129 -326q-12 -36 -12 -69q0 -51 36 -51zM164 16
q59 0 106 40.5t66 90.5l95 236q-33 50 -112 50q-72 0 -135 -52q-55 -47 -89.5 -113t-34.5 -124q0 -59 27 -93.5t77 -34.5zM497 670l22 -14q-41 -70 -92 -70q-25 0 -69.5 24.5t-66.5 24.5q-39 0 -70 -56l-22 14q41 70 92 70q28 0 72.5 -24.5t63.5 -24.5q39 0 70 56z" />
    <glyph glyph-name="adieresis" unicode="&#xe4;" horiz-adv-x="545" 
d="M387 16q34 0 66.5 26.5t56.5 78.5l22 -10q-27 -60 -65 -89.5t-80 -29.5q-61 0 -61 75q0 12 1 19q-60 -94 -163 -94q-66 0 -100.5 41.5t-34.5 110.5q0 65 36 133t97 121q75 59 157 59q81 0 122 -48l22 53h29l-129 -326q-12 -36 -12 -69q0 -51 36 -51zM164 16
q59 0 106 40.5t66 90.5l95 236q-33 50 -112 50q-72 0 -135 -52q-55 -47 -89.5 -113t-34.5 -124q0 -59 27 -93.5t77 -34.5zM440 586q-15 0 -26.5 10.5t-11.5 27.5t11.5 27.5t26.5 10.5t26.5 -10.5t11.5 -27.5t-11.5 -27.5t-26.5 -10.5zM284 586q-15 0 -26.5 10.5t-11.5 27.5
t11.5 27.5t26.5 10.5t26.5 -10.5t11.5 -27.5t-11.5 -27.5t-26.5 -10.5z" />
    <glyph glyph-name="aring" unicode="&#xe5;" horiz-adv-x="545" 
d="M387 16q34 0 66.5 26.5t56.5 78.5l22 -10q-27 -60 -65 -89.5t-80 -29.5q-61 0 -61 75q0 12 1 19q-60 -94 -163 -94q-66 0 -100.5 41.5t-34.5 110.5q0 65 36 133t97 121q75 59 157 59q81 0 122 -48l22 53h29l-129 -326q-12 -36 -12 -69q0 -51 36 -51zM164 16
q59 0 106 40.5t66 90.5l95 236q-33 50 -112 50q-72 0 -135 -52q-55 -47 -89.5 -113t-34.5 -124q0 -59 27 -93.5t77 -34.5zM374 720q36 0 64.5 -25.5t28.5 -68.5t-28.5 -68.5t-64.5 -25.5t-64.5 25.5t-28.5 68.5t28.5 68.5t64.5 25.5zM374 556q26 0 45 18t19 52t-19 52
t-45 18t-45 -18t-19 -52t19 -52t45 -18z" />
    <glyph glyph-name="ae" unicode="&#xe6;" horiz-adv-x="763" 
d="M702 163l23 -9q-33 -76 -88 -119t-117 -43q-141 0 -152 156v15l-6 -16q-33 -81 -87.5 -118t-110.5 -37q-66 0 -100.5 41.5t-34.5 110.5q0 65 36 133t97 121q75 59 157 59q83 0 123 -49l22 54h28l-35 -90q88 90 175 90q53 0 82.5 -26.5t29.5 -62.5q0 -76 -100 -115
q-68 -27 -242 -42q-7 -24 -7 -54q0 -146 125 -146q53 0 103 40t79 107zM164 16q122 0 193 180l75 186q-32 51 -113 51q-71 0 -134 -52q-54 -46 -89.5 -113t-35.5 -124q0 -59 27 -93.5t77 -34.5zM632 438q-67 0 -132 -59t-91 -138q155 13 226 40q78 30 78 92q0 30 -21.5 47.5
t-59.5 17.5z" />
    <glyph glyph-name="ccedilla" unicode="&#xe7;" horiz-adv-x="457" 
d="M114 -238q-43 0 -87 21l13 21q34 -18 74 -18q39 0 60.5 15.5t21.5 39.5q0 44 -92 70l36 86q-109 25 -109 165q0 70 40 144.5t103 115.5q58 40 133 40q59 0 96 -23.5t37 -67.5q0 -33 -25 -65l-22 15q17 25 17 49q0 68 -103 68q-67 0 -118 -37q-57 -39 -92 -107t-35 -132
q0 -69 30 -107.5t92 -38.5q119 0 194 140l23 -9q-33 -71 -90 -113t-127 -42q-12 0 -19 1l-27 -68q88 -33 88 -84q0 -32 -28.5 -55.5t-83.5 -23.5z" />
    <glyph glyph-name="egrave" unicode="&#xe8;" horiz-adv-x="430" 
d="M62 162q0 -146 125 -146q53 0 103 40t79 107l23 -9q-33 -76 -88 -119t-117 -43q-77 0 -116.5 45t-39.5 125q0 108 80.5 204t187.5 96q53 0 82.5 -26.5t29.5 -62.5q0 -76 -100 -115q-67 -27 -243 -42q-6 -27 -6 -54zM299 438q-75 0 -137.5 -57.5t-87.5 -139.5
q156 13 228 40q78 30 78 92q0 30 -21.5 47.5t-59.5 17.5zM192 751l26 13l107 -206l-26 -13z" />
    <glyph glyph-name="eacute" unicode="&#xe9;" horiz-adv-x="430" 
d="M62 162q0 -146 125 -146q53 0 103 40t79 107l23 -9q-33 -76 -88 -119t-117 -43q-77 0 -116.5 45t-39.5 125q0 108 80.5 204t187.5 96q53 0 82.5 -26.5t29.5 -62.5q0 -76 -100 -115q-67 -27 -243 -42q-6 -27 -6 -54zM299 438q-75 0 -137.5 -57.5t-87.5 -139.5
q156 13 228 40q78 30 78 92q0 30 -21.5 47.5t-59.5 17.5zM383 761l22 -16l-174 -200l-22 16z" />
    <glyph glyph-name="ecircumflex" unicode="&#xea;" horiz-adv-x="430" 
d="M62 162q0 -146 125 -146q53 0 103 40t79 107l23 -9q-33 -76 -88 -119t-117 -43q-77 0 -116.5 45t-39.5 125q0 108 80.5 204t187.5 96q53 0 82.5 -26.5t29.5 -62.5q0 -76 -100 -115q-67 -27 -243 -42q-6 -27 -6 -54zM299 438q-75 0 -137.5 -57.5t-87.5 -139.5
q156 13 228 40q78 30 78 92q0 30 -21.5 47.5t-59.5 17.5zM396 545l-51 176l-152 -177l-19 19l170 196h19l60 -206z" />
    <glyph glyph-name="edieresis" unicode="&#xeb;" horiz-adv-x="430" 
d="M62 162q0 -146 125 -146q53 0 103 40t79 107l23 -9q-33 -76 -88 -119t-117 -43q-77 0 -116.5 45t-39.5 125q0 108 80.5 204t187.5 96q53 0 82.5 -26.5t29.5 -62.5q0 -76 -100 -115q-67 -27 -243 -42q-6 -27 -6 -54zM299 438q-75 0 -137.5 -57.5t-87.5 -139.5
q156 13 228 40q78 30 78 92q0 30 -21.5 47.5t-59.5 17.5zM378 586q-15 0 -26.5 10.5t-11.5 27.5t11.5 27.5t26.5 10.5t26.5 -10.5t11.5 -27.5t-11.5 -27.5t-26.5 -10.5zM222 586q-15 0 -26.5 10.5t-11.5 27.5t11.5 27.5t26.5 10.5t26.5 -10.5t11.5 -27.5t-11.5 -27.5
t-26.5 -10.5z" />
    <glyph glyph-name="igrave" unicode="&#xec;" horiz-adv-x="308" 
d="M109 -8q-65 -1 -65 50q0 22 9 45l141 345q-31 -4 -70 -4h-55l9 26h43q65 0 96 10h21l-157 -388q-7 -19 -7 -35q0 -25 35 -25q33 0 68.5 26.5t58.5 77.5l23 -9q-25 -60 -65.5 -89t-84.5 -30zM113 751l26 13l107 -206l-26 -13z" />
    <glyph glyph-name="iacute" unicode="&#xed;" horiz-adv-x="308" 
d="M109 -8q-65 -1 -65 50q0 22 9 45l141 345q-31 -4 -70 -4h-55l9 26h43q65 0 96 10h21l-157 -388q-7 -19 -7 -35q0 -25 35 -25q33 0 68.5 26.5t58.5 77.5l23 -9q-25 -60 -65.5 -89t-84.5 -30zM376 761l22 -16l-174 -200l-22 16z" />
    <glyph glyph-name="icircumflex" unicode="&#xee;" horiz-adv-x="308" 
d="M109 -8q-65 -1 -65 50q0 22 9 45l141 345q-31 -4 -70 -4h-55l9 26h43q65 0 96 10h21l-157 -388q-7 -19 -7 -35q0 -25 35 -25q33 0 68.5 26.5t58.5 77.5l23 -9q-25 -60 -65.5 -89t-84.5 -30zM310 545l-51 176l-152 -177l-19 19l170 196h19l60 -206z" />
    <glyph glyph-name="idieresis" unicode="&#xef;" horiz-adv-x="308" 
d="M109 -8q-65 -1 -65 50q0 22 9 45l141 345q-31 -4 -70 -4h-55l9 26h43q65 0 96 10h21l-157 -388q-7 -19 -7 -35q0 -25 35 -25q33 0 68.5 26.5t58.5 77.5l23 -9q-25 -60 -65.5 -89t-84.5 -30zM315 586q-15 0 -26.5 10.5t-11.5 27.5t11.5 27.5t26.5 10.5t26.5 -10.5
t11.5 -27.5t-11.5 -27.5t-26.5 -10.5zM159 586q-15 0 -26.5 10.5t-11.5 27.5t11.5 27.5t26.5 10.5t26.5 -10.5t11.5 -27.5t-11.5 -27.5t-26.5 -10.5z" />
    <glyph glyph-name="eth" unicode="&#xf0;" horiz-adv-x="493" 
d="M195 -8q-77 0 -122.5 51t-45.5 129q0 74 41.5 147t105.5 111q50 32 120 32q88 0 135 -67q-20 161 -114 255l-122 -102l-16 19l119 100q-71 62 -178 93l6 22q116 -28 193 -98l105 88l16 -19l-103 -86q127 -127 127 -355q0 -99 -39 -173.5t-106 -113.5q-52 -33 -122 -33z
M58 172q0 -69 35.5 -112.5t101.5 -43.5q59 0 106 29q58 35 94 103t36 134q0 68 -36.5 112t-100.5 44q-57 0 -104 -28q-59 -35 -95.5 -103t-36.5 -135z" />
    <glyph glyph-name="ntilde" unicode="&#xf1;" horiz-adv-x="582" 
d="M209 464h20l-69 -168q29 45 70 86q80 80 162 80q94 0 94 -86q0 -32 -14 -62l-102 -250q-7 -19 -7 -28q0 -20 33 -20q35 0 68 26.5t53 77.5l23 -9q-50 -119 -144 -119q-62 0 -62 44q0 16 7 33l104 256q11 24 11 51q0 62 -65 62q-69 0 -153 -84q-78 -76 -113 -154l-79 -200
h-31l171 432q-31 -4 -70 -4h-55l9 26h43q65 0 96 10zM511 670l22 -14q-41 -70 -92 -70q-25 0 -69.5 24.5t-66.5 24.5q-39 0 -70 -56l-22 14q41 70 92 70q28 0 72.5 -24.5t63.5 -24.5q39 0 70 56z" />
    <glyph glyph-name="ograve" unicode="&#xf2;" horiz-adv-x="501" 
d="M300 462q76 0 122 -51.5t46 -128.5q0 -75 -40.5 -147t-104.5 -110q-52 -33 -122 -33q-77 0 -122.5 51t-45.5 129q0 74 41.5 147t105.5 111q50 32 120 32zM201 16q59 0 106 29q58 35 94 103t36 134q0 68 -36.5 112t-100.5 44q-57 0 -104 -28q-59 -35 -95.5 -103
t-36.5 -135q0 -69 35.5 -112.5t101.5 -43.5zM225 751l26 13l107 -206l-26 -13z" />
    <glyph glyph-name="oacute" unicode="&#xf3;" horiz-adv-x="501" 
d="M300 462q76 0 122 -51.5t46 -128.5q0 -75 -40.5 -147t-104.5 -110q-52 -33 -122 -33q-77 0 -122.5 51t-45.5 129q0 74 41.5 147t105.5 111q50 32 120 32zM201 16q59 0 106 29q58 35 94 103t36 134q0 68 -36.5 112t-100.5 44q-57 0 -104 -28q-59 -35 -95.5 -103
t-36.5 -135q0 -69 35.5 -112.5t101.5 -43.5zM458 761l22 -16l-174 -200l-22 16z" />
    <glyph glyph-name="ocircumflex" unicode="&#xf4;" horiz-adv-x="501" 
d="M300 462q76 0 122 -51.5t46 -128.5q0 -75 -40.5 -147t-104.5 -110q-52 -33 -122 -33q-77 0 -122.5 51t-45.5 129q0 74 41.5 147t105.5 111q50 32 120 32zM201 16q59 0 106 29q58 35 94 103t36 134q0 68 -36.5 112t-100.5 44q-57 0 -104 -28q-59 -35 -95.5 -103
t-36.5 -135q0 -69 35.5 -112.5t101.5 -43.5zM420 545l-51 176l-152 -177l-19 19l170 196h19l60 -206z" />
    <glyph glyph-name="otilde" unicode="&#xf5;" horiz-adv-x="501" 
d="M300 462q76 0 122 -51.5t46 -128.5q0 -75 -40.5 -147t-104.5 -110q-52 -33 -122 -33q-77 0 -122.5 51t-45.5 129q0 74 41.5 147t105.5 111q50 32 120 32zM201 16q59 0 106 29q58 35 94 103t36 134q0 68 -36.5 112t-100.5 44q-57 0 -104 -28q-59 -35 -95.5 -103
t-36.5 -135q0 -69 35.5 -112.5t101.5 -43.5zM468 670l22 -14q-41 -70 -92 -70q-25 0 -69.5 24.5t-66.5 24.5q-39 0 -70 -56l-22 14q41 70 92 70q28 0 72.5 -24.5t63.5 -24.5q39 0 70 56z" />
    <glyph glyph-name="odieresis" unicode="&#xf6;" horiz-adv-x="501" 
d="M300 462q76 0 122 -51.5t46 -128.5q0 -75 -40.5 -147t-104.5 -110q-52 -33 -122 -33q-77 0 -122.5 51t-45.5 129q0 74 41.5 147t105.5 111q50 32 120 32zM201 16q59 0 106 29q58 35 94 103t36 134q0 68 -36.5 112t-100.5 44q-57 0 -104 -28q-59 -35 -95.5 -103
t-36.5 -135q0 -69 35.5 -112.5t101.5 -43.5zM407 586q-15 0 -26.5 10.5t-11.5 27.5t11.5 27.5t26.5 10.5t26.5 -10.5t11.5 -27.5t-11.5 -27.5t-26.5 -10.5zM251 586q-15 0 -26.5 10.5t-11.5 27.5t11.5 27.5t26.5 10.5t26.5 -10.5t11.5 -27.5t-11.5 -27.5t-26.5 -10.5z" />
    <glyph glyph-name="divide" unicode="&#xf7;" horiz-adv-x="465" 
d="M225 329q-16 0 -28 11.5t-12 28.5t12 28.5t28 11.5t28 -11.5t12 -28.5t-12 -28.5t-28 -11.5zM417 232h-383v27h383v-27zM225 82q-16 0 -28 11.5t-12 28.5t12 28.5t28 11.5t28 -11.5t12 -28.5t-12 -28.5t-28 -11.5z" />
    <glyph glyph-name="oslash" unicode="&#xf8;" horiz-adv-x="501" 
d="M64 172q0 -66 32 -107l278 352q-30 21 -74 21q-57 0 -104 -28q-59 -35 -95.5 -103t-36.5 -135zM201 16q59 0 106 29q58 35 94 103t36 134q0 76 -43 119l-281 -355q35 -30 88 -30zM201 -8q-62 0 -104 33l-51 -64h-32l64 82q-45 49 -45 129q0 74 41.5 147t105.5 111
q50 32 120 32q52 0 90 -25l44 56h32l-56 -71q58 -50 58 -140q0 -75 -40.5 -147t-104.5 -110q-52 -33 -122 -33z" />
    <glyph glyph-name="ugrave" unicode="&#xf9;" horiz-adv-x="555" 
d="M513 454l-148 -382q-7 -18 -7 -32q0 -21 32 -21q34 0 65 26.5t51 77.5l23 -9q-50 -119 -139 -119q-61 0 -61 43q0 17 7 34l36 91q-32 -44 -64 -80q-89 -91 -166 -91q-47 0 -70.5 23t-23.5 64q0 36 15 68l117 285q-31 -4 -70 -4h-55l9 26h43q65 0 96 10h21l-134 -328
q-12 -36 -12 -57q0 -63 64 -63q68 0 149 86q89 94 122 178l69 174h31zM256 751l26 13l107 -206l-26 -13z" />
    <glyph glyph-name="uacute" unicode="&#xfa;" horiz-adv-x="555" 
d="M513 454l-148 -382q-7 -18 -7 -32q0 -21 32 -21q34 0 65 26.5t51 77.5l23 -9q-50 -119 -139 -119q-61 0 -61 43q0 17 7 34l36 91q-32 -44 -64 -80q-89 -91 -166 -91q-47 0 -70.5 23t-23.5 64q0 36 15 68l117 285q-31 -4 -70 -4h-55l9 26h43q65 0 96 10h21l-134 -328
q-12 -36 -12 -57q0 -63 64 -63q68 0 149 86q89 94 122 178l69 174h31zM504 761l22 -16l-174 -200l-22 16z" />
    <glyph glyph-name="ucircumflex" unicode="&#xfb;" horiz-adv-x="555" 
d="M513 454l-148 -382q-7 -18 -7 -32q0 -21 32 -21q34 0 65 26.5t51 77.5l23 -9q-50 -119 -139 -119q-61 0 -61 43q0 17 7 34l36 91q-32 -44 -64 -80q-89 -91 -166 -91q-47 0 -70.5 23t-23.5 64q0 36 15 68l117 285q-31 -4 -70 -4h-55l9 26h43q65 0 96 10h21l-134 -328
q-12 -36 -12 -57q0 -63 64 -63q68 0 149 86q89 94 122 178l69 174h31zM461 545l-51 176l-152 -177l-19 19l170 196h19l60 -206z" />
    <glyph glyph-name="udieresis" unicode="&#xfc;" horiz-adv-x="555" 
d="M513 454l-148 -382q-7 -18 -7 -32q0 -21 32 -21q34 0 65 26.5t51 77.5l23 -9q-50 -119 -139 -119q-61 0 -61 43q0 17 7 34l36 91q-32 -44 -64 -80q-89 -91 -166 -91q-47 0 -70.5 23t-23.5 64q0 36 15 68l117 285q-31 -4 -70 -4h-55l9 26h43q65 0 96 10h21l-134 -328
q-12 -36 -12 -57q0 -63 64 -63q68 0 149 86q89 94 122 178l69 174h31zM442 586q-15 0 -26.5 10.5t-11.5 27.5t11.5 27.5t26.5 10.5t26.5 -10.5t11.5 -27.5t-11.5 -27.5t-26.5 -10.5zM286 586q-15 0 -26.5 10.5t-11.5 27.5t11.5 27.5t26.5 10.5t26.5 -10.5t11.5 -27.5
t-11.5 -27.5t-26.5 -10.5z" />
    <glyph glyph-name="yacute" unicode="&#xfd;" horiz-adv-x="528" 
d="M-38 -197l25 4q7 -56 61 -56q39 0 81 47q48 51 123 222q-23 216 -61 379q-9 39 -40 39q-77 0 -100 -149l-26 4q25 169 126 169q27 0 43 -11.5t24 -42.5q30 -121 56 -338l22 55q63 160 122 263q24 41 46 57.5t53 16.5q47 0 66 -50l-20 -14q-19 40 -47 40q-23 0 -38.5 -14
t-36.5 -51q-53 -90 -120 -259q-102 -256 -173 -335q-45 -52 -100 -52q-40 0 -61.5 22.5t-24.5 53.5zM484 761l22 -16l-174 -200l-22 16z" />
    <glyph glyph-name="thorn" unicode="&#xfe;" horiz-adv-x="528" 
d="M341 438q-61 0 -112.5 -45.5t-77.5 -121.5l-23 -69q-18 -54 -18 -66q0 -52 32 -86t88 -34q43 0 81.5 20t66 52t48 71t30.5 78t10 72q0 59 -32 94t-93 35zM320 784l-136 -408q66 86 157 86q74 0 115 -42.5t41 -110.5q0 -48 -19 -102.5t-52 -102.5t-85 -80t-111 -32
q-55 0 -90.5 26.5t-48.5 70.5l-117 -354h104l-9 -26h-220l9 26h86l336 1017q-31 -4 -72 -4h-55l9 26h43q65 0 96 10h19z" />
    <glyph glyph-name="ydieresis" unicode="&#xff;" horiz-adv-x="528" 
d="M-38 -197l25 4q7 -56 61 -56q39 0 81 47q48 51 123 222q-23 216 -61 379q-9 39 -40 39q-77 0 -100 -149l-26 4q25 169 126 169q27 0 43 -11.5t24 -42.5q30 -121 56 -338l22 55q63 160 122 263q24 41 46 57.5t53 16.5q47 0 66 -50l-20 -14q-19 40 -47 40q-23 0 -38.5 -14
t-36.5 -51q-53 -90 -120 -259q-102 -256 -173 -335q-45 -52 -100 -52q-40 0 -61.5 22.5t-24.5 53.5zM423 586q-15 0 -26.5 10.5t-11.5 27.5t11.5 27.5t26.5 10.5t26.5 -10.5t11.5 -27.5t-11.5 -27.5t-26.5 -10.5zM267 586q-15 0 -26.5 10.5t-11.5 27.5t11.5 27.5t26.5 10.5
t26.5 -10.5t11.5 -27.5t-11.5 -27.5t-26.5 -10.5z" />
    <glyph glyph-name="Amacron" unicode="&#x100;" horiz-adv-x="678" 
d="M243 263h239l59 379zM476 26h119l-9 -26h-268l9 26h118l32 211h-255l-166 -211h102l-9 -26h-229l9 26h93l532 674h26zM449 818h261l-9 -26h-261z" />
    <glyph glyph-name="amacron" unicode="&#x101;" horiz-adv-x="545" 
d="M387 16q34 0 66.5 26.5t56.5 78.5l22 -10q-27 -60 -65 -89.5t-80 -29.5q-61 0 -61 75q0 12 1 19q-60 -94 -163 -94q-66 0 -100.5 41.5t-34.5 110.5q0 65 36 133t97 121q75 59 157 59q81 0 122 -48l22 53h29l-129 -326q-12 -36 -12 -69q0 -51 36 -51zM164 16
q59 0 106 40.5t66 90.5l95 236q-33 50 -112 50q-72 0 -135 -52q-55 -47 -89.5 -113t-34.5 -124q0 -59 27 -93.5t77 -34.5zM240 612h242l-9 -26h-242z" />
    <glyph glyph-name="Abreve" unicode="&#x102;" horiz-adv-x="678" 
d="M243 263h239l59 379zM476 26h119l-9 -26h-268l9 26h118l32 211h-255l-166 -211h102l-9 -26h-229l9 26h93l532 674h26zM481 894l26 3q0 -55 15 -79.5t58 -24.5q77 0 125 104l27 -4q-28 -61 -64 -92.5t-88 -31.5q-57 0 -81 35t-18 90z" />
    <glyph glyph-name="abreve" unicode="&#x103;" horiz-adv-x="545" 
d="M387 16q34 0 66.5 26.5t56.5 78.5l22 -10q-27 -60 -65 -89.5t-80 -29.5q-61 0 -61 75q0 12 1 19q-60 -94 -163 -94q-66 0 -100.5 41.5t-34.5 110.5q0 65 36 133t97 121q75 59 157 59q81 0 122 -48l22 53h29l-129 -326q-12 -36 -12 -69q0 -51 36 -51zM164 16
q59 0 106 40.5t66 90.5l95 236q-33 50 -112 50q-72 0 -135 -52q-55 -47 -89.5 -113t-34.5 -124q0 -59 27 -93.5t77 -34.5zM294 687q0 -77 62 -77q42 0 74.5 33.5t62.5 102.5l25 -8q-59 -152 -162 -152q-43 0 -67.5 26.5t-24.5 74.5q0 28 8 59h29q-7 -41 -7 -59z" />
    <glyph glyph-name="Aogonek" unicode="&#x104;" horiz-adv-x="678" 
d="M445 -223l23 -10q-41 -91 -110 -91q-39 0 -62 22.5t-23 63.5q0 95 168 238l37 237h-256l-166 -211h102l-9 -26h-229l9 26h93l532 674h26l-104 -674h119l-9 -26h-108q-46 -40 -67.5 -61t-52 -54.5t-43 -63t-12.5 -59.5q0 -62 55 -62q52 0 87 77zM243 263h239l59 379z" />
    <glyph glyph-name="aogonek" unicode="&#x105;" horiz-adv-x="545" 
d="M319 -324q-39 0 -62 22.5t-23 63.5q0 95 159 230h-6q-61 0 -61 75q0 12 1 19q-60 -94 -163 -94q-66 0 -100.5 41.5t-34.5 110.5q0 65 36 133t97 121q75 59 157 59q81 0 122 -48l22 53h29l-129 -326q-12 -36 -12 -69q0 -51 36 -51q34 0 66.5 26.5t56.5 78.5l22 -10
q-28 -58 -76 -99q-44 -36 -70 -59.5t-58.5 -58.5t-48 -67.5t-15.5 -64.5q0 -62 55 -62q52 0 87 77l23 -10q-41 -91 -110 -91zM164 16q59 0 106 40.5t66 90.5l95 236q-33 50 -112 50q-71 0 -134 -52q-54 -46 -89.5 -113t-35.5 -124q0 -59 27 -93.5t77 -34.5z" />
    <glyph glyph-name="Cacute" unicode="&#x106;" horiz-adv-x="662" 
d="M445 708q52 0 88 -14t56 -41.5t29 -55.5t15 -68l63 171h29l-86 -228h-24q-9 109 -43.5 160.5t-126.5 51.5q-97 0 -177.5 -66.5t-122.5 -164t-42 -199.5q0 -113 57.5 -175.5t155.5 -62.5q95 0 166 57.5t110 156.5l22 -6q-32 -102 -112.5 -167t-185.5 -65q-112 0 -178 69
t-66 193q0 110 46.5 213.5t134 172t192.5 68.5zM590 962l20 -18l-152 -175l-20 18z" />
    <glyph glyph-name="cacute" unicode="&#x107;" horiz-adv-x="457" 
d="M410 370q0 68 -103 68q-67 0 -118 -37q-57 -39 -92 -107t-35 -132q0 -69 30 -107.5t92 -38.5q119 0 194 140l23 -9q-33 -71 -90 -113t-127 -42q-76 0 -114.5 45t-38.5 125q0 70 40 144.5t103 115.5q58 40 133 40q59 0 96 -23.5t37 -67.5q0 -33 -25 -65l-22 15
q17 25 17 49zM457 761l22 -16l-174 -200l-22 16z" />
    <glyph glyph-name="Ccircumflex" unicode="&#x108;" horiz-adv-x="662" 
d="M445 708q52 0 88 -14t56 -41.5t29 -55.5t15 -68l63 171h29l-86 -228h-24q-9 109 -43.5 160.5t-126.5 51.5q-97 0 -177.5 -66.5t-122.5 -164t-42 -199.5q0 -113 57.5 -175.5t155.5 -62.5q95 0 166 57.5t110 156.5l22 -6q-32 -102 -112.5 -167t-185.5 -65q-112 0 -178 69
t-66 193q0 110 46.5 213.5t134 172t192.5 68.5zM580 771l-79 108l-144 -110l-15 21l155 121h15l90 -125z" />
    <glyph glyph-name="ccircumflex" unicode="&#x109;" horiz-adv-x="457" 
d="M410 370q0 68 -103 68q-67 0 -118 -37q-57 -39 -92 -107t-35 -132q0 -69 30 -107.5t92 -38.5q119 0 194 140l23 -9q-33 -71 -90 -113t-127 -42q-76 0 -114.5 45t-38.5 125q0 70 40 144.5t103 115.5q58 40 133 40q59 0 96 -23.5t37 -67.5q0 -33 -25 -65l-22 15
q17 25 17 49zM415 545l-51 176l-152 -177l-19 19l170 196h19l60 -206z" />
    <glyph glyph-name="Cdotaccent" unicode="&#x10a;" horiz-adv-x="662" 
d="M445 708q52 0 88 -14t56 -41.5t29 -55.5t15 -68l63 171h29l-86 -228h-24q-9 109 -43.5 160.5t-126.5 51.5q-97 0 -177.5 -66.5t-122.5 -164t-42 -199.5q0 -113 57.5 -175.5t155.5 -62.5q95 0 166 57.5t110 156.5l22 -6q-32 -102 -112.5 -167t-185.5 -65q-112 0 -178 69
t-66 193q0 110 46.5 213.5t134 172t192.5 68.5zM467 792q-15 0 -26.5 10.5t-11.5 27.5t11.5 27.5t26.5 10.5t26.5 -10.5t11.5 -27.5t-11.5 -27.5t-26.5 -10.5z" />
    <glyph glyph-name="cdotaccent" unicode="&#x10b;" horiz-adv-x="457" 
d="M410 370q0 68 -103 68q-67 0 -118 -37q-57 -39 -92 -107t-35 -132q0 -69 30 -107.5t92 -38.5q119 0 194 140l23 -9q-33 -71 -90 -113t-127 -42q-76 0 -114.5 45t-38.5 125q0 70 40 144.5t103 115.5q58 40 133 40q59 0 96 -23.5t37 -67.5q0 -33 -25 -65l-22 15
q17 25 17 49zM318 586q-16 0 -28 11.5t-12 28.5t12 28.5t28 11.5t28 -11.5t12 -28.5t-12 -28.5t-28 -11.5z" />
    <glyph glyph-name="Ccaron" unicode="&#x10c;" horiz-adv-x="662" 
d="M445 708q52 0 88 -14t56 -41.5t29 -55.5t15 -68l63 171h29l-86 -228h-24q-9 109 -43.5 160.5t-126.5 51.5q-97 0 -177.5 -66.5t-122.5 -164t-42 -199.5q0 -113 57.5 -175.5t155.5 -62.5q95 0 166 57.5t110 156.5l22 -6q-32 -102 -112.5 -167t-185.5 -65q-112 0 -178 69
t-66 193q0 110 46.5 213.5t134 172t192.5 68.5zM455 769l-90 125l22 15l79 -108l144 110l15 -21l-155 -121h-15z" />
    <glyph glyph-name="ccaron" unicode="&#x10d;" horiz-adv-x="457" 
d="M410 370q0 68 -103 68q-67 0 -118 -37q-57 -39 -92 -107t-35 -132q0 -69 30 -107.5t92 -38.5q119 0 194 140l23 -9q-33 -71 -90 -113t-127 -42q-76 0 -114.5 45t-38.5 125q0 70 40 144.5t103 115.5q58 40 133 40q59 0 96 -23.5t37 -67.5q0 -33 -25 -65l-22 15
q17 25 17 49zM297 545l-60 206l27 8l51 -176l152 177l19 -19l-170 -196h-19z" />
    <glyph glyph-name="Dcaron" unicode="&#x10e;" horiz-adv-x="727" 
d="M186 700h268q272 0 272 -260q0 -124 -59.5 -230t-165.5 -161q-90 -49 -215 -49h-346l9 26h122l230 648h-124zM102 26h184q113 0 201 46q99 52 153.5 151t54.5 217q0 235 -243 234h-120zM475 769l-90 125l22 15l79 -108l144 110l15 -21l-155 -121h-15z" />
    <glyph glyph-name="dcaron" unicode="&#x10f;" horiz-adv-x="550" 
d="M444 406l138 351q-31 -4 -70 -4h-55l9 26h43q65 0 96 10h20l-255 -653q-12 -27 -12 -72q0 -23 8.5 -35.5t32.5 -12.5q34 0 66.5 26.5t56.5 78.5l22 -10q-27 -60 -65 -89.5t-80 -29.5q-66 0 -66 72q0 14 1 21q-66 -93 -160 -93q-71 0 -108 45.5t-37 109.5q0 68 34.5 140
t95.5 119q71 56 158 56q81 0 127 -56zM174 16q53 0 100 37t73 104l87 221q-39 60 -117 60q-75 0 -141 -53q-54 -42 -85 -109.5t-31 -128.5q0 -54 28.5 -92.5t85.5 -38.5zM715 797l22 -13l-103 -187l-22 13z" />
    <glyph glyph-name="Dcroat" unicode="&#x110;" horiz-adv-x="727" 
d="M286 0h-346l9 26h122l110 311h-123l9 26h124l110 311h-124l9 26h268q272 0 272 -260q0 -124 -59.5 -230t-165.5 -161q-90 -49 -215 -49zM102 26h184q113 0 201 46q99 52 153.5 151t54.5 217q0 235 -243 234h-120l-110 -311h209l-9 -26h-210z" />
    <glyph glyph-name="dcroat" unicode="&#x111;" horiz-adv-x="550" 
d="M399 -8q-66 0 -66 72q0 14 1 21q-66 -93 -160 -93q-71 0 -108 45.5t-37 109.5q0 68 34.5 140t95.5 119q71 56 158 56q81 0 127 -56l79 202h-203l9 26h205l48 123q-31 -4 -70 -4h-55l9 26h43q65 0 96 10h20l-61 -155h103l-9 -26h-104l-184 -472q-12 -27 -12 -72
q0 -23 8.5 -35.5t32.5 -12.5q34 0 66.5 26.5t56.5 78.5l22 -10q-27 -60 -65 -89.5t-80 -29.5zM174 16q53 0 100 37t73 104l87 221q-39 60 -117 60q-75 0 -141 -53q-54 -42 -85 -109.5t-31 -128.5q0 -54 28.5 -92.5t85.5 -38.5z" />
    <glyph glyph-name="Emacron" unicode="&#x112;" horiz-adv-x="654" 
d="M589 213l-75 -213h-578l9 26h122l230 648h-124l9 26h525l-80 -222h-29l70 196h-340l-105 -295h192l41 114h28l-87 -242h-28l37 102h-192l-116 -327h397l65 187h29zM353 818h261l-9 -26h-261z" />
    <glyph glyph-name="emacron" unicode="&#x113;" horiz-adv-x="430" 
d="M62 162q0 -146 125 -146q53 0 103 40t79 107l23 -9q-33 -76 -88 -119t-117 -43q-77 0 -116.5 45t-39.5 125q0 108 80.5 204t187.5 96q53 0 82.5 -26.5t29.5 -62.5q0 -76 -100 -115q-67 -27 -243 -42q-6 -27 -6 -54zM299 438q-75 0 -137.5 -57.5t-87.5 -139.5
q156 13 228 40q78 30 78 92q0 30 -21.5 47.5t-59.5 17.5zM178 612h242l-9 -26h-242z" />
    <glyph glyph-name="Ebreve" unicode="&#x114;" horiz-adv-x="654" 
d="M589 213l-75 -213h-578l9 26h122l230 648h-124l9 26h525l-80 -222h-29l70 196h-340l-105 -295h192l41 114h28l-87 -242h-28l37 102h-192l-116 -327h397l65 187h29zM366 894l26 3q0 -55 15 -79.5t58 -24.5q77 0 125 104l27 -4q-28 -61 -64 -92.5t-88 -31.5q-57 0 -81 35
t-18 90z" />
    <glyph glyph-name="ebreve" unicode="&#x115;" horiz-adv-x="430" 
d="M62 162q0 -146 125 -146q53 0 103 40t79 107l23 -9q-33 -76 -88 -119t-117 -43q-77 0 -116.5 45t-39.5 125q0 108 80.5 204t187.5 96q53 0 82.5 -26.5t29.5 -62.5q0 -76 -100 -115q-67 -27 -243 -42q-6 -27 -6 -54zM299 438q-75 0 -137.5 -57.5t-87.5 -139.5
q156 13 228 40q78 30 78 92q0 30 -21.5 47.5t-59.5 17.5zM250 687q0 -77 62 -77q42 0 74.5 33.5t62.5 102.5l25 -8q-59 -152 -162 -152q-43 0 -67.5 26.5t-24.5 74.5q0 28 8 59h29q-7 -41 -7 -59z" />
    <glyph glyph-name="Edotaccent" unicode="&#x116;" horiz-adv-x="654" 
d="M589 213l-75 -213h-578l9 26h122l230 648h-124l9 26h525l-80 -222h-29l70 196h-340l-105 -295h192l41 114h28l-87 -242h-28l37 102h-192l-116 -327h397l65 187h29zM486 792q-15 0 -26.5 10.5t-11.5 27.5t11.5 27.5t26.5 10.5t26.5 -10.5t11.5 -27.5t-11.5 -27.5
t-26.5 -10.5z" />
    <glyph glyph-name="edotaccent" unicode="&#x117;" horiz-adv-x="430" 
d="M62 162q0 -146 125 -146q53 0 103 40t79 107l23 -9q-33 -76 -88 -119t-117 -43q-77 0 -116.5 45t-39.5 125q0 108 80.5 204t187.5 96q53 0 82.5 -26.5t29.5 -62.5q0 -76 -100 -115q-67 -27 -243 -42q-6 -27 -6 -54zM299 438q-75 0 -137.5 -57.5t-87.5 -139.5
q156 13 228 40q78 30 78 92q0 30 -21.5 47.5t-59.5 17.5zM300 586q-16 0 -28 11.5t-12 28.5t12 28.5t28 11.5t28 -11.5t12 -28.5t-12 -28.5t-28 -11.5z" />
    <glyph glyph-name="Eogonek" unicode="&#x118;" horiz-adv-x="654" 
d="M385 -223l23 -10q-41 -91 -110 -91q-39 0 -62 22.5t-23 63.5q0 95 168 238h-445l9 26h122l230 648h-124l9 26h525l-80 -222h-29l70 196h-340l-105 -295h192l41 114h28l-87 -242h-28l37 102h-192l-116 -327h397l65 187h29l-75 -213h-96q-46 -40 -67.5 -61t-52 -54.5
t-43 -63t-12.5 -59.5q0 -62 55 -62q52 0 87 77z" />
    <glyph glyph-name="eogonek" unicode="&#x119;" horiz-adv-x="430" 
d="M134 -324q-40 0 -62.5 23.5t-22.5 67.5q0 51 48.5 112t116.5 115q-16 -2 -27 -2q-77 0 -116.5 45t-39.5 125q0 108 80.5 204t187.5 96q53 0 82.5 -26.5t29.5 -62.5q0 -76 -100 -115q-67 -27 -243 -42q-6 -27 -6 -54q0 -146 125 -146q53 0 103 40t79 107l23 -9
q-36 -84 -113 -137q-31 -22 -71.5 -57t-84.5 -92.5t-44 -100.5q0 -67 55 -67q52 0 87 77l23 -10q-41 -91 -110 -91zM299 438q-75 0 -137.5 -57.5t-87.5 -139.5q156 13 228 40q78 30 78 92q0 30 -21.5 47.5t-59.5 17.5z" />
    <glyph glyph-name="Ecaron" unicode="&#x11a;" horiz-adv-x="654" 
d="M589 213l-75 -213h-578l9 26h122l230 648h-124l9 26h525l-80 -222h-29l70 196h-340l-105 -295h192l41 114h28l-87 -242h-28l37 102h-192l-116 -327h397l65 187h29zM470 769l-90 125l22 15l79 -108l144 110l15 -21l-155 -121h-15z" />
    <glyph glyph-name="ecaron" unicode="&#x11b;" horiz-adv-x="430" 
d="M62 162q0 -146 125 -146q53 0 103 40t79 107l23 -9q-33 -76 -88 -119t-117 -43q-77 0 -116.5 45t-39.5 125q0 108 80.5 204t187.5 96q53 0 82.5 -26.5t29.5 -62.5q0 -76 -100 -115q-67 -27 -243 -42q-6 -27 -6 -54zM299 438q-75 0 -137.5 -57.5t-87.5 -139.5
q156 13 228 40q78 30 78 92q0 30 -21.5 47.5t-59.5 17.5zM278 545l-60 206l27 8l51 -176l152 177l19 -19l-170 -196h-19z" />
    <glyph glyph-name="Gcircumflex" unicode="&#x11c;" horiz-adv-x="712" 
d="M473 708q162 0 177 -164l56 156h29l-79 -217h-24q-6 103 -40 152t-119 49q-95 0 -183 -65t-139.5 -165.5t-51.5 -203.5q0 -110 64 -172t164 -62q122 0 194 65l51 143h-144l9 26h278l-9 -26h-104l-53 -150q-74 -82 -222 -82q-115 0 -187 68t-72 190q0 80 32.5 162.5
t86 147.5t129.5 106.5t157 41.5zM604 771l-79 108l-144 -110l-15 21l155 121h15l90 -125z" />
    <glyph glyph-name="gcircumflex" unicode="&#x11d;" horiz-adv-x="561" 
d="M287 438q-65 0 -104.5 -46t-39.5 -121q0 -59 32 -93t93 -34q65 0 104.5 46t39.5 121q0 59 -34.5 93t-90.5 34zM287 462q99 0 138 -73q35 62 83 62q24 0 40.5 -13t16.5 -38q0 -36 -32 -72l-22 17q25 32 25 55q0 13 -8.5 20t-19.5 7q-38 0 -71 -70q6 -22 6 -46
q0 -85 -48.5 -138t-126.5 -53q-79 0 -122 49q-94 -15 -94 -81q0 -24 19.5 -43.5t63.5 -21.5l168 -9q134 -7 134 -114q0 -89 -80 -141.5t-191 -52.5q-107 0 -160.5 43.5t-53.5 113.5q0 51 34.5 84.5t93.5 59.5q-58 23 -58 83q0 37 28 65t80 37q-18 35 -18 79q0 85 48.5 138
t126.5 53zM-17 -137q0 -63 47.5 -98t135.5 -35q96 0 168 44.5t72 124.5q0 43 -25 64.5t-80 24.5l-167 9q-4 0 -9.5 0.5t-7.5 0.5q-64 -26 -99 -56.5t-35 -78.5zM432 545l-51 176l-152 -177l-19 19l170 196h19l60 -206z" />
    <glyph glyph-name="Gbreve" unicode="&#x11e;" horiz-adv-x="712" 
d="M473 708q162 0 177 -164l56 156h29l-79 -217h-24q-6 103 -40 152t-119 49q-95 0 -183 -65t-139.5 -165.5t-51.5 -203.5q0 -110 64 -172t164 -62q122 0 194 65l51 143h-144l9 26h278l-9 -26h-104l-53 -150q-74 -82 -222 -82q-115 0 -187 68t-72 190q0 80 32.5 162.5
t86 147.5t129.5 106.5t157 41.5zM395 894l26 3q0 -55 15 -79.5t58 -24.5q77 0 125 104l27 -4q-28 -61 -64 -92.5t-88 -31.5q-57 0 -81 35t-18 90z" />
    <glyph glyph-name="gbreve" unicode="&#x11f;" horiz-adv-x="561" 
d="M287 438q-65 0 -104.5 -46t-39.5 -121q0 -59 32 -93t93 -34q65 0 104.5 46t39.5 121q0 59 -34.5 93t-90.5 34zM287 462q99 0 138 -73q35 62 83 62q24 0 40.5 -13t16.5 -38q0 -36 -32 -72l-22 17q25 32 25 55q0 13 -8.5 20t-19.5 7q-38 0 -71 -70q6 -22 6 -46
q0 -85 -48.5 -138t-126.5 -53q-79 0 -122 49q-94 -15 -94 -81q0 -24 19.5 -43.5t63.5 -21.5l168 -9q134 -7 134 -114q0 -89 -80 -141.5t-191 -52.5q-107 0 -160.5 43.5t-53.5 113.5q0 51 34.5 84.5t93.5 59.5q-58 23 -58 83q0 37 28 65t80 37q-18 35 -18 79q0 85 48.5 138
t126.5 53zM-17 -137q0 -63 47.5 -98t135.5 -35q96 0 168 44.5t72 124.5q0 43 -25 64.5t-80 24.5l-167 9q-4 0 -9.5 0.5t-7.5 0.5q-64 -26 -99 -56.5t-35 -78.5zM278 687q0 -77 62 -77q42 0 74.5 33.5t62.5 102.5l25 -8q-59 -152 -162 -152q-43 0 -67.5 26.5t-24.5 74.5
q0 28 8 59h29q-7 -41 -7 -59z" />
    <glyph glyph-name="Gdotaccent" unicode="&#x120;" horiz-adv-x="712" 
d="M473 708q162 0 177 -164l56 156h29l-79 -217h-24q-6 103 -40 152t-119 49q-95 0 -183 -65t-139.5 -165.5t-51.5 -203.5q0 -110 64 -172t164 -62q122 0 194 65l51 143h-144l9 26h278l-9 -26h-104l-53 -150q-74 -82 -222 -82q-115 0 -187 68t-72 190q0 80 32.5 162.5
t86 147.5t129.5 106.5t157 41.5zM490 792q-15 0 -26.5 10.5t-11.5 27.5t11.5 27.5t26.5 10.5t26.5 -10.5t11.5 -27.5t-11.5 -27.5t-26.5 -10.5z" />
    <glyph glyph-name="gdotaccent" unicode="&#x121;" horiz-adv-x="561" 
d="M287 438q-65 0 -104.5 -46t-39.5 -121q0 -59 32 -93t93 -34q65 0 104.5 46t39.5 121q0 59 -34.5 93t-90.5 34zM287 462q99 0 138 -73q35 62 83 62q24 0 40.5 -13t16.5 -38q0 -36 -32 -72l-22 17q25 32 25 55q0 13 -8.5 20t-19.5 7q-38 0 -71 -70q6 -22 6 -46
q0 -85 -48.5 -138t-126.5 -53q-79 0 -122 49q-94 -15 -94 -81q0 -24 19.5 -43.5t63.5 -21.5l168 -9q134 -7 134 -114q0 -89 -80 -141.5t-191 -52.5q-107 0 -160.5 43.5t-53.5 113.5q0 51 34.5 84.5t93.5 59.5q-58 23 -58 83q0 37 28 65t80 37q-18 35 -18 79q0 85 48.5 138
t126.5 53zM-17 -137q0 -63 47.5 -98t135.5 -35q96 0 168 44.5t72 124.5q0 43 -25 64.5t-80 24.5l-167 9q-4 0 -9.5 0.5t-7.5 0.5q-64 -26 -99 -56.5t-35 -78.5zM336 586q-16 0 -28 11.5t-12 28.5t12 28.5t28 11.5t28 -11.5t12 -28.5t-12 -28.5t-28 -11.5z" />
    <glyph glyph-name="uni0122" unicode="&#x122;" horiz-adv-x="712" 
d="M473 708q162 0 177 -164l56 156h29l-79 -217h-24q-6 103 -40 152t-119 49q-95 0 -183 -65t-139.5 -165.5t-51.5 -203.5q0 -110 64 -172t164 -62q122 0 194 65l51 143h-144l9 26h278l-9 -26h-104l-53 -150q-74 -82 -222 -82q-115 0 -187 68t-72 190q0 80 32.5 162.5
t86 147.5t129.5 106.5t157 41.5zM218 -149l-21 -13q-15 18 -15 37q0 22 16 38t44 16q30 0 49 -17.5t19 -55.5q0 -37 -34.5 -74t-114.5 -62l-8 20q129 45 129 116q0 50 -40 50q-16 0 -24.5 -9t-8.5 -21q0 -9 9 -25z" />
    <glyph glyph-name="uni0123" unicode="&#x123;" horiz-adv-x="561" 
d="M287 438q-65 0 -104.5 -46t-39.5 -121q0 -59 32 -93t93 -34q65 0 104.5 46t39.5 121q0 59 -34.5 93t-90.5 34zM287 462q99 0 138 -73q35 62 83 62q24 0 40.5 -13t16.5 -38q0 -36 -32 -72l-22 17q25 32 25 55q0 13 -8.5 20t-19.5 7q-38 0 -71 -70q6 -22 6 -46
q0 -85 -48.5 -138t-126.5 -53q-79 0 -122 49q-94 -15 -94 -81q0 -24 19.5 -43.5t63.5 -21.5l168 -9q134 -7 134 -114q0 -89 -80 -141.5t-191 -52.5q-107 0 -160.5 43.5t-53.5 113.5q0 51 34.5 84.5t93.5 59.5q-58 23 -58 83q0 37 28 65t80 37q-18 35 -18 79q0 85 48.5 138
t126.5 53zM-17 -137q0 -63 47.5 -98t135.5 -35q96 0 168 44.5t72 124.5q0 43 -25 64.5t-80 24.5l-167 9q-4 0 -9.5 0.5t-7.5 0.5q-64 -26 -99 -56.5t-35 -78.5zM372 631l21 13q15 -18 15 -37q0 -22 -16 -38t-44 -16q-30 0 -49 17.5t-19 55.5q0 37 34.5 74t114.5 62l8 -20
q-129 -45 -129 -116q0 -50 40 -50q16 0 24.5 9t8.5 21q0 9 -9 25z" />
    <glyph glyph-name="Hcircumflex" unicode="&#x124;" horiz-adv-x="750" 
d="M182 700h257l-9 -26h-102l-107 -302h403l108 302h-107l9 26h256l-9 -26h-118l-231 -648h120l-9 -26h-246l9 26h95l114 320h-403l-114 -320h103l-9 -26h-256l9 26h122l230 648h-124zM675 771l-79 108l-144 -110l-15 21l155 121h15l90 -125z" />
    <glyph glyph-name="hcircumflex" unicode="&#x125;" horiz-adv-x="578" 
d="M353 789l-197 -493q29 45 70 86q80 80 162 80q94 0 94 -86q0 -32 -14 -62l-102 -250q-7 -19 -7 -28q0 -20 33 -20q35 0 68 26.5t53 77.5l23 -9q-50 -119 -144 -119q-62 0 -62 44q0 16 7 33l104 256q11 24 11 51q0 62 -65 62q-74 0 -153 -84q-80 -83 -123 -179l-70 -175
h-31l300 757q-31 -4 -70 -4h-55l9 26h43q65 0 96 10h20zM569 831l-79 108l-144 -110l-15 21l155 121h15l90 -125z" />
    <glyph glyph-name="Hbar" unicode="&#x126;" horiz-adv-x="750" 
d="M221 372h403l53 147h-404zM201 26l-9 -26h-256l9 26h122l175 493h-127l9 26h127l46 129h-124l9 26h257l-9 -26h-102l-46 -129h404l46 129h-107l9 26h256l-9 -26h-118l-46 -129h138l-9 -26h-138l-176 -493h120l-9 -26h-246l9 26h95l114 320h-403l-114 -320h103z" />
    <glyph glyph-name="hbar" unicode="&#x127;" horiz-adv-x="578" 
d="M513 120l23 -9q-50 -119 -144 -119q-62 0 -62 44q0 16 7 33l104 256q11 24 11 51q0 62 -65 62q-74 0 -153 -84q-80 -83 -123 -179l-70 -175h-31l241 608h-119l9 26h120l49 123q-31 -4 -70 -4h-55l9 26h43q65 0 96 10h20l-62 -155h188l-9 -26h-189l-125 -312q29 45 70 86
q80 80 162 80q94 0 94 -86q0 -32 -14 -62l-102 -250q-7 -19 -7 -28q0 -20 33 -20q35 0 68 26.5t53 77.5z" />
    <glyph glyph-name="Itilde" unicode="&#x128;" horiz-adv-x="317" 
d="M181 700h276l-9 -26h-120l-230 -648h121l-9 -26h-276l9 26h124l231 648h-126zM484 876l22 -14q-41 -70 -92 -70q-25 0 -69.5 24.5t-66.5 24.5q-39 0 -70 -56l-22 14q41 70 92 70q28 0 72.5 -24.5t63.5 -24.5q39 0 70 56z" />
    <glyph glyph-name="itilde" unicode="&#x129;" horiz-adv-x="308" 
d="M109 -8q-65 -1 -65 50q0 22 9 45l141 345q-31 -4 -70 -4h-55l9 26h43q65 0 96 10h21l-157 -388q-7 -19 -7 -35q0 -25 35 -25q33 0 68.5 26.5t58.5 77.5l23 -9q-25 -60 -65.5 -89t-84.5 -30zM357 670l22 -14q-41 -70 -92 -70q-25 0 -69.5 24.5t-66.5 24.5q-39 0 -70 -56
l-22 14q41 70 92 70q28 0 72.5 -24.5t63.5 -24.5q39 0 70 56z" />
    <glyph glyph-name="Imacron" unicode="&#x12a;" horiz-adv-x="317" 
d="M181 700h276l-9 -26h-120l-230 -648h121l-9 -26h-276l9 26h124l231 648h-126zM212 818h261l-9 -26h-261z" />
    <glyph glyph-name="imacron" unicode="&#x12b;" horiz-adv-x="308" 
d="M108 612h212l-9 -26h-212zM109 -8q-65 -1 -65 50q0 22 9 45l141 345q-31 -4 -70 -4h-55l9 26h43q65 0 96 10h21l-157 -388q-7 -19 -7 -35q0 -25 35 -25q33 0 68.5 26.5t58.5 77.5l23 -9q-25 -60 -65.5 -89t-84.5 -30z" />
    <glyph glyph-name="Ibreve" unicode="&#x12c;" horiz-adv-x="317" 
d="M181 700h276l-9 -26h-120l-230 -648h121l-9 -26h-276l9 26h124l231 648h-126zM244 894l26 3q0 -55 15 -79.5t58 -24.5q77 0 125 104l27 -4q-28 -61 -64 -92.5t-88 -31.5q-57 0 -81 35t-18 90z" />
    <glyph glyph-name="ibreve" unicode="&#x12d;" horiz-adv-x="308" 
d="M109 -8q-65 -1 -65 50q0 22 9 45l141 345q-31 -4 -70 -4h-55l9 26h43q65 0 96 10h21l-157 -388q-7 -19 -7 -35q0 -25 35 -25q33 0 68.5 26.5t58.5 77.5l23 -9q-25 -60 -65.5 -89t-84.5 -30zM169 687q0 -77 62 -77q42 0 74.5 33.5t62.5 102.5l25 -8q-59 -152 -162 -152
q-43 0 -67.5 26.5t-24.5 74.5q0 28 8 59h29q-7 -41 -7 -59z" />
    <glyph glyph-name="Iogonek" unicode="&#x12e;" horiz-adv-x="317" 
d="M124 -223l23 -10q-41 -91 -110 -91q-39 0 -62 22.5t-23 63.5q0 95 168 238h-186l9 26h124l231 648h-126l9 26h276l-9 -26h-120l-230 -648h121l-9 -26h-53q-46 -40 -67.5 -61t-52 -54.5t-43 -63t-12.5 -59.5q0 -62 55 -62q52 0 87 77z" />
    <glyph glyph-name="iogonek" unicode="&#x12f;" horiz-adv-x="308" 
d="M268 586q-16 0 -28 11.5t-12 28.5t12 28.5t28 11.5t28 -11.5t12 -28.5t-12 -28.5t-28 -11.5zM46 -324q-39 0 -62 22.5t-23 63.5q0 102 164 231q-3 -1 -16 -1q-65 -1 -65 50q0 22 9 45l141 345q-31 -4 -70 -4h-55l9 26h43q65 0 96 10h21l-157 -388q-7 -19 -7 -35
q0 -25 35 -25q33 0 68.5 26.5t58.5 77.5l23 -9q-23 -54 -72 -96q-47 -39 -73.5 -63t-59 -59.5t-48 -67.5t-15.5 -63q0 -62 55 -62q52 0 87 77l23 -10q-41 -91 -110 -91z" />
    <glyph glyph-name="Idotaccent" unicode="&#x130;" horiz-adv-x="317" 
d="M181 700h276l-9 -26h-120l-230 -648h121l-9 -26h-276l9 26h124l231 648h-126zM339 792q-15 0 -26.5 10.5t-11.5 27.5t11.5 27.5t26.5 10.5t26.5 -10.5t11.5 -27.5t-11.5 -27.5t-26.5 -10.5z" />
    <glyph glyph-name="dotlessi" unicode="&#x131;" horiz-adv-x="308" 
d="M109 -8q-65 -1 -65 50q0 22 9 45l141 345q-31 -4 -70 -4h-55l9 26h43q65 0 96 10h21l-157 -388q-7 -19 -7 -35q0 -25 35 -25q33 0 68.5 26.5t58.5 77.5l23 -9q-25 -60 -65.5 -89t-84.5 -30z" />
    <glyph glyph-name="IJ" unicode="&#x132;" horiz-adv-x="663" 
d="M181 700h276l-9 -26h-119l-231 -648h121l-9 -26h-276l9 26h124l231 648h-126zM488 163l179 511h-133l9 26h258l-9 -26h-94l-182 -519q-56 -163 -167 -163q-43 0 -64 23.5t-21 54.5q0 41 38 68l17 -17q-26 -19 -26 -51q0 -22 14 -38t42 -16q49 0 80 35.5t59 111.5z" />
    <glyph glyph-name="ij" unicode="&#x133;" horiz-adv-x="549" 
d="M609 626q0 -17 -12 -28.5t-28 -11.5t-28 11.5t-12 28.5t12 28.5t28 11.5t28 -11.5t12 -28.5zM268 586q-16 0 -28 11.5t-12 28.5t12 28.5t28 11.5t28 -11.5t12 -28.5t-12 -28.5t-28 -11.5zM109 -8q-65 -1 -65 50q0 22 9 45l141 345q-31 -4 -70 -4h-55l9 26h43q65 0 96 10
h21l-157 -388q-7 -19 -7 -35q0 -25 35 -25q33 0 68.5 26.5t58.5 77.5l23 -9q-25 -60 -65.5 -89t-84.5 -30zM164 -295q-37 0 -56.5 21t-19.5 52q0 37 26 66l23 -15q-20 -23 -20 -51q0 -21 12.5 -35t34.5 -14q41 0 67.5 32t48.5 93l216 578q-31 -4 -71 -4h-55l9 26h43
q65 0 96 10h21l-232 -621q-25 -67 -59 -102.5t-84 -35.5z" />
    <glyph glyph-name="Jcircumflex" unicode="&#x134;" horiz-adv-x="355" 
d="M170 163l179 511h-133l9 26h258l-9 -26h-94l-182 -519q-56 -163 -167 -163q-43 0 -64 23.5t-21 54.5q0 41 38 68l17 -17q-26 -19 -26 -51q0 -22 14 -38t42 -16q49 0 80 35.5t59 111.5zM479 771l-79 108l-144 -110l-15 21l155 121h15l90 -125z" />
    <glyph glyph-name="jcircumflex" unicode="&#x135;" horiz-adv-x="241" 
d="M-144 -271q41 0 67.5 32t48.5 93l216 578q-31 -4 -71 -4h-55l9 26h43q65 0 96 10h21l-232 -621q-25 -67 -59 -102.5t-84 -35.5q-37 0 -56.5 21t-19.5 52q0 37 26 66l23 -15q-20 -23 -20 -51q0 -21 12.5 -35t34.5 -14zM294 545l-51 176l-152 -177l-19 19l170 196h19
l60 -206z" />
    <glyph glyph-name="uni0136" unicode="&#x136;" horiz-adv-x="673" 
d="M187 700h246l-9 -26h-99l-114 -321l402 321h-95l9 26h244l-9 -26h-108l-343 -274l204 -374h106l-9 -26h-243l9 26h102l-193 355l-93 -74l-100 -281h101l-9 -26h-245l9 26h113l231 648h-116zM224 -149l-21 -13q-15 18 -15 37q0 22 16 38t44 16q30 0 49 -17.5t19 -55.5
q0 -37 -34.5 -74t-114.5 -62l-8 20q129 45 129 116q0 50 -40 50q-16 0 -24.5 -9t-8.5 -21q0 -9 9 -25z" />
    <glyph glyph-name="uni0137" unicode="&#x137;" horiz-adv-x="559" 
d="M290 105l7 81q4 44 -17.5 71t-58.5 27h-60l-115 -284h-31l306 757q-31 -4 -69 -4h-55l9 26h43q65 0 96 10h20l-194 -479h73q60 0 100 69q23 39 48 61t65 22q32 0 51 -15t19 -39q0 -26 -23 -57l-22 15q17 26 17 42q0 30 -42 30q-21 0 -39.5 -13t-28 -26t-22.5 -34
q-35 -62 -97 -73q62 -33 55 -108l-7 -81q-8 -87 48 -87q80 0 131 145l23 -8q-50 -161 -154 -161q-45 0 -63 26.5t-13 86.5zM129 -149l-21 -13q-15 18 -15 37q0 22 16 38t44 16q30 0 49 -17.5t19 -55.5q0 -37 -34.5 -74t-114.5 -62l-8 20q129 45 129 116q0 50 -40 50
q-16 0 -24.5 -9t-8.5 -21q0 -9 9 -25z" />
    <glyph glyph-name="Lacute" unicode="&#x139;" horiz-adv-x="616" 
d="M180 700h276l-9 -26h-121l-229 -648h376l73 209h29l-83 -235h-558l9 26h123l229 648h-124zM469 962l20 -18l-152 -175l-20 18z" />
    <glyph glyph-name="lacute" unicode="&#x13a;" horiz-adv-x="279" 
d="M98 -8q-69 0 -69 52q0 15 8 37l261 676q-31 -4 -70 -4h-55l9 26h43q65 0 96 10h20l-277 -719q-5 -17 -5 -26q0 -28 39 -28q73 0 126 104l21 -9q-26 -59 -66.5 -89t-80.5 -30zM424 1021l20 -18l-152 -175l-20 18z" />
    <glyph glyph-name="uni013B" unicode="&#x13b;" horiz-adv-x="616" 
d="M180 700h276l-9 -26h-121l-229 -648h376l73 209h29l-83 -235h-558l9 26h123l229 648h-124zM194 -149l-21 -13q-15 18 -15 37q0 22 16 38t44 16q30 0 49 -17.5t19 -55.5q0 -37 -34.5 -74t-114.5 -62l-8 20q129 45 129 116q0 50 -40 50q-16 0 -24.5 -9t-8.5 -21q0 -9 9 -25
z" />
    <glyph glyph-name="uni013C" unicode="&#x13c;" horiz-adv-x="279" 
d="M98 -8q-69 0 -69 52q0 15 8 37l261 676q-31 -4 -70 -4h-55l9 26h43q65 0 96 10h20l-277 -719q-5 -17 -5 -26q0 -28 39 -28q73 0 126 104l21 -9q-26 -59 -66.5 -89t-80.5 -30zM13 -149l-21 -13q-15 18 -15 37q0 22 16 38t44 16q30 0 49 -17.5t19 -55.5q0 -37 -34.5 -74
t-114.5 -62l-8 20q129 45 129 116q0 50 -40 50q-16 0 -24.5 -9t-8.5 -21q0 -9 9 -25z" />
    <glyph glyph-name="Lcaron" unicode="&#x13d;" horiz-adv-x="616" 
d="M180 700h276l-9 -26h-121l-229 -648h376l73 209h29l-83 -235h-558l9 26h123l229 648h-124zM536 713l22 -13l-103 -187l-22 13z" />
    <glyph glyph-name="lcaron" unicode="&#x13e;" horiz-adv-x="279" 
d="M98 -8q-69 0 -69 52q0 15 8 37l261 676q-31 -4 -70 -4h-55l9 26h43q65 0 96 10h20l-277 -719q-5 -17 -5 -26q0 -28 39 -28q73 0 126 104l21 -9q-26 -59 -66.5 -89t-80.5 -30zM431 797l22 -13l-103 -187l-22 13z" />
    <glyph glyph-name="Ldot" unicode="&#x13f;" horiz-adv-x="616" 
d="M180 700h276l-9 -26h-121l-229 -648h376l73 209h29l-83 -235h-558l9 26h123l229 648h-124zM555 353q-16 0 -28 11.5t-12 28.5t12 28.5t28 11.5t28 -11.5t12 -28.5t-12 -28.5t-28 -11.5z" />
    <glyph glyph-name="ldot" unicode="&#x140;" horiz-adv-x="289" 
d="M319 353q-16 0 -28 11.5t-12 28.5t12 28.5t28 11.5t28 -11.5t12 -28.5t-12 -28.5t-28 -11.5zM98 -8q-69 0 -69 52q0 15 8 37l261 676q-31 -4 -70 -4h-55l9 26h43q65 0 96 10h20l-277 -719q-5 -17 -5 -26q0 -28 39 -28q73 0 126 104l21 -9q-26 -59 -66.5 -89t-80.5 -30z
" />
    <glyph glyph-name="Lslash" unicode="&#x141;" horiz-adv-x="616" 
d="M492 0h-558l9 26h123l91 258l-147 -63l-10 23l168 72l127 358h-124l9 26h276l-9 -26h-121l-121 -343l246 105l10 -23l-267 -114l-97 -273h376l73 209h29z" />
    <glyph glyph-name="lslash" unicode="&#x142;" horiz-adv-x="279" 
d="M98 -8q-69 0 -69 52q0 15 8 37l108 280l-104 -57l-12 22l130 72l139 359q-31 -4 -70 -4h-55l9 26h43q65 0 96 10h20l-142 -370l112 62l12 -22l-138 -76l-121 -313q-5 -17 -5 -26q0 -28 39 -28q73 0 126 104l21 -9q-26 -59 -66.5 -89t-80.5 -30z" />
    <glyph glyph-name="Nacute" unicode="&#x143;" horiz-adv-x="741" 
d="M620 700h256l-9 -26h-105l-238 -674h-26l-171 671l-230 -645h119l-9 -26h-271l9 26h122l231 648h-124l9 26h167l165 -641l218 615h-122zM662 962l20 -18l-152 -175l-20 18z" />
    <glyph glyph-name="nacute" unicode="&#x144;" horiz-adv-x="582" 
d="M209 464h20l-69 -168q29 45 70 86q80 80 162 80q94 0 94 -86q0 -32 -14 -62l-102 -250q-7 -19 -7 -28q0 -20 33 -20q35 0 68 26.5t53 77.5l23 -9q-50 -119 -144 -119q-62 0 -62 44q0 16 7 33l104 256q11 24 11 51q0 62 -65 62q-69 0 -153 -84q-78 -76 -113 -154l-79 -200
h-31l171 432q-31 -4 -70 -4h-55l9 26h43q65 0 96 10zM510 761l22 -16l-174 -200l-22 16z" />
    <glyph glyph-name="uni0145" unicode="&#x145;" horiz-adv-x="741" 
d="M620 700h256l-9 -26h-105l-238 -674h-26l-171 671l-230 -645h119l-9 -26h-271l9 26h122l231 648h-124l9 26h167l165 -641l218 615h-122zM243 -149l-21 -13q-15 18 -15 37q0 22 16 38t44 16q30 0 49 -17.5t19 -55.5q0 -37 -34.5 -74t-114.5 -62l-8 20q129 45 129 116
q0 50 -40 50q-16 0 -24.5 -9t-8.5 -21q0 -9 9 -25z" />
    <glyph glyph-name="uni0146" unicode="&#x146;" horiz-adv-x="582" 
d="M209 464h20l-69 -168q29 45 70 86q80 80 162 80q94 0 94 -86q0 -32 -14 -62l-102 -250q-7 -19 -7 -28q0 -20 33 -20q35 0 68 26.5t53 77.5l23 -9q-50 -119 -144 -119q-62 0 -62 44q0 16 7 33l104 256q11 24 11 51q0 62 -65 62q-69 0 -153 -84q-78 -76 -113 -154l-79 -200
h-31l171 432q-31 -4 -70 -4h-55l9 26h43q65 0 96 10zM118 -149l-21 -13q-15 18 -15 37q0 22 16 38t44 16q30 0 49 -17.5t19 -55.5q0 -37 -34.5 -74t-114.5 -62l-8 20q129 45 129 116q0 50 -40 50q-16 0 -24.5 -9t-8.5 -21q0 -9 9 -25z" />
    <glyph glyph-name="Ncaron" unicode="&#x147;" horiz-adv-x="741" 
d="M620 700h256l-9 -26h-105l-238 -674h-26l-171 671l-230 -645h119l-9 -26h-271l9 26h122l231 648h-124l9 26h167l165 -641l218 615h-122zM527 769l-90 125l22 15l79 -108l144 110l15 -21l-155 -121h-15z" />
    <glyph glyph-name="ncaron" unicode="&#x148;" horiz-adv-x="582" 
d="M209 464h20l-69 -168q29 45 70 86q80 80 162 80q94 0 94 -86q0 -32 -14 -62l-102 -250q-7 -19 -7 -28q0 -20 33 -20q35 0 68 26.5t53 77.5l23 -9q-50 -119 -144 -119q-62 0 -62 44q0 16 7 33l104 256q11 24 11 51q0 62 -65 62q-69 0 -153 -84q-78 -76 -113 -154l-79 -200
h-31l171 432q-31 -4 -70 -4h-55l9 26h43q65 0 96 10zM357 545l-60 206l27 8l51 -176l152 177l19 -19l-170 -196h-19z" />
    <glyph glyph-name="napostrophe" unicode="&#x149;" horiz-adv-x="582" 
d="M209 464h20l-69 -168q29 45 70 86q80 80 162 80q94 0 94 -86q0 -32 -14 -62l-102 -250q-7 -19 -7 -28q0 -20 33 -20q35 0 68 26.5t53 77.5l23 -9q-50 -119 -144 -119q-62 0 -62 44q0 16 7 33l104 256q11 24 11 51q0 62 -65 62q-69 0 -153 -84q-78 -76 -113 -154l-79 -200
h-31l171 432q-31 -4 -70 -4h-55l9 26h43q65 0 96 10zM-27 607l-22 -13q-18 24 -18 48q0 27 21 46t57 19t58 -23.5t22 -59.5q0 -65 -55 -116.5t-146 -78.5l-8 21q82 25 131 69.5t49 104.5q0 27 -12.5 43.5t-38.5 16.5q-23 0 -36.5 -12t-13.5 -30t12 -35z" />
    <glyph glyph-name="Eng" unicode="&#x14a;" horiz-adv-x="741" 
d="M329 -235q-41 0 -61.5 24t-20.5 54q0 41 38 68l17 -17q-26 -19 -26 -51q0 -22 14 -38t39 -16q91 0 142 147l23 65l-167 670l-230 -645h119l-9 -26h-271l9 26h122l231 648h-124l9 26h167l163 -647l220 621h-122l9 26h256l-9 -26h-105l-263 -746q-56 -163 -170 -163z" />
    <glyph glyph-name="eng" unicode="&#x14b;" horiz-adv-x="496" 
d="M269 -146l176 471q11 27 11 51q0 62 -65 62q-69 0 -153 -84q-78 -76 -113 -154l-79 -200h-31l171 432q-31 -4 -70 -4h-55l9 26h43q65 0 96 10h20l-67 -163q31 45 58 72q88 89 172 89q94 0 94 -86q0 -20 -14 -62l-176 -471q-25 -67 -59 -102.5t-84 -35.5q-37 0 -56.5 21
t-19.5 52q0 37 26 66l23 -15q-20 -23 -20 -51q0 -21 12.5 -35t34.5 -14q40 0 67 32.5t49 92.5z" />
    <glyph glyph-name="Omacron" unicode="&#x14c;" horiz-adv-x="686" 
d="M305 -8q-100 0 -162 68t-62 198q0 138 80 263.5t201 170.5q38 16 99 16q99 0 161.5 -68.5t62.5 -197.5q0 -138 -80 -264t-201 -170q-39 -16 -99 -16zM305 16q45 0 89 15q111 41 185.5 162t74.5 249q0 118 -53 180.5t-140 62.5q-45 0 -89 -16q-113 -41 -186.5 -161
t-73.5 -250q0 -118 53 -180t140 -62zM351 818h261l-9 -26h-261z" />
    <glyph glyph-name="omacron" unicode="&#x14d;" horiz-adv-x="501" 
d="M300 462q76 0 122 -51.5t46 -128.5q0 -75 -40.5 -147t-104.5 -110q-52 -33 -122 -33q-77 0 -122.5 51t-45.5 129q0 74 41.5 147t105.5 111q50 32 120 32zM201 16q59 0 106 29q58 35 94 103t36 134q0 68 -36.5 112t-100.5 44q-57 0 -104 -28q-59 -35 -95.5 -103
t-36.5 -135q0 -69 35.5 -112.5t101.5 -43.5zM222 612h242l-9 -26h-242z" />
    <glyph glyph-name="Obreve" unicode="&#x14e;" horiz-adv-x="686" 
d="M305 -8q-100 0 -162 68t-62 198q0 138 80 263.5t201 170.5q38 16 99 16q99 0 161.5 -68.5t62.5 -197.5q0 -138 -80 -264t-201 -170q-39 -16 -99 -16zM305 16q45 0 89 15q111 41 185.5 162t74.5 249q0 118 -53 180.5t-140 62.5q-45 0 -89 -16q-113 -41 -186.5 -161
t-73.5 -250q0 -118 53 -180t140 -62zM403 894l26 3q0 -55 15 -79.5t58 -24.5q77 0 125 104l27 -4q-28 -61 -64 -92.5t-88 -31.5q-57 0 -81 35t-18 90z" />
    <glyph glyph-name="obreve" unicode="&#x14f;" horiz-adv-x="501" 
d="M300 462q76 0 122 -51.5t46 -128.5q0 -75 -40.5 -147t-104.5 -110q-52 -33 -122 -33q-77 0 -122.5 51t-45.5 129q0 74 41.5 147t105.5 111q50 32 120 32zM201 16q59 0 106 29q58 35 94 103t36 134q0 68 -36.5 112t-100.5 44q-57 0 -104 -28q-59 -35 -95.5 -103
t-36.5 -135q0 -69 35.5 -112.5t101.5 -43.5zM276 687q0 -77 62 -77q42 0 74.5 33.5t62.5 102.5l25 -8q-59 -152 -162 -152q-43 0 -67.5 26.5t-24.5 74.5q0 28 8 59h29q-7 -41 -7 -59z" />
    <glyph glyph-name="Ohungarumlaut" unicode="&#x150;" horiz-adv-x="686" 
d="M305 -8q-100 0 -162 68t-62 198q0 138 80 263.5t201 170.5q38 16 99 16q99 0 161.5 -68.5t62.5 -197.5q0 -138 -80 -264t-201 -170q-39 -16 -99 -16zM305 16q45 0 89 15q111 41 185.5 162t74.5 249q0 118 -53 180.5t-140 62.5q-45 0 -89 -16q-113 -41 -186.5 -161
t-73.5 -250q0 -118 53 -180t140 -62zM646 960l22 -15l-124 -177l-22 15zM507 960l22 -15l-124 -177l-22 15z" />
    <glyph glyph-name="ohungarumlaut" unicode="&#x151;" horiz-adv-x="501" 
d="M300 462q76 0 122 -51.5t46 -128.5q0 -75 -40.5 -147t-104.5 -110q-52 -33 -122 -33q-77 0 -122.5 51t-45.5 129q0 74 41.5 147t105.5 111q50 32 120 32zM201 16q59 0 106 29q58 35 94 103t36 134q0 68 -36.5 112t-100.5 44q-57 0 -104 -28q-59 -35 -95.5 -103
t-36.5 -135q0 -69 35.5 -112.5t101.5 -43.5zM515 771l22 -15l-140 -211l-22 15zM370 771l22 -15l-140 -211l-22 15z" />
    <glyph glyph-name="OE" unicode="&#x152;" horiz-adv-x="991" 
d="M383 26h21l230 648h-107q-180 0 -298 -114.5t-118 -285.5q0 -131 74.5 -189.5t197.5 -58.5zM1044 700l-80 -222h-28l71 196h-342l-105 -295h193l41 114h27l-87 -242h-27l37 102h-193l-116 -327h397l66 187h28l-75 -213h-470q-134 0 -217 66.5t-83 207.5q0 180 127.5 303
t316.5 123h519z" />
    <glyph glyph-name="oe" unicode="&#x153;" horiz-adv-x="783" 
d="M722 163l23 -9q-33 -77 -83.5 -119.5t-111.5 -42.5t-100 37t-42 102v8q-31 -76 -95 -114q-52 -33 -122 -33q-76 0 -117 50.5t-41 129.5q0 76 37 148.5t100 109.5q50 32 120 32q66 0 109 -43t45 -112v-9q31 73 89 118.5t119 45.5q53 0 82.5 -26.5t29.5 -62.5
q0 -76 -100 -115q-72 -29 -223 -42q-6 -35 -6 -54q0 -69 28.5 -107.5t86.5 -38.5q52 0 97 39.5t75 107.5zM652 438q-64 0 -122 -58t-83 -139q132 12 208 40q78 30 78 92q0 30 -21.5 47.5t-59.5 17.5zM64 172q0 -71 31 -113.5t96 -42.5q59 0 106 29q57 34 88.5 101.5
t31.5 135.5q0 70 -32 113t-95 43q-57 0 -104 -28q-58 -35 -90 -102t-32 -136z" />
    <glyph glyph-name="Racute" unicode="&#x154;" horiz-adv-x="656" 
d="M99 26h113l-9 -26h-271l9 26h127l229 648h-121l9 26h276q84 0 124 -40.5t40 -100.5q0 -85 -57.5 -141t-145.5 -62q81 -27 81 -106q0 -31 -17 -87q-17 -55 -18 -81q0 -66 59 -66q25 0 46 19t26 49l24 -6q-7 -41 -32.5 -63.5t-63.5 -22.5q-41 0 -65.5 22.5t-24.5 67.5
q1 19 21 89q15 45 15 79q0 47 -33.5 73.5t-88.5 26.5h-138zM222 376h160q87 0 149.5 48.5t62.5 135.5q0 50 -32.5 82t-100.5 32h-133zM565 962l20 -18l-152 -175l-20 18z" />
    <glyph glyph-name="racute" unicode="&#x155;" horiz-adv-x="392" 
d="M373 336l-21 17q29 27 29 52q0 33 -38 33q-37 0 -96 -69q-104 -124 -141 -218l-60 -151h-31l170 432q-31 -4 -69 -4h-55l9 26h43q65 0 96 10l12 -11l-71 -180q33 63 84 118q32 37 57.5 54t53.5 17q31 0 48.5 -15.5t17.5 -41.5q0 -38 -38 -69zM450 761l22 -16l-174 -200
l-22 16z" />
    <glyph glyph-name="uni0156" unicode="&#x156;" horiz-adv-x="656" 
d="M99 26h113l-9 -26h-271l9 26h127l229 648h-121l9 26h276q84 0 124 -40.5t40 -100.5q0 -85 -57.5 -141t-145.5 -62q81 -27 81 -106q0 -31 -17 -87q-17 -55 -18 -81q0 -66 59 -66q25 0 46 19t26 49l24 -6q-7 -41 -32.5 -63.5t-63.5 -22.5q-41 0 -65.5 22.5t-24.5 67.5
q1 19 21 89q15 45 15 79q0 47 -33.5 73.5t-88.5 26.5h-138zM222 376h160q87 0 149.5 48.5t62.5 135.5q0 50 -32.5 82t-100.5 32h-133zM239 -149l-21 -13q-15 18 -15 37q0 22 16 38t44 16q30 0 49 -17.5t19 -55.5q0 -37 -34.5 -74t-114.5 -62l-8 20q129 45 129 116
q0 50 -40 50q-16 0 -24.5 -9t-8.5 -21q0 -9 9 -25z" />
    <glyph glyph-name="uni0157" unicode="&#x157;" horiz-adv-x="392" 
d="M373 336l-21 17q29 27 29 52q0 33 -38 33q-37 0 -96 -69q-104 -124 -141 -218l-60 -151h-31l170 432q-31 -4 -69 -4h-55l9 26h43q65 0 96 10l12 -11l-71 -180q33 63 84 118q32 37 57.5 54t53.5 17q31 0 48.5 -15.5t17.5 -41.5q0 -38 -38 -69zM-32 -149l-21 -13
q-15 18 -15 37q0 22 16 38t44 16q30 0 49 -17.5t19 -55.5q0 -37 -34.5 -74t-114.5 -62l-8 20q129 45 129 116q0 50 -40 50q-16 0 -24.5 -9t-8.5 -21q0 -9 9 -25z" />
    <glyph glyph-name="Rcaron" unicode="&#x158;" horiz-adv-x="656" 
d="M99 26h113l-9 -26h-271l9 26h127l229 648h-121l9 26h276q84 0 124 -40.5t40 -100.5q0 -85 -57.5 -141t-145.5 -62q81 -27 81 -106q0 -31 -17 -87q-17 -55 -18 -81q0 -66 59 -66q25 0 46 19t26 49l24 -6q-7 -41 -32.5 -63.5t-63.5 -22.5q-41 0 -65.5 22.5t-24.5 67.5
q1 19 21 89q15 45 15 79q0 47 -33.5 73.5t-88.5 26.5h-138zM222 376h160q87 0 149.5 48.5t62.5 135.5q0 50 -32.5 82t-100.5 32h-133zM430 769l-90 125l22 15l79 -108l144 110l15 -21l-155 -121h-15z" />
    <glyph glyph-name="rcaron" unicode="&#x159;" horiz-adv-x="392" 
d="M373 336l-21 17q29 27 29 52q0 33 -38 33q-37 0 -96 -69q-104 -124 -141 -218l-60 -151h-31l170 432q-31 -4 -69 -4h-55l9 26h43q65 0 96 10l12 -11l-71 -180q33 63 84 118q32 37 57.5 54t53.5 17q31 0 48.5 -15.5t17.5 -41.5q0 -38 -38 -69zM269 545l-60 206l27 8
l51 -176l152 177l19 -19l-170 -196h-19z" />
    <glyph glyph-name="Sacute" unicode="&#x15a;" horiz-adv-x="603" 
d="M559 505h-28q1 15 1 34q0 62 -42 103.5t-112 41.5q-64 0 -109 -36.5t-45 -102.5q0 -13 2 -25t8 -23.5l10 -19.5t15.5 -19l17 -16.5t21 -16.5l21 -15t24 -16t23.5 -15q42 -27 61.5 -41t46.5 -40t38.5 -54.5t11.5 -63.5q0 -86 -59 -137t-153 -51q-194 0 -214 165l-55 -157
h-29l83 235h29q-5 -18 -5 -48q0 -71 45.5 -121t145.5 -50q80 0 130.5 44.5t50.5 119.5q0 31 -10.5 56t-34.5 47.5t-42 36t-55 36.5q-40 24 -61.5 39.5t-47.5 39.5t-37.5 51t-11.5 59q0 75 55 119t130 44q77 0 122 -38.5t54 -99.5l45 130h29zM572 962l20 -18l-152 -175
l-20 18z" />
    <glyph glyph-name="sacute" unicode="&#x15b;" horiz-adv-x="390" 
d="M348 307l-17 21q25 22 25 45q0 30 -26.5 47.5t-69.5 17.5q-42 0 -71 -20.5t-29 -56.5q0 -20 13.5 -42.5t23.5 -32.5l37 -37q42 -41 61.5 -70t19.5 -61q0 -58 -43.5 -92t-109.5 -34q-77 0 -113 33.5t-36 78.5q0 48 44 85l19 -19q-33 -30 -33 -66q0 -38 29 -63t90 -25
q54 0 88 26.5t34 75.5q0 27 -17 52t-53 59q-39 36 -61.5 66.5t-22.5 63.5q0 47 39 75t91 28q57 0 91.5 -26t34.5 -63q0 -38 -38 -66zM458 761l22 -16l-174 -200l-22 16z" />
    <glyph glyph-name="Scircumflex" unicode="&#x15c;" horiz-adv-x="603" 
d="M559 505h-28q1 15 1 34q0 62 -42 103.5t-112 41.5q-64 0 -109 -36.5t-45 -102.5q0 -13 2 -25t8 -23.5l10 -19.5t15.5 -19l17 -16.5t21 -16.5l21 -15t24 -16t23.5 -15q42 -27 61.5 -41t46.5 -40t38.5 -54.5t11.5 -63.5q0 -86 -59 -137t-153 -51q-194 0 -214 165l-55 -157
h-29l83 235h29q-5 -18 -5 -48q0 -71 45.5 -121t145.5 -50q80 0 130.5 44.5t50.5 119.5q0 31 -10.5 56t-34.5 47.5t-42 36t-55 36.5q-40 24 -61.5 39.5t-47.5 39.5t-37.5 51t-11.5 59q0 75 55 119t130 44q77 0 122 -38.5t54 -99.5l45 130h29zM547 771l-79 108l-144 -110
l-15 21l155 121h15l90 -125z" />
    <glyph glyph-name="scircumflex" unicode="&#x15d;" horiz-adv-x="390" 
d="M348 307l-17 21q25 22 25 45q0 30 -26.5 47.5t-69.5 17.5q-42 0 -71 -20.5t-29 -56.5q0 -20 13.5 -42.5t23.5 -32.5l37 -37q42 -41 61.5 -70t19.5 -61q0 -58 -43.5 -92t-109.5 -34q-77 0 -113 33.5t-36 78.5q0 48 44 85l19 -19q-33 -30 -33 -66q0 -38 29 -63t90 -25
q54 0 88 26.5t34 75.5q0 27 -17 52t-53 59q-39 36 -61.5 66.5t-22.5 63.5q0 47 39 75t91 28q57 0 91.5 -26t34.5 -63q0 -38 -38 -66zM415 545l-51 176l-152 -177l-19 19l170 196h19l60 -206z" />
    <glyph glyph-name="uni015E" unicode="&#x15e;" horiz-adv-x="603" 
d="M225 -238q-43 0 -87 21l13 21q34 -18 74 -18q39 0 60.5 15.5t21.5 39.5q0 44 -92 70l36 86q-140 26 -153 160l-55 -157h-29l83 235h29q-5 -18 -5 -48q0 -71 45.5 -121t145.5 -50q80 0 130.5 44.5t50.5 119.5q0 31 -10.5 56t-34.5 47.5t-42 36t-55 36.5q-40 24 -61.5 39.5
t-47.5 39.5t-37.5 51t-11.5 59q0 75 55 119t130 44q77 0 122 -38.5t54 -99.5l45 130h29l-69 -195h-28q1 15 1 34q0 62 -42 103.5t-112 41.5q-64 0 -109 -36.5t-45 -102.5q0 -13 2 -25t8 -23.5l10 -19.5t15.5 -19l17 -16.5t21 -16.5l21 -15t24 -16t23.5 -15q42 -27 61.5 -41
t46.5 -40t38.5 -54.5t11.5 -63.5q0 -86 -59 -137t-153 -51q-12 0 -36 2l-27 -69q88 -33 88 -84q0 -32 -28.5 -55.5t-83.5 -23.5z" />
    <glyph glyph-name="uni015F" unicode="&#x15f;" horiz-adv-x="390" 
d="M79 -238q-43 0 -87 21l13 21q34 -18 74 -18q39 0 60.5 15.5t21.5 39.5q0 44 -92 70l36 87q-47 12 -69.5 41.5t-22.5 64.5q0 48 44 85l19 -19q-33 -30 -33 -66q0 -38 29 -63t90 -25q54 0 88 26.5t34 75.5q0 27 -17 52t-53 59q-39 36 -61.5 66.5t-22.5 63.5q0 47 39 75
t91 28q57 0 91.5 -26t34.5 -63q0 -38 -38 -66l-17 21q25 22 25 45q0 30 -26.5 47.5t-69.5 17.5q-42 0 -71 -20.5t-29 -56.5q0 -20 13.5 -42.5t23.5 -32.5l37 -37q42 -41 61.5 -70t19.5 -61q0 -58 -43.5 -92t-109.5 -34q-10 0 -32 2l-27 -69q88 -33 88 -84q0 -32 -28.5 -55.5
t-83.5 -23.5z" />
    <glyph glyph-name="Scaron" unicode="&#x160;" horiz-adv-x="603" 
d="M559 505h-28q1 15 1 34q0 62 -42 103.5t-112 41.5q-64 0 -109 -36.5t-45 -102.5q0 -13 2 -25t8 -23.5l10 -19.5t15.5 -19l17 -16.5t21 -16.5l21 -15t24 -16t23.5 -15q42 -27 61.5 -41t46.5 -40t38.5 -54.5t11.5 -63.5q0 -86 -59 -137t-153 -51q-194 0 -214 165l-55 -157
h-29l83 235h29q-5 -18 -5 -48q0 -71 45.5 -121t145.5 -50q80 0 130.5 44.5t50.5 119.5q0 31 -10.5 56t-34.5 47.5t-42 36t-55 36.5q-40 24 -61.5 39.5t-47.5 39.5t-37.5 51t-11.5 59q0 75 55 119t130 44q77 0 122 -38.5t54 -99.5l45 130h29zM437 769l-90 125l22 15l79 -108
l144 110l15 -21l-155 -121h-15z" />
    <glyph glyph-name="scaron" unicode="&#x161;" horiz-adv-x="390" 
d="M348 307l-17 21q25 22 25 45q0 30 -26.5 47.5t-69.5 17.5q-42 0 -71 -20.5t-29 -56.5q0 -20 13.5 -42.5t23.5 -32.5l37 -37q42 -41 61.5 -70t19.5 -61q0 -58 -43.5 -92t-109.5 -34q-77 0 -113 33.5t-36 78.5q0 48 44 85l19 -19q-33 -30 -33 -66q0 -38 29 -63t90 -25
q54 0 88 26.5t34 75.5q0 27 -17 52t-53 59q-39 36 -61.5 66.5t-22.5 63.5q0 47 39 75t91 28q57 0 91.5 -26t34.5 -63q0 -38 -38 -66zM297 545l-60 206l27 8l51 -176l152 177l19 -19l-170 -196h-19z" />
    <glyph glyph-name="Tcommaaccent" unicode="&#x162;" horiz-adv-x="655" 
d="M495 674l-230 -648h132l-9 -26h-296l9 26h133l230 648h-241l-74 -207h-29l83 233h573l-83 -233h-29l74 207h-243zM175 -149l-21 -13q-15 18 -15 37q0 22 16 38t44 16q30 0 49 -17.5t19 -55.5q0 -37 -34.5 -74t-114.5 -62l-8 20q129 45 129 116q0 50 -40 50
q-16 0 -24.5 -9t-8.5 -21q0 -9 9 -25z" />
    <glyph glyph-name="tcommaaccent" unicode="&#x163;" horiz-adv-x="366" 
d="M226 454h156l-9 -26h-158l-131 -327q-8 -22 -8 -37q0 -48 58 -48q46 0 92 44.5t85 117.5l24 -11q-40 -82 -93 -128.5t-108 -46.5q-45 0 -66.5 20t-21.5 52q0 23 11 48l127 316h-121l9 26h123l37 93h31zM39 -149l-21 -13q-15 18 -15 37q0 22 16 38t44 16q30 0 49 -17.5
t19 -55.5q0 -37 -34.5 -74t-114.5 -62l-8 20q129 45 129 116q0 50 -40 50q-16 0 -24.5 -9t-8.5 -21q0 -9 9 -25z" />
    <glyph glyph-name="Tcaron" unicode="&#x164;" horiz-adv-x="655" 
d="M495 674l-230 -648h132l-9 -26h-296l9 26h133l230 648h-241l-74 -207h-29l83 233h573l-83 -233h-29l74 207h-243zM502 769l-90 125l22 15l79 -108l144 110l15 -21l-155 -121h-15z" />
    <glyph glyph-name="tcaron" unicode="&#x165;" horiz-adv-x="366" 
d="M226 454h156l-9 -26h-158l-131 -327q-8 -22 -8 -37q0 -48 58 -48q46 0 92 44.5t85 117.5l24 -11q-40 -82 -93 -128.5t-108 -46.5q-45 0 -66.5 20t-21.5 52q0 23 11 48l127 316h-121l9 26h123l37 93h31zM415 739l22 -13l-103 -187l-22 13z" />
    <glyph glyph-name="Tbar" unicode="&#x166;" horiz-adv-x="655" 
d="M397 26l-9 -26h-296l9 26h133l122 343h-169l9 26h169l99 279h-241l-74 -207h-29l83 233h573l-83 -233h-29l74 207h-243l-99 -279h171l-9 -26h-171l-122 -343h132z" />
    <glyph glyph-name="tbar" unicode="&#x167;" horiz-adv-x="366" 
d="M134 -8q-45 0 -66.5 20t-21.5 52q0 23 11 48l79 196h-117l9 26h118l38 94h-121l9 26h123l37 93h31l-37 -93h156l-9 -26h-158l-37 -94h160l-9 -26h-162l-83 -207q-8 -22 -8 -37q0 -48 58 -48q46 0 92 44.5t85 117.5l24 -11q-40 -82 -93 -128.5t-108 -46.5z" />
    <glyph glyph-name="Utilde" unicode="&#x168;" horiz-adv-x="754" 
d="M656 700h258l-9 -26h-119l-149 -420q-48 -134 -117 -198t-196 -64q-97 0 -155 42t-58 125q0 47 20 104l145 411h-122l9 26h271l-9 -26h-118l-149 -422q-17 -50 -17 -93q0 -72 50.5 -107.5t132.5 -35.5q100 0 159 46q76 55 127 203l145 409h-108zM699 876l22 -14
q-41 -70 -92 -70q-25 0 -69.5 24.5t-66.5 24.5q-39 0 -70 -56l-22 14q41 70 92 70q28 0 72.5 -24.5t63.5 -24.5q39 0 70 56z" />
    <glyph glyph-name="utilde" unicode="&#x169;" horiz-adv-x="555" 
d="M513 454l-148 -382q-7 -18 -7 -32q0 -21 32 -21q34 0 65 26.5t51 77.5l23 -9q-50 -119 -139 -119q-61 0 -61 43q0 17 7 34l36 91q-32 -44 -64 -80q-89 -91 -166 -91q-47 0 -70.5 23t-23.5 64q0 36 15 68l117 285q-31 -4 -70 -4h-55l9 26h43q65 0 96 10h21l-134 -328
q-12 -36 -12 -57q0 -63 64 -63q68 0 149 86q89 94 122 178l69 174h31zM500 670l22 -14q-41 -70 -92 -70q-25 0 -69.5 24.5t-66.5 24.5q-39 0 -70 -56l-22 14q41 70 92 70q28 0 72.5 -24.5t63.5 -24.5q39 0 70 56z" />
    <glyph glyph-name="Umacron" unicode="&#x16a;" horiz-adv-x="754" 
d="M656 700h258l-9 -26h-119l-149 -420q-48 -134 -117 -198t-196 -64q-97 0 -155 42t-58 125q0 47 20 104l145 411h-122l9 26h271l-9 -26h-118l-149 -422q-17 -50 -17 -93q0 -72 50.5 -107.5t132.5 -35.5q100 0 159 46q76 55 127 203l145 409h-108zM426 818h261l-9 -26h-261
z" />
    <glyph glyph-name="umacron" unicode="&#x16b;" horiz-adv-x="555" 
d="M513 454l-148 -382q-7 -18 -7 -32q0 -21 32 -21q34 0 65 26.5t51 77.5l23 -9q-50 -119 -139 -119q-61 0 -61 43q0 17 7 34l36 91q-32 -44 -64 -80q-89 -91 -166 -91q-47 0 -70.5 23t-23.5 64q0 36 15 68l117 285q-31 -4 -70 -4h-55l9 26h43q65 0 96 10h21l-134 -328
q-12 -36 -12 -57q0 -63 64 -63q68 0 149 86q89 94 122 178l69 174h31zM253 612h242l-9 -26h-242z" />
    <glyph glyph-name="Ubreve" unicode="&#x16c;" horiz-adv-x="754" 
d="M656 700h258l-9 -26h-119l-149 -420q-48 -134 -117 -198t-196 -64q-97 0 -155 42t-58 125q0 47 20 104l145 411h-122l9 26h271l-9 -26h-118l-149 -422q-17 -50 -17 -93q0 -72 50.5 -107.5t132.5 -35.5q100 0 159 46q76 55 127 203l145 409h-108zM458 894l26 3
q0 -55 15 -79.5t58 -24.5q77 0 125 104l27 -4q-28 -61 -64 -92.5t-88 -31.5q-57 0 -81 35t-18 90z" />
    <glyph glyph-name="ubreve" unicode="&#x16d;" horiz-adv-x="555" 
d="M513 454l-148 -382q-7 -18 -7 -32q0 -21 32 -21q34 0 65 26.5t51 77.5l23 -9q-50 -119 -139 -119q-61 0 -61 43q0 17 7 34l36 91q-32 -44 -64 -80q-89 -91 -166 -91q-47 0 -70.5 23t-23.5 64q0 36 15 68l117 285q-31 -4 -70 -4h-55l9 26h43q65 0 96 10h21l-134 -328
q-12 -36 -12 -57q0 -63 64 -63q68 0 149 86q89 94 122 178l69 174h31zM297 687q0 -77 62 -77q42 0 74.5 33.5t62.5 102.5l25 -8q-59 -152 -162 -152q-43 0 -67.5 26.5t-24.5 74.5q0 28 8 59h29q-7 -41 -7 -59z" />
    <glyph glyph-name="Uring" unicode="&#x16e;" horiz-adv-x="754" 
d="M656 700h258l-9 -26h-119l-149 -420q-48 -134 -117 -198t-196 -64q-97 0 -155 42t-58 125q0 47 20 104l145 411h-122l9 26h271l-9 -26h-118l-149 -422q-17 -50 -17 -93q0 -72 50.5 -107.5t132.5 -35.5q100 0 159 46q76 55 127 203l145 409h-108zM555 937q36 0 64.5 -25.5
t28.5 -68.5t-28.5 -68.5t-64.5 -25.5t-64.5 25.5t-28.5 68.5t28.5 68.5t64.5 25.5zM555 773q26 0 45 18t19 52t-19 52t-45 18t-45 -18t-19 -52t19 -52t45 -18z" />
    <glyph glyph-name="uring" unicode="&#x16f;" horiz-adv-x="555" 
d="M513 454l-148 -382q-7 -18 -7 -32q0 -21 32 -21q34 0 65 26.5t51 77.5l23 -9q-50 -119 -139 -119q-61 0 -61 43q0 17 7 34l36 91q-32 -44 -64 -80q-89 -91 -166 -91q-47 0 -70.5 23t-23.5 64q0 36 15 68l117 285q-31 -4 -70 -4h-55l9 26h43q65 0 96 10h21l-134 -328
q-12 -36 -12 -57q0 -63 64 -63q68 0 149 86q89 94 122 178l69 174h31zM376 720q36 0 64.5 -25.5t28.5 -68.5t-28.5 -68.5t-64.5 -25.5t-64.5 25.5t-28.5 68.5t28.5 68.5t64.5 25.5zM376 556q26 0 45 18t19 52t-19 52t-45 18t-45 -18t-19 -52t19 -52t45 -18z" />
    <glyph glyph-name="Uhungarumlaut" unicode="&#x170;" horiz-adv-x="754" 
d="M656 700h258l-9 -26h-119l-149 -420q-48 -134 -117 -198t-196 -64q-97 0 -155 42t-58 125q0 47 20 104l145 411h-122l9 26h271l-9 -26h-118l-149 -422q-17 -50 -17 -93q0 -72 50.5 -107.5t132.5 -35.5q100 0 159 46q76 55 127 203l145 409h-108zM721 960l22 -15
l-124 -177l-22 15zM582 960l22 -15l-124 -177l-22 15z" />
    <glyph glyph-name="uhungarumlaut" unicode="&#x171;" horiz-adv-x="555" 
d="M513 454l-148 -382q-7 -18 -7 -32q0 -21 32 -21q34 0 65 26.5t51 77.5l23 -9q-50 -119 -139 -119q-61 0 -61 43q0 17 7 34l36 91q-32 -44 -64 -80q-89 -91 -166 -91q-47 0 -70.5 23t-23.5 64q0 36 15 68l117 285q-31 -4 -70 -4h-55l9 26h43q65 0 96 10h21l-134 -328
q-12 -36 -12 -57q0 -63 64 -63q68 0 149 86q89 94 122 178l69 174h31zM535 771l22 -15l-140 -211l-22 15zM390 771l22 -15l-140 -211l-22 15z" />
    <glyph glyph-name="Uogonek" unicode="&#x172;" horiz-adv-x="754" 
d="M284 -324q-39 0 -62 22.5t-23 63.5q0 95 160 231q-11 -1 -35 -1q-97 0 -155 42t-58 125q0 47 20 104l145 411h-122l9 26h271l-9 -26h-118l-149 -422q-17 -50 -17 -93q0 -72 50.5 -107.5t132.5 -35.5q100 0 159 46q76 55 127 203l145 409h-108l9 26h258l-9 -26h-119
l-149 -420q-39 -112 -92.5 -174.5t-140.5 -79.5q-46 -40 -67.5 -61t-52 -54.5t-43 -63t-12.5 -59.5q0 -62 55 -62q52 0 87 77l23 -10q-41 -91 -110 -91z" />
    <glyph glyph-name="uogonek" unicode="&#x173;" horiz-adv-x="555" 
d="M390 -5q-61 0 -61 43q0 17 7 34l36 91q-32 -44 -64 -80q-89 -91 -166 -91q-47 0 -70.5 23t-23.5 64q0 36 15 68l117 285q-31 -4 -70 -4h-55l9 26h43q65 0 96 10h21l-134 -328q-12 -36 -12 -57q0 -63 64 -63q68 0 149 86q89 94 122 178l69 174h31l-148 -382q-7 -18 -7 -32
q0 -21 32 -21q34 0 65 26.5t51 77.5l23 -9q-26 -59 -63 -93l-30.5 -27l-30.5 -27.5l-27 -25.5t-27 -26.5l-22.5 -24.5t-21 -26l-16 -24.5t-13.5 -26t-7 -25.5t-3 -27q0 -62 55 -62q52 0 87 77l23 -10q-41 -91 -110 -91q-39 0 -62 22.5t-23 63.5q0 100 166 235q-4 -1 -14 -1z
" />
    <glyph glyph-name="Wcircumflex" unicode="&#x174;" horiz-adv-x="989" 
d="M275 674h-127l9 26h253l-9 -26h-96l-112 -617l400 505l20 112h-112l9 26h258l-9 -26h-117l-112 -616l485 616h-117l9 26h239l-9 -26h-87l-531 -673h-28l92 508l-401 -508h-28zM763 771l-79 108l-144 -110l-15 21l155 121h15l90 -125z" />
    <glyph glyph-name="wcircumflex" unicode="&#x175;" horiz-adv-x="811" 
d="M522 -8q-53 0 -85.5 32t-34.5 84v7q-67 -123 -176 -123q-57 0 -90.5 30.5t-33.5 83.5q0 28 13 56l92 203q12 26 12 43q0 29 -31 30q-39 -1 -77.5 -44t-60.5 -122l-26 6q23 87 69 135.5t97 48.5q28 -1 43.5 -16.5t15.5 -38.5q0 -22 -15 -55l-92 -202q-10 -28 -10 -44
q0 -46 26 -68.5t68 -22.5q36 0 67.5 16.5t55 47.5t40.5 62t34 73l101 244l27 -11l-103 -249q-20 -49 -20 -81q0 -47 25.5 -74t68.5 -27q66 0 119 50t79 120.5t26 140.5q0 73 -39 114l21 19q49 -51 49 -133q0 -46 -14.5 -100.5t-43 -108.5t-80.5 -90t-117 -36zM631 545
l-51 176l-152 -177l-19 19l170 196h19l60 -206z" />
    <glyph glyph-name="Ycircumflex" unicode="&#x176;" horiz-adv-x="637" 
d="M670 674h-96l9 26h211l-9 -26h-80l-317 -361l-103 -287h122l-9 -26h-267l9 26h114l106 295l-119 353h-94l9 26h221l-9 -26h-95l110 -328zM631 771l-79 108l-144 -110l-15 21l155 121h15l90 -125z" />
    <glyph glyph-name="ycircumflex" unicode="&#x177;" horiz-adv-x="528" 
d="M-38 -197l25 4q7 -56 61 -56q39 0 81 47q48 51 123 222q-23 216 -61 379q-9 39 -40 39q-77 0 -100 -149l-26 4q25 169 126 169q27 0 43 -11.5t24 -42.5q30 -121 56 -338l22 55q63 160 122 263q24 41 46 57.5t53 16.5q47 0 66 -50l-20 -14q-19 40 -47 40q-23 0 -38.5 -14
t-36.5 -51q-53 -90 -120 -259q-102 -256 -173 -335q-45 -52 -100 -52q-40 0 -61.5 22.5t-24.5 53.5zM441 545l-51 176l-152 -177l-19 19l170 196h19l60 -206z" />
    <glyph glyph-name="Ydieresis" unicode="&#x178;" horiz-adv-x="637" 
d="M670 674h-96l9 26h211l-9 -26h-80l-317 -361l-103 -287h122l-9 -26h-267l9 26h114l106 295l-119 353h-94l9 26h221l-9 -26h-95l110 -328zM598 792q-15 0 -26.5 10.5t-11.5 27.5t11.5 27.5t26.5 10.5t26.5 -10.5t11.5 -27.5t-11.5 -27.5t-26.5 -10.5zM402 792
q-15 0 -26.5 10.5t-11.5 27.5t11.5 27.5t26.5 10.5t26.5 -10.5t11.5 -27.5t-11.5 -27.5t-26.5 -10.5z" />
    <glyph glyph-name="Zacute" unicode="&#x179;" horiz-adv-x="618" 
d="M231 674l-57 -158h-29l67 184h476l-9 -21l-643 -653h425l66 185h29l-76 -211h-498l10 21l643 653h-404zM579 962l20 -18l-152 -175l-20 18z" />
    <glyph glyph-name="zacute" unicode="&#x17a;" horiz-adv-x="527" 
d="M430 125l16 22q56 -37 56 -91q0 -43 -26 -68t-76 -25q-47 0 -140 53q-4 2 -18 10t-20 10.5l-17.5 7.5t-21.5 6.5t-21 1.5q-67 0 -132 -65l-18 21l410 413q-48 -12 -116 -12q-79 0 -158 31l-37 -101l-28 -74l-25 10l32 89q39 107 39 108q110 -39 178 -39q106 0 154 24
l13 -19l-375 -379q33 19 70 19q9 0 17 -1t17 -3.5l14 -4t15 -6.5l13 -6.5t15 -8.5t15 -9q84 -52 125 -52q35 0 54.5 18t19.5 50q0 39 -44 70zM451 761l22 -16l-174 -200l-22 16z" />
    <glyph glyph-name="Zdotaccent" unicode="&#x17b;" horiz-adv-x="618" 
d="M231 674l-57 -158h-29l67 184h476l-9 -21l-643 -653h425l66 185h29l-76 -211h-498l10 21l643 653h-404zM445 792q-15 0 -26.5 10.5t-11.5 27.5t11.5 27.5t26.5 10.5t26.5 -10.5t11.5 -27.5t-11.5 -27.5t-26.5 -10.5z" />
    <glyph glyph-name="zdotaccent" unicode="&#x17c;" horiz-adv-x="527" 
d="M430 125l16 22q56 -37 56 -91q0 -43 -26 -68t-76 -25q-47 0 -140 53q-4 2 -18 10t-20 10.5l-17.5 7.5t-21.5 6.5t-21 1.5q-67 0 -132 -65l-18 21l410 413q-48 -12 -116 -12q-79 0 -158 31l-37 -101l-28 -74l-25 10l32 89q39 107 39 108q110 -39 178 -39q106 0 154 24
l13 -19l-375 -379q33 19 70 19q9 0 17 -1t17 -3.5l14 -4t15 -6.5l13 -6.5t15 -8.5t15 -9q84 -52 125 -52q35 0 54.5 18t19.5 50q0 39 -44 70zM312 586q-16 0 -28 11.5t-12 28.5t12 28.5t28 11.5t28 -11.5t12 -28.5t-12 -28.5t-28 -11.5z" />
    <glyph glyph-name="Zcaron" unicode="&#x17d;" horiz-adv-x="618" 
d="M231 674l-57 -158h-29l67 184h476l-9 -21l-643 -653h425l66 185h29l-76 -211h-498l10 21l643 653h-404zM444 769l-90 125l22 15l79 -108l144 110l15 -21l-155 -121h-15z" />
    <glyph glyph-name="zcaron" unicode="&#x17e;" horiz-adv-x="527" 
d="M430 125l16 22q56 -37 56 -91q0 -43 -26 -68t-76 -25q-47 0 -140 53q-4 2 -18 10t-20 10.5l-17.5 7.5t-21.5 6.5t-21 1.5q-67 0 -132 -65l-18 21l410 413q-48 -12 -116 -12q-79 0 -158 31l-37 -101l-28 -74l-25 10l32 89q39 107 39 108q110 -39 178 -39q106 0 154 24
l13 -19l-375 -379q33 19 70 19q9 0 17 -1t17 -3.5l14 -4t15 -6.5l13 -6.5t15 -8.5t15 -9q84 -52 125 -52q35 0 54.5 18t19.5 50q0 39 -44 70zM290 545l-60 206l27 8l51 -176l152 177l19 -19l-170 -196h-19z" />
    <glyph glyph-name="uni0192" unicode="&#x192;" horiz-adv-x="361" 
d="M228 340h136l-9 -26h-135l-65 -220q-27 -91 -61 -140.5t-96 -49.5q-33 0 -52.5 17t-19.5 46q0 32 27 55l22 -15q-20 -19 -20 -40q0 -18 12 -28.5t31 -10.5q21 0 39.5 10.5t29.5 23t23 38.5t16.5 40.5l14.5 46.5q3 11 5 16l63 211h-112l9 26h111l32 109q28 87 65.5 128.5
t98.5 41.5q41 0 66.5 -22t25.5 -57q0 -42 -42 -77l-19 19q31 27 31 58q0 26 -17.5 40.5t-44.5 14.5q-51 0 -82 -39.5t-53 -115.5z" />
    <glyph glyph-name="Aringacute" unicode="&#x1fa;" horiz-adv-x="678" 
d="M243 263h239l59 379zM476 26h119l-9 -26h-268l9 26h118l32 211h-255l-166 -211h102l-9 -26h-229l9 26h93l532 674h26zM598 937q36 0 64.5 -25.5t28.5 -68.5t-28.5 -68.5t-64.5 -25.5t-64.5 25.5t-28.5 68.5t28.5 68.5t64.5 25.5zM598 773q26 0 45 18t19 52t-19 52t-45 18
t-45 -18t-19 -52t19 -52t45 -18zM755 1172l20 -18l-152 -175l-20 18z" />
    <glyph glyph-name="aringacute" unicode="&#x1fb;" horiz-adv-x="545" 
d="M387 16q34 0 66.5 26.5t56.5 78.5l22 -10q-27 -60 -65 -89.5t-80 -29.5q-61 0 -61 75q0 12 1 19q-60 -94 -163 -94q-66 0 -100.5 41.5t-34.5 110.5q0 65 36 133t97 121q75 59 157 59q81 0 122 -48l22 53h29l-129 -326q-12 -36 -12 -69q0 -51 36 -51zM164 16
q59 0 106 40.5t66 90.5l95 236q-33 50 -112 50q-72 0 -135 -52q-55 -47 -89.5 -113t-34.5 -124q0 -59 27 -93.5t77 -34.5zM374 720q36 0 64.5 -25.5t28.5 -68.5t-28.5 -68.5t-64.5 -25.5t-64.5 25.5t-28.5 68.5t28.5 68.5t64.5 25.5zM374 556q26 0 45 18t19 52t-19 52
t-45 18t-45 -18t-19 -52t19 -52t45 -18zM516 972l20 -18l-152 -175l-20 18z" />
    <glyph glyph-name="AEacute" unicode="&#x1fc;" horiz-adv-x="1005" 
d="M533 349l116 327h-1l-299 -327h184zM154 26l-9 -26h-222l9 26h83l598 648h-89l9 26h525l-80 -222h-29l70 196h-340l-115 -325h191l41 115h28l-87 -242h-28l36 101h-191l-105 -297h397l65 187h29l-75 -213h-578l9 26h122l105 297h-198l-274 -297h103zM933 962l20 -18
l-152 -175l-20 18z" />
    <glyph glyph-name="aeacute" unicode="&#x1fd;" horiz-adv-x="763" 
d="M702 163l23 -9q-33 -76 -88 -119t-117 -43q-141 0 -152 156v15l-6 -16q-33 -81 -87.5 -118t-110.5 -37q-66 0 -100.5 41.5t-34.5 110.5q0 65 36 133t97 121q75 59 157 59q83 0 123 -49l22 54h28l-35 -90q88 90 175 90q53 0 82.5 -26.5t29.5 -62.5q0 -76 -100 -115
q-68 -27 -242 -42q-7 -24 -7 -54q0 -146 125 -146q53 0 103 40t79 107zM164 16q122 0 193 180l75 186q-32 51 -113 51q-71 0 -134 -52q-54 -46 -89.5 -113t-35.5 -124q0 -59 27 -93.5t77 -34.5zM632 438q-67 0 -132 -59t-91 -138q155 13 226 40q78 30 78 92q0 30 -21.5 47.5
t-59.5 17.5zM569 761l22 -16l-174 -200l-22 16z" />
    <glyph glyph-name="Oslashacute" unicode="&#x1fe;" horiz-adv-x="686" 
d="M112 258q0 -105 41 -164l432 546q-50 45 -124 45q-45 0 -89 -16q-113 -41 -186.5 -161t-73.5 -250zM305 16q45 0 89 15q111 41 185.5 162t74.5 249q0 114 -51 178l-432 -548q50 -56 134 -56zM305 -8q-93 0 -152 58l-68 -87l-21 18l71 90q-54 66 -54 187q0 138 80 263.5
t201 170.5q38 16 99 16q81 0 140 -48l59 75l21 -16l-61 -77q65 -72 65 -200q0 -138 -80 -264t-201 -170q-39 -16 -99 -16zM602 962l20 -18l-152 -175l-20 18z" />
    <glyph glyph-name="oslashacute" unicode="&#x1ff;" horiz-adv-x="501" 
d="M64 172q0 -66 32 -107l278 352q-30 21 -74 21q-57 0 -104 -28q-59 -35 -95.5 -103t-36.5 -135zM201 16q59 0 106 29q58 35 94 103t36 134q0 76 -43 119l-281 -355q35 -30 88 -30zM201 -8q-62 0 -104 33l-51 -64h-32l64 82q-45 49 -45 129q0 74 41.5 147t105.5 111
q50 32 120 32q52 0 90 -25l44 56h32l-56 -71q58 -50 58 -140q0 -75 -40.5 -147t-104.5 -110q-52 -33 -122 -33zM483 761l22 -16l-174 -200l-22 16z" />
    <glyph glyph-name="uni0218" unicode="&#x218;" horiz-adv-x="603" 
d="M559 505h-28q1 15 1 34q0 62 -42 103.5t-112 41.5q-64 0 -109 -36.5t-45 -102.5q0 -13 2 -25t8 -23.5l10 -19.5t15.5 -19l17 -16.5t21 -16.5l21 -15t24 -16t23.5 -15q42 -27 61.5 -41t46.5 -40t38.5 -54.5t11.5 -63.5q0 -86 -59 -137t-153 -51q-194 0 -214 165l-55 -157
h-29l83 235h29q-5 -18 -5 -48q0 -71 45.5 -121t145.5 -50q80 0 130.5 44.5t50.5 119.5q0 31 -10.5 56t-34.5 47.5t-42 36t-55 36.5q-40 24 -61.5 39.5t-47.5 39.5t-37.5 51t-11.5 59q0 75 55 119t130 44q77 0 122 -38.5t54 -99.5l45 130h29zM210 -149l-21 -13q-15 18 -15 37
q0 22 16 38t44 16q30 0 49 -17.5t19 -55.5q0 -37 -34.5 -74t-114.5 -62l-8 20q129 45 129 116q0 50 -40 50q-16 0 -24.5 -9t-8.5 -21q0 -9 9 -25z" />
    <glyph glyph-name="uni0219" unicode="&#x219;" horiz-adv-x="390" 
d="M348 307l-17 21q25 22 25 45q0 30 -26.5 47.5t-69.5 17.5q-42 0 -71 -20.5t-29 -56.5q0 -20 13.5 -42.5t23.5 -32.5l37 -37q42 -41 61.5 -70t19.5 -61q0 -58 -43.5 -92t-109.5 -34q-77 0 -113 33.5t-36 78.5q0 48 44 85l19 -19q-33 -30 -33 -66q0 -38 29 -63t90 -25
q54 0 88 26.5t34 75.5q0 27 -17 52t-53 59q-39 36 -61.5 66.5t-22.5 63.5q0 47 39 75t91 28q57 0 91.5 -26t34.5 -63q0 -38 -38 -66zM45 -149l-21 -13q-15 18 -15 37q0 22 16 38t44 16q30 0 49 -17.5t19 -55.5q0 -37 -34.5 -74t-114.5 -62l-8 20q129 45 129 116q0 50 -40 50
q-16 0 -24.5 -9t-8.5 -21q0 -9 9 -25z" />
    <glyph glyph-name="uni021A" unicode="&#x21a;" horiz-adv-x="655" 
d="M495 674l-230 -648h132l-9 -26h-296l9 26h133l230 648h-241l-74 -207h-29l83 233h573l-83 -233h-29l74 207h-243zM175 -149l-21 -13q-15 18 -15 37q0 22 16 38t44 16q30 0 49 -17.5t19 -55.5q0 -37 -34.5 -74t-114.5 -62l-8 20q129 45 129 116q0 50 -40 50
q-16 0 -24.5 -9t-8.5 -21q0 -9 9 -25z" />
    <glyph glyph-name="uni021B" unicode="&#x21b;" horiz-adv-x="366" 
d="M226 454h156l-9 -26h-158l-131 -327q-8 -22 -8 -37q0 -48 58 -48q46 0 92 44.5t85 117.5l24 -11q-40 -82 -93 -128.5t-108 -46.5q-45 0 -66.5 20t-21.5 52q0 23 11 48l127 316h-121l9 26h123l37 93h31zM39 -149l-21 -13q-15 18 -15 37q0 22 16 38t44 16q30 0 49 -17.5
t19 -55.5q0 -37 -34.5 -74t-114.5 -62l-8 20q129 45 129 116q0 50 -40 50q-16 0 -24.5 -9t-8.5 -21q0 -9 9 -25z" />
    <glyph glyph-name="uni0237" unicode="&#x237;" horiz-adv-x="241" 
d="M-144 -271q41 0 67.5 32t48.5 93l216 578q-31 -4 -71 -4h-55l9 26h43q65 0 96 10h21l-232 -621q-25 -67 -59 -102.5t-84 -35.5q-37 0 -56.5 21t-19.5 52q0 37 26 66l23 -15q-20 -23 -20 -51q0 -21 12.5 -35t34.5 -14z" />
    <glyph glyph-name="circumflex" unicode="&#x2c6;" 
d="M324 545l-51 176l-152 -177l-19 19l170 196h19l60 -206z" />
    <glyph glyph-name="caron" unicode="&#x2c7;" 
d="M181 545l-60 206l27 8l51 -176l152 177l19 -19l-170 -196h-19z" />
    <glyph glyph-name="breve" unicode="&#x2d8;" 
d="M148 687q0 -77 62 -77q42 0 74.5 33.5t62.5 102.5l25 -8q-59 -152 -162 -152q-43 0 -67.5 26.5t-24.5 74.5q0 28 8 59h29q-7 -41 -7 -59z" />
    <glyph glyph-name="dotaccent" unicode="&#x2d9;" 
d="M212 586q-16 0 -28 11.5t-12 28.5t12 28.5t28 11.5t28 -11.5t12 -28.5t-12 -28.5t-28 -11.5z" />
    <glyph glyph-name="ring" unicode="&#x2da;" 
d="M241 720q36 0 64.5 -25.5t28.5 -68.5t-28.5 -68.5t-64.5 -25.5t-64.5 25.5t-28.5 68.5t28.5 68.5t64.5 25.5zM241 556q26 0 45 18t19 52t-19 52t-45 18t-45 -18t-19 -52t19 -52t45 -18z" />
    <glyph glyph-name="ogonek" unicode="&#x2db;" 
d="M84 -300q52 0 87 77l23 -10q-41 -91 -110 -91q-39 0 -62 22.5t-23 63.5q0 95 168 238h37q-46 -40 -67.5 -61t-52 -54.5t-43 -63t-12.5 -59.5q0 -62 55 -62z" />
    <glyph glyph-name="tilde" unicode="&#x2dc;" 
d="M374 670l22 -14q-41 -70 -92 -70q-25 0 -69.5 24.5t-66.5 24.5q-39 0 -70 -56l-22 14q41 70 92 70q28 0 72.5 -24.5t63.5 -24.5q39 0 70 56z" />
    <glyph glyph-name="hungarumlaut" unicode="&#x2dd;" 
d="M397 771l22 -15l-140 -211l-22 15zM252 771l22 -15l-140 -211l-22 15z" />
    <glyph glyph-name="pi" unicode="&#x3c0;" horiz-adv-x="628" 
d="M17 31l23 20q24 -30 54 -30q34 0 49 35q27 58 75 347q-17 1 -42 1q-58 0 -84.5 -36.5t-30.5 -108.5l-28 4q7 82 38 125.5t106 43.5q39 0 163.5 -12.5t187.5 -12.5h51l9 87h30l-12 -115h-78q-20 0 -70 2q-28 -139 -28 -268q0 -49 9.5 -71t33.5 -22q51 0 70 129l29 -3
q-17 -154 -100 -154q-38 0 -56.5 26t-18.5 95q0 135 27 270q-87 6 -173 17q-50 -297 -79 -360q-26 -48 -77 -48q-49 0 -78 39z" />
    <glyph glyph-name="Wgrave" unicode="&#x1e80;" horiz-adv-x="989" 
d="M275 674h-127l9 26h253l-9 -26h-96l-112 -617l400 505l20 112h-112l9 26h258l-9 -26h-117l-112 -616l485 616h-117l9 26h239l-9 -26h-87l-531 -673h-28l92 508l-401 -508h-28zM577 953l26 11l72 -184l-26 -11z" />
    <glyph glyph-name="wgrave" unicode="&#x1e81;" horiz-adv-x="811" 
d="M522 -8q-53 0 -85.5 32t-34.5 84v7q-67 -123 -176 -123q-57 0 -90.5 30.5t-33.5 83.5q0 28 13 56l92 203q12 26 12 43q0 29 -31 30q-39 -1 -77.5 -44t-60.5 -122l-26 6q23 87 69 135.5t97 48.5q28 -1 43.5 -16.5t15.5 -38.5q0 -22 -15 -55l-92 -202q-10 -28 -10 -44
q0 -46 26 -68.5t68 -22.5q36 0 67.5 16.5t55 47.5t40.5 62t34 73l101 244l27 -11l-103 -249q-20 -49 -20 -81q0 -47 25.5 -74t68.5 -27q66 0 119 50t79 120.5t26 140.5q0 73 -39 114l21 19q49 -51 49 -133q0 -46 -14.5 -100.5t-43 -108.5t-80.5 -90t-117 -36zM467 751l26 13
l107 -206l-26 -13z" />
    <glyph glyph-name="Wacute" unicode="&#x1e82;" horiz-adv-x="989" 
d="M275 674h-127l9 26h253l-9 -26h-96l-112 -617l400 505l20 112h-112l9 26h258l-9 -26h-117l-112 -616l485 616h-117l9 26h239l-9 -26h-87l-531 -673h-28l92 508l-401 -508h-28zM773 962l20 -18l-152 -175l-20 18z" />
    <glyph glyph-name="wacute" unicode="&#x1e83;" horiz-adv-x="811" 
d="M522 -8q-53 0 -85.5 32t-34.5 84v7q-67 -123 -176 -123q-57 0 -90.5 30.5t-33.5 83.5q0 28 13 56l92 203q12 26 12 43q0 29 -31 30q-39 -1 -77.5 -44t-60.5 -122l-26 6q23 87 69 135.5t97 48.5q28 -1 43.5 -16.5t15.5 -38.5q0 -22 -15 -55l-92 -202q-10 -28 -10 -44
q0 -46 26 -68.5t68 -22.5q36 0 67.5 16.5t55 47.5t40.5 62t34 73l101 244l27 -11l-103 -249q-20 -49 -20 -81q0 -47 25.5 -74t68.5 -27q66 0 119 50t79 120.5t26 140.5q0 73 -39 114l21 19q49 -51 49 -133q0 -46 -14.5 -100.5t-43 -108.5t-80.5 -90t-117 -36zM674 761
l22 -16l-174 -200l-22 16z" />
    <glyph glyph-name="Wdieresis" unicode="&#x1e84;" horiz-adv-x="989" 
d="M275 674h-127l9 26h253l-9 -26h-96l-112 -617l400 505l20 112h-112l9 26h258l-9 -26h-117l-112 -616l485 616h-117l9 26h239l-9 -26h-87l-531 -673h-28l92 508l-401 -508h-28zM745 792q-15 0 -26.5 10.5t-11.5 27.5t11.5 27.5t26.5 10.5t26.5 -10.5t11.5 -27.5
t-11.5 -27.5t-26.5 -10.5zM549 792q-15 0 -26.5 10.5t-11.5 27.5t11.5 27.5t26.5 10.5t26.5 -10.5t11.5 -27.5t-11.5 -27.5t-26.5 -10.5z" />
    <glyph glyph-name="wdieresis" unicode="&#x1e85;" horiz-adv-x="811" 
d="M522 -8q-53 0 -85.5 32t-34.5 84v7q-67 -123 -176 -123q-57 0 -90.5 30.5t-33.5 83.5q0 28 13 56l92 203q12 26 12 43q0 29 -31 30q-39 -1 -77.5 -44t-60.5 -122l-26 6q23 87 69 135.5t97 48.5q28 -1 43.5 -16.5t15.5 -38.5q0 -22 -15 -55l-92 -202q-10 -28 -10 -44
q0 -46 26 -68.5t68 -22.5q36 0 67.5 16.5t55 47.5t40.5 62t34 73l101 244l27 -11l-103 -249q-20 -49 -20 -81q0 -47 25.5 -74t68.5 -27q66 0 119 50t79 120.5t26 140.5q0 73 -39 114l21 19q49 -51 49 -133q0 -46 -14.5 -100.5t-43 -108.5t-80.5 -90t-117 -36zM612 586
q-15 0 -26.5 10.5t-11.5 27.5t11.5 27.5t26.5 10.5t26.5 -10.5t11.5 -27.5t-11.5 -27.5t-26.5 -10.5zM456 586q-15 0 -26.5 10.5t-11.5 27.5t11.5 27.5t26.5 10.5t26.5 -10.5t11.5 -27.5t-11.5 -27.5t-26.5 -10.5z" />
    <glyph glyph-name="Ygrave" unicode="&#x1ef2;" horiz-adv-x="637" 
d="M670 674h-96l9 26h211l-9 -26h-80l-317 -361l-103 -287h122l-9 -26h-267l9 26h114l106 295l-119 353h-94l9 26h221l-9 -26h-95l110 -328zM429 953l26 11l72 -184l-26 -11z" />
    <glyph glyph-name="ygrave" unicode="&#x1ef3;" horiz-adv-x="528" 
d="M-38 -197l25 4q7 -56 61 -56q39 0 81 47q48 51 123 222q-23 216 -61 379q-9 39 -40 39q-77 0 -100 -149l-26 4q25 169 126 169q27 0 43 -11.5t24 -42.5q30 -121 56 -338l22 55q63 160 122 263q24 41 46 57.5t53 16.5q47 0 66 -50l-20 -14q-19 40 -47 40q-23 0 -38.5 -14
t-36.5 -51q-53 -90 -120 -259q-102 -256 -173 -335q-45 -52 -100 -52q-40 0 -61.5 22.5t-24.5 53.5zM237 751l26 13l107 -206l-26 -13z" />
    <glyph glyph-name="uni2009" unicode="&#x2009;" horiz-adv-x="80" 
 />
    <glyph glyph-name="endash" unicode="&#x2013;" horiz-adv-x="482" 
d="M443 231h-413l9 26h413z" />
    <glyph glyph-name="emdash" unicode="&#x2014;" horiz-adv-x="652" 
d="M613 231h-583l9 26h583z" />
    <glyph glyph-name="quoteleft" unicode="&#x2018;" horiz-adv-x="257" 
d="M265 538l22 13q18 -24 18 -48q0 -27 -21 -46t-57 -19t-58 23.5t-22 59.5q0 66 54.5 116t146.5 79l8 -21q-82 -25 -131 -70t-49 -104q0 -27 12.5 -43.5t38.5 -16.5q23 0 36.5 12t13.5 30q0 19 -12 35z" />
    <glyph glyph-name="quoteright" unicode="&#x2019;" horiz-adv-x="257" 
d="M231 607l-22 -13q-18 24 -18 48q0 27 21 46t57 19t58 -23.5t22 -59.5q0 -65 -55 -116.5t-146 -78.5l-8 21q82 25 131 69.5t49 104.5q0 27 -12.5 43.5t-38.5 16.5q-23 0 -36.5 -12t-13.5 -30t12 -35z" />
    <glyph glyph-name="quotesinglbase" unicode="&#x201a;" horiz-adv-x="257" 
d="M55 86q-23 0 -36.5 -12t-13.5 -30t12 -35l-22 -13q-18 24 -18 48q0 27 21 46t57 19t58 -23.5t22 -59.5q0 -65 -55 -116.5t-146 -78.5l-8 21q82 25 131 69.5t49 104.5q0 27 -12.5 43.5t-38.5 16.5z" />
    <glyph glyph-name="quotedblleft" unicode="&#x201c;" horiz-adv-x="472" 
d="M492 503q0 19 -12 35l22 13q18 -24 18 -48q0 -27 -21 -46t-57 -19t-58 23.5t-22 59.5q0 66 54.5 116t146.5 79l8 -21q-82 -25 -131 -70t-49 -104q0 -27 12.5 -43.5t38.5 -16.5q23 0 36.5 12t13.5 30zM265 538l22 13q18 -24 18 -48q0 -27 -21 -46t-57 -19t-58 23.5
t-22 59.5q0 66 54.5 116t146.5 79l8 -21q-82 -25 -131 -70t-49 -104q0 -27 12.5 -43.5t38.5 -16.5q23 0 36.5 12t13.5 30q0 19 -12 35z" />
    <glyph glyph-name="quotedblright" unicode="&#x201d;" horiz-adv-x="472" 
d="M446 607l-22 -13q-18 24 -18 48q0 27 21 46t57 19t58 -23.5t22 -59.5q0 -65 -55 -116.5t-146 -78.5l-8 21q82 25 131 69.5t49 104.5q0 27 -12.5 43.5t-38.5 16.5q-23 0 -36.5 -12t-13.5 -30t12 -35zM231 607l-22 -13q-18 24 -18 48q0 27 21 46t57 19t58 -23.5t22 -59.5
q0 -65 -55 -116.5t-146 -78.5l-8 21q82 25 131 69.5t49 104.5q0 27 -12.5 43.5t-38.5 16.5q-23 0 -36.5 -12t-13.5 -30t12 -35z" />
    <glyph glyph-name="quotedblbase" unicode="&#x201e;" horiz-adv-x="472" 
d="M232 9l-22 -13q-18 24 -18 48q0 27 21 46t57 19t58 -23.5t22 -59.5q0 -65 -55 -116.5t-146 -78.5l-8 21q82 25 131 69.5t49 104.5q0 27 -12.5 43.5t-38.5 16.5q-23 0 -36.5 -12t-13.5 -30t12 -35zM17 9l-22 -13q-18 24 -18 48q0 27 21 46t57 19t58 -23.5t22 -59.5
q0 -65 -55 -116.5t-146 -78.5l-8 21q82 25 131 69.5t49 104.5q0 27 -12.5 43.5t-38.5 16.5q-23 0 -36.5 -12t-13.5 -30t12 -35z" />
    <glyph glyph-name="dagger" unicode="&#x2020;" horiz-adv-x="494" 
d="M292 -237h-30v605h-206v26h206v314h30v-314h206v-26h-206v-605z" />
    <glyph glyph-name="daggerdbl" unicode="&#x2021;" horiz-adv-x="494" 
d="M498 102v-26h-206v-313h-30v313h-206v26h206v266h-206v26h206v314h30v-314h206v-26h-206v-266h206z" />
    <glyph glyph-name="bullet" unicode="&#x2022;" horiz-adv-x="302" 
d="M162 223q-28 0 -49.5 20t-21.5 51t21.5 51t49.5 20t49.5 -20t21.5 -51t-21.5 -51t-49.5 -20z" />
    <glyph glyph-name="ellipsis" unicode="&#x2026;" horiz-adv-x="572" 
d="M71 -8q-16 0 -28 11.5t-12 28.5t12 28.5t28 11.5t28 -11.5t12 -28.5t-12 -28.5t-28 -11.5zM253 -8q-16 0 -28 11.5t-12 28.5t12 28.5t28 11.5t28 -11.5t12 -28.5t-12 -28.5t-28 -11.5zM435 -8q-16 0 -28 11.5t-12 28.5t12 28.5t28 11.5t28 -11.5t12 -28.5t-12 -28.5
t-28 -11.5z" />
    <glyph glyph-name="perthousand" unicode="&#x2030;" horiz-adv-x="960" 
d="M16 -32l579 631l19 -16l-579 -631zM295 448q0 -61 -43.5 -112.5t-109.5 -51.5q-51 0 -79 30t-28 76q0 61 44 112.5t111 51.5q51 0 78 -30.5t27 -75.5zM266 448q0 36 -18.5 59.5t-57.5 23.5q-56 0 -91 -43.5t-35 -97.5q0 -37 19.5 -60t58.5 -23q54 0 89 43.5t35 97.5z
M654 104q0 61 44 112.5t111 51.5q51 0 78 -30.5t27 -75.5q0 -61 -43.5 -112.5t-109.5 -51.5q-51 0 -79 30t-28 76zM490 268q51 0 78 -30.5t27 -75.5q0 -61 -43.5 -112.5t-109.5 -51.5q-51 0 -79 30t-28 76q0 61 44 112.5t111 51.5zM683 104q0 -37 19.5 -60t58.5 -23
q54 0 89 43.5t35 97.5q0 36 -18.5 59.5t-57.5 23.5q-56 0 -91 -43.5t-35 -97.5zM442 21q54 0 89 43.5t35 97.5q0 36 -18.5 59.5t-57.5 23.5q-56 0 -91 -43.5t-35 -97.5q0 -37 19.5 -60t58.5 -23z" />
    <glyph glyph-name="uni2032" unicode="&#x2032;" horiz-adv-x="213" 
d="M275 700h31l-135 -231h-31z" />
    <glyph glyph-name="uni2033" unicode="&#x2033;" horiz-adv-x="329" 
d="M391 700h31l-135 -231h-31zM275 700h31l-135 -231h-31z" />
    <glyph glyph-name="guilsinglleft" unicode="&#x2039;" horiz-adv-x="212" 
d="M123 87l-92 152l3 14l161 146l18 -19l-151 -138l83 -139z" />
    <glyph glyph-name="guilsinglright" unicode="&#x203a;" horiz-adv-x="212" 
d="M89 402l92 -152l-3 -14l-161 -146l-18 19l151 138l-83 139z" />
    <glyph glyph-name="fraction" unicode="&#x2044;" horiz-adv-x="282" 
d="M-186 -5l699 725l19 -19l-699 -725z" />
    <glyph glyph-name="Euro" unicode="&#x20ac;" horiz-adv-x="642" 
d="M317 -8q-103 0 -162.5 63t-59.5 175v2h-95l9 26h87q5 62 19 103h-85l9 26h85q38 104 121.5 170.5t184.5 66.5q90 0 135 -62q27 -35 39 -95l61 157h29l-84 -212h-24q-17 188 -156 188q-91 0 -164.5 -59t-110.5 -154h271l-9 -26h-271q-14 -42 -19 -103h224l-9 -26h-216v-2
q0 -101 50.5 -157.5t140.5 -56.5q83 0 146 51.5t91 129.5l27 -7q-29 -87 -99.5 -142.5t-164.5 -55.5z" />
    <glyph glyph-name="trademark" unicode="&#x2122;" horiz-adv-x="881" 
d="M247 371v25h61v279h-112v-86h-30v111h315v-111h-30v86h-113v-279h61v-25h-152zM664 371h-138v25h60v279h-63v25h116l105 -273l106 273h116v-25h-63v-279h60v-25h-138v25h48v279h-3l-117 -303h-18l-116 303h-3v-279h48v-25z" />
    <glyph glyph-name="uni03A9" unicode="&#x2126;" horiz-adv-x="784" 
d="M372 708q133 0 227 -100.5t94 -252.5q0 -102 -57 -195t-148 -134h185v97h30v-123h-273v24q112 45 171 133.5t59 197.5q0 140 -84 232.5t-204 92.5t-204 -92.5t-84 -232.5q0 -109 59 -197.5t171 -133.5v-24h-273v123h30v-97h185q-91 41 -148 134.5t-57 194.5
q0 152 94 252.5t227 100.5z" />
    <glyph glyph-name="onethird" unicode="&#x2153;" horiz-adv-x="534" 
d="M195 332l9 26h83l110 306q-44 -17 -94 -18v25q60 4 111 27h27l-123 -340h82l-9 -26h-196zM499 225h-482l9 26h482zM150 -226q-49 0 -76.5 21t-27.5 53q0 28 30 53l18 -18q-18 -18 -18 -35q0 -23 20.5 -36.5t53.5 -13.5q64 0 104.5 30.5t40.5 67.5q0 28 -23 46.5t-69 18.5
h-24l9 26h15q52 0 91.5 27t39.5 63q0 50 -68 50q-31 0 -56.5 -14t-25.5 -38q0 -13 10 -27l-21 -15q-19 21 -19 42q0 31 34.5 53.5t77.5 22.5q48 0 73 -20t25 -54q0 -33 -26.5 -59.5t-65.5 -42.5q53 -26 53 -79q0 -44 -48.5 -83t-126.5 -39z" />
    <glyph glyph-name="twothirds" unicode="&#x2154;" horiz-adv-x="534" 
d="M132 332l5 20q156 102 179 119l40 29.5t33.5 29t32 38.5t9.5 37q0 61 -77 61q-41 0 -73.5 -20t-32.5 -58q0 -32 23 -32q16 0 30 10l12 -19q-21 -15 -42 -15q-24 0 -38.5 15t-14.5 41q0 45 41.5 73.5t94.5 28.5q52 0 79.5 -23.5t27.5 -61.5q0 -9 -2.5 -18.5t-5.5 -17
t-10 -17l-12 -16t-15 -16l-15.5 -15t-18 -15t-17 -13.5t-18 -14t-16.5 -12q-7 -6 -141 -93h182l45 87h28l-59 -113h-254zM499 225h-482l9 26h482zM150 -226q-49 0 -76.5 21t-27.5 53q0 28 30 53l18 -18q-18 -18 -18 -35q0 -23 20.5 -36.5t53.5 -13.5q64 0 104.5 30.5
t40.5 67.5q0 28 -23 46.5t-69 18.5h-24l9 26h15q52 0 91.5 27t39.5 63q0 50 -68 50q-31 0 -56.5 -14t-25.5 -38q0 -13 10 -27l-21 -15q-19 21 -19 42q0 31 34.5 53.5t77.5 22.5q48 0 73 -20t25 -54q0 -33 -26.5 -59.5t-65.5 -42.5q53 -26 53 -79q0 -44 -48.5 -83t-126.5 -39
z" />
    <glyph glyph-name="oneeighth" unicode="&#x215b;" horiz-adv-x="534" 
d="M196 358h83l110 306q-44 -17 -94 -18v25q60 4 111 27h27l-123 -340h82l-9 -26h-196zM26 251h482l-9 -26h-482zM146 -25q-43 20 -43 60q0 48 41 79t96 31q50 0 76.5 -22.5t26.5 -59.5t-29.5 -63t-73.5 -35q55 -19 55 -73q0 -47 -39 -78.5t-101 -31.5q-57 0 -87 26t-30 66
t29.5 66t78.5 35zM204 -20q43 0 76 22.5t33 60.5q0 58 -73 58q-43 0 -75 -24t-32 -62q0 -24 19.5 -39.5t51.5 -15.5zM68 -126q0 -31 23 -49.5t64 -18.5q49 0 79.5 23.5t30.5 62.5q0 30 -21 47.5t-61 17.5q-46 0 -80.5 -22.5t-34.5 -60.5z" />
    <glyph glyph-name="threeeighths" unicode="&#x215c;" horiz-adv-x="534" 
d="M253 321q-49 0 -76.5 21t-27.5 53q0 27 30 53l18 -18q-18 -18 -18 -35q0 -23 20.5 -36.5t53.5 -13.5q64 0 104.5 30.5t40.5 67.5q0 28 -23 46.5t-69 18.5h-24l9 26h15q52 0 91.5 27t39.5 63q0 50 -68 50q-31 0 -56.5 -14t-25.5 -38q0 -13 10 -27l-21 -15q-19 21 -19 42
q0 31 34.5 53.5t77.5 22.5q48 0 73 -20t25 -54q0 -33 -26.5 -59.5t-65.5 -42.5q53 -26 53 -79q0 -44 -48.5 -83t-126.5 -39zM499 225h-482l9 26h482zM154 -218q-57 0 -87 26t-30 66t29.5 66t78.5 35q-43 20 -43 60q0 48 41 79t96 31q50 0 76.5 -22.5t26.5 -59.5t-29.5 -63
t-73.5 -35q55 -19 55 -73q0 -47 -39 -78.5t-101 -31.5zM132 35q0 -24 19.5 -39.5t51.5 -15.5q43 0 76 22.5t33 60.5q0 58 -73 58q-43 0 -75 -24t-32 -62zM182 -43q-46 0 -80.5 -22.5t-34.5 -60.5q0 -31 23 -49.5t64 -18.5q49 0 79.5 23.5t30.5 62.5q0 30 -21 47.5t-61 17.5z
" />
    <glyph glyph-name="fiveeighths" unicode="&#x215d;" horiz-adv-x="534" 
d="M225 518l70 167h148l26 52h29l-39 -78h-148l-45 -110q26 14 63 14q51 0 75 -22.5t24 -58.5q0 -63 -53 -108.5t-124 -45.5q-44 0 -65 19.5t-21 48.5q0 38 40 60l17 -18q-27 -19 -27 -42q0 -45 56 -45q58 0 102.5 38t44.5 93q0 57 -69 57q-39 0 -76 -21h-28zM26 251h482
l-9 -26h-482zM145 -25q-43 20 -43 60q0 48 41 79t96 31q50 0 76.5 -22.5t26.5 -59.5t-29.5 -63t-73.5 -35q55 -19 55 -73q0 -47 -39 -78.5t-101 -31.5q-57 0 -87 26t-30 66t29.5 66t78.5 35zM203 -20q43 0 76 22.5t33 60.5q0 58 -73 58q-43 0 -75 -24t-32 -62
q0 -24 19.5 -39.5t51.5 -15.5zM67 -126q0 -31 23 -49.5t64 -18.5q49 0 79.5 23.5t30.5 62.5q0 30 -21 47.5t-61 17.5q-46 0 -80.5 -22.5t-34.5 -60.5z" />
    <glyph glyph-name="seveneighths" unicode="&#x215e;" horiz-adv-x="528" 
d="M217 331l257 327h-175l-40 -75h-29l51 101h241l-9 -21l-262 -332h-34zM26 251h482l-9 -26h-482zM102 35q0 48 41 79t96 31q50 0 76.5 -22.5t26.5 -59.5t-29.5 -63t-73.5 -35q55 -19 55 -73q0 -47 -39 -78.5t-101 -31.5q-57 0 -87 26t-30 66t29.5 66t78.5 35
q-43 20 -43 60zM312 63q0 58 -73 58q-43 0 -75 -24t-32 -62q0 -24 19.5 -39.5t51.5 -15.5q43 0 76 22.5t33 60.5zM154 -194q49 0 79.5 23.5t30.5 62.5q0 30 -21 47.5t-61 17.5q-46 0 -80.5 -22.5t-34.5 -60.5q0 -31 23 -49.5t64 -18.5z" />
    <glyph glyph-name="partialdiff" unicode="&#x2202;" horiz-adv-x="527" 
d="M255 -13q-109 0 -165 68t-56 157q0 101 61.5 171.5t167.5 70.5q98 0 166 -57q-31 132 -122.5 195t-251.5 86v26q75 -9 135 -26.5t115 -52t91.5 -83.5t58.5 -123t22 -169q0 -121 -54 -192t-168 -71zM255 15q97 0 143 64.5t46 170.5q0 58 -7 101q-69 75 -175 75
q-91 0 -143 -62.5t-52 -151.5q0 -78 47.5 -137.5t140.5 -59.5z" />
    <glyph glyph-name="uni0394" unicode="&#x2206;" horiz-adv-x="771" 
d="M16 0v20l337 677h24l338 -677v-20h-699zM52 27h627l-314 628z" />
    <glyph glyph-name="product" unicode="&#x220f;" horiz-adv-x="778" 
d="M56 674v26h706v-26h-121v-648h121v-26h-271v26h116v648h-396v-648h116v-26h-271v26h121v648h-121z" />
    <glyph glyph-name="summation" unicode="&#x2211;" horiz-adv-x="627" 
d="M578 520h-30v154h-456l224 -313v-12l-232 -323h469v157h30v-183h-540v17l241 338l-232 327v18h526v-180z" />
    <glyph glyph-name="minus" unicode="&#x2212;" horiz-adv-x="465" 
d="M34 259h383v-27h-383v27z" />
    <glyph glyph-name="radical" unicode="&#x221a;" horiz-adv-x="627" 
d="M321 -4l287 704h33l-306 -751h-24l-174 336l-97 -58l-13 25l123 73z" />
    <glyph glyph-name="infinity" unicode="&#x221e;" horiz-adv-x="506" 
d="M240 265q55 67 108 67q35 0 60 -24t25 -65q0 -40 -25 -64.5t-60 -24.5q-31 0 -54.5 15t-52.5 51q-54 -66 -107 -66q-35 0 -60 24.5t-25 64.5q0 41 25 65t60 24q29 0 52.5 -15t53.5 -52zM259 242q25 -31 45 -46.5t44 -15.5q23 0 38.5 17.5t15.5 45.5q0 30 -15.5 46.5
t-38.5 16.5q-38 0 -89 -64zM223 243q-50 63 -89 63q-23 0 -38.5 -16.5t-15.5 -46.5q0 -28 15.5 -45.5t38.5 -17.5q39 0 89 63z" />
    <glyph glyph-name="integral" unicode="&#x222b;" horiz-adv-x="425" 
d="M192 267q4 25 11.5 79.5t13 90t13 79t15.5 74.5t17 49q34 69 107 69q44 0 67 -21.5t23 -51.5q0 -37 -35 -63l-20 22q22 19 22 41q0 19 -14.5 32t-42.5 13q-52 0 -77 -56q-9 -18 -17 -48t-15 -72l-12.5 -76t-12.5 -87.5t-11 -78.5q-37 -241 -53 -298q-24 -82 -102 -82
q-56 0 -93 42l17 20q37 -34 76 -34q50 0 70 63q13 45 53 294z" />
    <glyph glyph-name="approxequal" unicode="&#x2248;" horiz-adv-x="405" 
d="M120 344q25 0 73 -21.5t68 -21.5q46 0 74 59l25 -11q-19 -43 -42.5 -60t-56.5 -17q-22 0 -69.5 21.5t-71.5 21.5q-47 0 -75 -59l-24 12q19 42 42.5 59t56.5 17zM120 218q25 0 73 -21.5t68 -21.5q46 0 74 59l25 -11q-19 -43 -42.5 -60t-56.5 -17q-22 0 -69.5 21.5
t-71.5 21.5q-47 0 -75 -59l-24 12q19 42 42.5 59t56.5 17z" />
    <glyph glyph-name="notequal" unicode="&#x2260;" horiz-adv-x="405" 
d="M126 61l-25 11l38 90h-110v27h122l47 111h-169v27h181l44 103l25 -11l-39 -92h112v-27h-124l-47 -111h171v-27h-183z" />
    <glyph glyph-name="lessequal" unicode="&#x2264;" horiz-adv-x="430" 
d="M354 81l-323 152v22l323 154v-32l-279 -133l279 -132v-31zM354 0h-323v26h323v-26z" />
    <glyph glyph-name="greaterequal" unicode="&#x2265;" horiz-adv-x="430" 
d="M36 81v31l279 132l-279 133v32l323 -154v-22zM359 26v-26h-323v26h323z" />
    <glyph glyph-name="lozenge" unicode="&#x25ca;" horiz-adv-x="466" 
d="M48 221l187 221l187 -221l-187 -221zM235 397l-148 -176l148 -175l148 175z" />
    <glyph glyph-name="A.swash" unicode="&#xe2e0;" horiz-adv-x="806" 
d="M409 342l-33 -62h177q63 224 232 394q-71 -14 -130.5 -47.5t-104.5 -82t-77 -95t-64 -107.5zM767 180l29 -4q-12 -81 -59 -132.5t-114 -51.5q-95 0 -95 121q0 67 18 141h-184q-139 -262 -300 -262q-56 0 -94 31t-38 84q0 46 26.5 74.5t63.5 28.5q47 0 81 -38l-18 -20
q-33 33 -63 33q-23 0 -41.5 -22t-18.5 -56q0 -45 30.5 -68t71.5 -23q111 0 215 154q35 52 107 187q35 66 69 115t86 101.5t122.5 86.5t156.5 45l12 -23q-127 -119 -199 -276t-72 -293q0 -97 64 -97q56 0 93.5 47t50.5 117z" />
    <glyph glyph-name="B.swash" unicode="&#xe2e1;" horiz-adv-x="711" 
d="M423 -8q-66 0 -93 27.5t-27 63.5q0 44 48 71l15 -18q-33 -24 -33 -53t22.5 -48t67.5 -19q77 0 130.5 49t53.5 125q0 80 -64 144q-87 -34 -192 -34h-21q-77 -170 -137 -239t-148 -69q-49 0 -74 25t-25 56q0 44 48 71l16 -19q-34 -24 -34 -52q0 -24 18 -40.5t51 -16.5
q41 0 73.5 16.5t63 56.5t56 87t62.5 127q-88 12 -88 71q0 31 29 51t85 20q13 0 37 -2q79 177 124 235q-33 6 -70 6q-122 0 -192 -35.5t-70 -88.5q0 -25 14 -41t36 -16q8 0 14.5 1.5t13 5t9.5 6l10 8.5t9 7l17 -18q-31 -34 -73 -34q-39 0 -59.5 23.5t-20.5 57.5
q0 61 76 104.5t216 43.5q47 0 88 -9q48 50 132 66l5 -24q-67 -13 -106 -49q75 -22 119.5 -68t44.5 -106q0 -55 -35 -99t-95 -73q68 -68 68 -156q0 -83 -60.5 -140.5t-154.5 -57.5zM669 518q0 55 -41.5 94.5t-110.5 58.5q-48 -60 -125 -232q89 -16 157 -73q120 56 120 152z
M341 324h10q91 0 171 30q-60 48 -141 62zM239 374q0 -39 72 -48l14.5 30.5l15.5 35t12 28.5q-9 1 -27 1q-87 0 -87 -47z" />
    <glyph glyph-name="C.swash" unicode="&#xe2e2;" horiz-adv-x="649" 
d="M451 506q0 61 63 88l13 -22q-46 -22 -46 -66q0 -30 22 -51.5t62 -21.5q45 0 76 34.5t31 82.5q0 54 -40 94t-130 40q-104 0 -198 -64t-150.5 -169t-56.5 -220q0 -106 60 -160.5t140 -54.5q92 0 149.5 53.5t57.5 137.5q0 63 -38 98t-96 35q-45 0 -76.5 -29t-31.5 -74
q0 -32 17.5 -51t44.5 -19t65 30l14 -19q-31 -35 -79 -35q-40 0 -66 25t-26 69q0 55 39 91t99 36q71 0 118 -42t47 -115q0 -92 -65 -153.5t-173 -61.5q-94 0 -162.5 60.5t-68.5 178.5q0 124 61.5 234.5t162.5 176.5t212 66q58 0 100 -15.5t62.5 -41t29.5 -50.5t9 -50
q0 -59 -40 -100.5t-98 -41.5q-56 0 -85 30.5t-29 66.5z" />
    <glyph glyph-name="D.swash" unicode="&#xe2e3;" horiz-adv-x="847" 
d="M448 388q-75 -207 -164 -299l31 -13q9 -3 40 -16.5t43 -18t36 -12t43.5 -10.5t40.5 -3q119 0 202 87.5t83 243.5q0 111 -49.5 187.5t-140.5 115.5q-100 -84 -165 -262zM738 755l11 -26q-63 -25 -115 -62q95 -43 147.5 -126t52.5 -194q0 -169 -92 -262t-224 -93
q-37 0 -79 10.5t-64 19t-75 31.5l-38 15q-87 -76 -206 -76q-53 0 -81 20t-28 57q0 35 30.5 58.5t87.5 23.5q70 0 192 -51q90 90 165 298q63 175 161 263q-72 23 -155 23q-141 0 -227.5 -70.5t-86.5 -166.5q0 -62 28 -95t66 -33q37 0 62.5 23.5t25.5 63.5q0 31 -26 66l22 16
q34 -38 34 -82q0 -48 -32.5 -79.5t-85.5 -31.5q-51 0 -88 39t-37 113q0 101 93.5 181t251.5 80q95 0 176 -29q55 45 134 76zM65 127q-40 0 -63.5 -16t-23.5 -42t22 -39.5t56 -13.5q101 0 178 63q-115 48 -169 48z" />
    <glyph glyph-name="E.swash" unicode="&#xe2e4;" horiz-adv-x="609" 
d="M321 367q54 0 54 34q0 39 -84 39q-36 0 -63 -7q23 -66 93 -66zM519 178q0 -75 -68.5 -130.5t-170.5 -55.5q-129 0 -195.5 61.5t-66.5 154.5q0 82 48 146.5t128 93.5q-4 15 -4 39q0 94 75 157.5t172 63.5q103 0 166 -52.5t63 -129.5q0 -46 -34.5 -80.5t-89.5 -34.5
q-40 0 -69.5 22t-29.5 60q0 29 24 59l24 -15q-18 -25 -18 -44q0 -29 21 -44t48 -15q43 0 68 28t25 65q0 69 -56 113t-142 44q-85 0 -151 -56.5t-66 -140.5q0 -13 2 -31q37 8 69 8q55 0 83.5 -17.5t28.5 -45.5q0 -25 -22 -41.5t-60 -16.5q-35 0 -69.5 20t-50.5 62
q-69 -25 -110.5 -82t-41.5 -134q0 -86 60.5 -139.5t170.5 -53.5q86 0 147 47t61 115q0 40 -23 62t-58 22q-31 0 -52 -19t-21 -51q0 -12 10 -42l-26 -10q-14 23 -14 52q0 40 28 66.5t75 26.5q49 0 80.5 -29.5t31.5 -77.5z" />
    <glyph glyph-name="F.swash" unicode="&#xe2e5;" horiz-adv-x="806" 
d="M114 -8q-57 0 -89.5 34.5t-32.5 73.5q0 45 29.5 73.5t74.5 34.5l5 -27q-78 -15 -78 -81q1 -39 26.5 -61.5t64.5 -22.5q83 0 144 74q52 65 141 262l38 84.5l37.5 83t33 67t37.5 63.5q-166 41 -234 41q-94 0 -154.5 -60t-60.5 -153q0 -53 28.5 -85t70.5 -32q34 0 58 22
t24 57q0 56 -64 71l8 26q86 -20 86 -97q0 -43 -30.5 -73t-81.5 -30q-58 0 -93.5 39t-35.5 102q0 103 68.5 170t177.5 67q29 0 56.5 -2.5t60.5 -8.5t49 -9.5t57 -13.5l49 -12q22 -5 75.5 -19.5t86 -21t60.5 -6.5q60 0 99.5 13.5t84.5 41.5l14 -20q-77 -61 -196 -61
q-59 0 -232 46q-45 -63 -136 -269q38 -10 98 -15q18 119 103 119q35 0 56 -17.5t21 -44.5q0 -38 -43 -60t-111 -22v-16q0 -63 28 -120l-24 -12q-32 67 -32 132v17q-55 4 -106 16l-5 -11q-90 -199 -147 -266q-66 -81 -164 -81zM566 357q122 0 122 58q0 38 -47 38
q-62 0 -75 -96z" />
    <glyph glyph-name="G.swash" unicode="&#xe2e6;" horiz-adv-x="739" 
d="M511 203q-61 0 -121 -176q71 16 115 52t44 81q0 17 -9.5 30t-28.5 13zM350 -104q-20 -68 -41.5 -117t-53 -94t-75.5 -68t-100 -23q-62 0 -99.5 33t-37.5 85q0 43 23.5 66.5t53.5 23.5q21 0 36.5 -10t22 -19.5t13.5 -26.5l-26 -11q-11 22 -20 32.5t-25 10.5
q-21 0 -34.5 -16.5t-13.5 -49.5q0 -43 32.5 -68.5t74.5 -25.5q40 0 74.5 17.5t58 43t45.5 67t35 75.5t28 83q6 18 14.5 48.5t12.5 42.5q-27 -3 -57 -3q-113 0 -170 60.5t-57 173.5q0 73 37.5 157t100.5 157t157.5 121t197.5 48q101 0 163.5 -54t62.5 -139q0 -86 -53 -135.5
t-115 -49.5q-53 0 -85.5 32t-32.5 76q0 48 32 82.5t83 42.5l7 -24q-39 -9 -65 -35.5t-26 -65.5q0 -36 24 -60t63 -24q50 0 93.5 44t43.5 117q0 76 -53.5 122.5t-141.5 46.5q-94 0 -182.5 -46.5t-148 -116t-95.5 -149t-36 -147.5q0 -99 50 -154.5t146 -55.5q28 0 66 5
q35 107 70.5 156.5t83.5 49.5q33 0 51 -20t18 -47q0 -53 -55.5 -97.5t-143.5 -62.5q-23 -81 -31 -104z" />
    <glyph glyph-name="H.swash" unicode="&#xe2e7;" horiz-adv-x="1041" 
d="M644 699q-41 0 -84 -81q38 -18 61 -18q28 0 46 16.5t18 45.5q0 37 -41 37zM275 571l19 21q46 -36 46 -83q0 -39 -31.5 -67.5t-80.5 -28.5q-58 0 -91 43.5t-33 103.5q0 68 50 118t130 50q79 0 168 -51l23 -13.5l31 -18t29 -15.5q28 47 52 70t57 23q32 0 50.5 -17.5
t18.5 -44.5q0 -35 -24.5 -60t-67.5 -25q-28 0 -73 20q-45 -83 -102 -224h262q21 46 41 84q67 127 129.5 188.5t142.5 61.5q67 0 98.5 -34.5t31.5 -78.5q0 -48 -30.5 -82t-79.5 -34q-33 0 -52.5 15.5t-34.5 48.5l26 13q13 -27 26.5 -40t34.5 -13q36 0 57.5 25.5t21.5 66.5
q0 37 -24.5 63t-74.5 26q-71 0 -127.5 -60.5t-118.5 -180.5q-118 -221 -118 -319q0 -102 86 -102q50 0 95 42.5t76 112.5l26 -12q-30 -75 -84.5 -123t-112.5 -48q-63 0 -90 37.5t-27 92.5q0 67 71 224h-262q-36 -86 -65.5 -143.5t-68 -109t-84.5 -76.5t-100 -25
q-62 0 -99.5 33t-37.5 85q0 43 23.5 66.5t53.5 23.5q48 0 70 -57l-25 -11l-13 23.5t-11.5 13t-19.5 7.5q-21 0 -34.5 -16.5t-13.5 -49.5q0 -43 32.5 -68.5t74.5 -25.5q39 0 75 19t63.5 48.5t57 78.5t50.5 94l49 110q67 166 110 242q-9 4 -84 45q-93 51 -154 51
q-69 0 -109.5 -42.5t-40.5 -100.5q0 -52 24 -88t70 -36q35 0 58.5 18.5t23.5 53.5q0 34 -35 62z" />
    <glyph glyph-name="I.swash" unicode="&#xe2e8;" horiz-adv-x="482" 
d="M96 151l-18 -18q-28 28 -45 28q-22 0 -36.5 -17t-14.5 -46q0 -43 32 -68t78 -25q101 0 175.5 80.5t117.5 214.5q37 118 89.5 227t88.5 163q-187 -20 -295 -97t-108 -158q0 -44 22.5 -68.5t56.5 -24.5q33 0 53 18.5t20 48.5q0 20 -8.5 32t-31.5 27l15 22q55 -31 55 -81
q0 -38 -28 -64.5t-75 -26.5q-46 0 -78 30t-32 87q0 94 122 180.5t346 103.5l9 -14q-28 -31 -90 -155.5t-104 -257.5q-104 -311 -320 -311q-64 0 -102.5 34.5t-38.5 82.5q0 38 24 62.5t58 24.5q33 0 63 -34z" />
    <glyph glyph-name="J.swash" unicode="&#xe2e9;" horiz-adv-x="345" 
d="M170 163l179 511h-133l9 26h258l-9 -26h-94l-182 -519q-56 -163 -167 -163q-43 0 -64 23.5t-21 54.5q0 41 38 68l17 -17q-26 -19 -26 -51q0 -22 14 -38t42 -16q49 0 80 35.5t59 111.5z" />
    <glyph glyph-name="K.swash" unicode="&#xe2ea;" horiz-adv-x="1041" 
d="M247 572l19 20q46 -36 46 -83q0 -39 -31.5 -67.5t-80.5 -28.5q-58 0 -91 43.5t-33 103.5q0 74 55 121t145 47q97 0 186 -51l23 -13.5l31 -18t29 -15.5q28 47 52 70t57 23q32 0 50.5 -17.5t18.5 -44.5q0 -35 -24.5 -60t-67.5 -25q-28 0 -73 20q-27 -50 -61 -125
q75 -19 112 -75q58 48 137 149q73 92 141 144t142 52q85 0 124.5 -44t39.5 -103q0 -60 -38 -109.5t-113 -49.5q-55 0 -84.5 28t-29.5 76q0 30 20 56.5t51 37.5l12 -24q-24 -8 -38.5 -28t-14.5 -42q0 -80 84 -80q61 0 90.5 41.5t29.5 93.5t-32 87.5t-101 35.5
q-67 0 -130 -51.5t-133 -140.5q-74 -92 -145 -153q14 -34 14 -76q0 -33 -12 -85.5t-12 -82.5q0 -50 20.5 -80t59.5 -30q51 0 90 54t58 138l27 -3q-19 -98 -64 -155.5t-111 -57.5q-51 0 -79.5 34.5t-28.5 99.5q0 33 12 85t12 83q0 34 -9 59q-70 -50 -158 -50h-13
q-66 -153 -136.5 -233t-163.5 -80q-62 0 -99.5 33t-37.5 85q0 43 23.5 66.5t53.5 23.5q48 0 70 -57l-25 -11l-13 23.5t-11.5 13t-19.5 7.5q-21 0 -34.5 -16.5t-13.5 -49.5q0 -43 32.5 -68.5t74.5 -25.5q43 0 82 22t72.5 64.5t60 91t56.5 115.5q-40 9 -59 31.5t-19 51.5
q0 34 32 59.5t92 25.5q16 0 24 -1q35 79 64 132q-9 4 -84 45q-93 51 -172 51q-80 0 -125 -39.5t-45 -103.5q0 -52 24 -88t70 -36q35 0 58.5 18.5t23.5 53.5q0 30 -35 63zM437 329h3q76 0 148 50q-33 55 -100 70zM654 699q-41 0 -84 -81q38 -18 61 -18q28 0 46 16.5t18 45.5
q0 37 -41 37zM349 392q0 -46 59 -60q9 24 28.5 70t21.5 51h-14q-44 0 -69.5 -17t-25.5 -44z" />
    <glyph glyph-name="L.swash" unicode="&#xe2eb;" horiz-adv-x="704" 
d="M531 547q-32 0 -50 -23.5t-18 -61.5q0 -44 27.5 -68t71.5 -24q65 0 102.5 44t37.5 104q0 68 -48.5 116t-130.5 48q-187 0 -265 -270q-54 -183 -109 -287q29 -12 113 -55q122 -62 194 -62q137 0 200 128l22 -11q-62 -141 -222 -141q-81 0 -209 64l-34 17l-41 20l-36 17
q-63 -108 -139 -108q-37 0 -58 19.5t-21 49.5q0 40 27 65.5t77 25.5q48 0 100 -18q55 102 107 284q82 286 294 286q89 0 149.5 -53.5t60.5 -134.5q0 -72 -45.5 -122t-125.5 -50q-58 0 -94 31.5t-36 84.5q0 46 27 77.5t72 31.5q46 0 69 -39l-19 -15q-22 30 -50 30zM22 130
q-33 0 -53.5 -17.5t-20.5 -49.5q0 -21 13.5 -32.5t35.5 -12.5q58 -1 112 94q-51 18 -87 18z" />
    <glyph glyph-name="M.swash" unicode="&#xe2ec;" horiz-adv-x="1127" 
d="M657 631q32 0 54 13.5t22 40.5q0 37 -46 37q-61 0 -106 -80q49 -11 76 -11zM456 359q-37 -88 -70 -151.5t-75 -119.5t-91.5 -85t-106.5 -29q-62 0 -99.5 33t-37.5 85q0 43 23.5 66.5t53.5 23.5q48 0 70 -57l-24 -11q-9 17 -13 23.5t-12.5 13.5t-19.5 7q-21 0 -34.5 -16.5
t-13.5 -49.5q0 -43 32.5 -68.5t74.5 -25.5q52 0 98.5 29.5t86.5 87.5t69 115t64 140q89 215 110 254q-72 19 -73 19q-12 3 -39 10.5l-44 12t-39.5 8.5t-38.5 4q-67 0 -105.5 -40t-38.5 -99q0 -56 28.5 -90.5t71.5 -34.5q35 0 54.5 21t19.5 46q0 15 -6 28.5t-11.5 20.5
t-19.5 23l22 19q46 -46 46 -91q0 -34 -28.5 -62.5t-76.5 -28.5q-53 0 -92 41.5t-39 106.5q0 69 50 117.5t125 48.5q15 0 30.5 -1.5t26 -3.5t30.5 -7t26.5 -6.5t31.5 -9.5t30 -9q4 -1 72 -19q53 98 133 98q37 0 55.5 -17t18.5 -45q0 -33 -28.5 -55t-75.5 -22q-25 0 -60 6
q3 -113 -7.5 -262.5t-32.5 -257.5l46.5 96.5t53.5 99.5t65.5 104.5t77 98t92.5 93t108 76t128 60.5l11 -25q-154 -104 -251 -264.5t-97 -302.5q0 -59 25.5 -94.5t74.5 -35.5q62 0 112.5 54.5t50.5 127.5q0 77 -58 77q-52 0 -80 -75l-25 8q29 91 105 91q40 0 64.5 -27
t24.5 -74q0 -82 -60.5 -144t-133.5 -62q-61 0 -96 42t-35 112q0 137 84 282.5t208 249.5q-70 -35 -133.5 -89t-106 -103t-90 -124.5t-70.5 -119l-62.5 -123.5l-51.5 -103l-29 8q30 98 47 290.5t14 320.5h-2q-16 -31 -33.5 -71.5l-45 -107z" />
    <glyph glyph-name="N.swash" unicode="&#xe2ed;" horiz-adv-x="1002" 
d="M1006 437l-10 25q109 41 109 128q0 39 -23 66.5t-71 27.5q-232 0 -348 -658q-2 -16 -2 -26h-31l2 13l3 22q1 3 0.5 15.5t-0.5 16.5q0 78 -29.5 209t-48 192l-53.5 169q-32 -184 -103 -356q-28 -68 -54.5 -115.5t-63.5 -91.5t-86 -66.5t-110 -22.5q-64 0 -106.5 40.5
t-42.5 109.5q0 54 36 91t87 37q50 0 95 -47l-17 -19q-40 42 -78 42q-37 0 -64.5 -30t-27.5 -74q0 -60 34 -93t84 -33q55 0 100 22.5t79.5 66.5t58 88t50.5 107q49 121 79.5 247.5t30.5 159.5h27q120 -329 147 -557q11 59 25.5 115.5t36 124t50 123t63.5 102.5t80.5 73.5
t96.5 26.5q64 0 94.5 -35.5t30.5 -82.5q0 -54 -37 -93.5t-93 -59.5z" />
    <glyph glyph-name="O.swash" unicode="&#xe2ee;" horiz-adv-x="690" 
d="M542 569q0 56 -30 85.5t-82 29.5q-37 0 -71 -13q-110 -41 -186 -164t-76 -249q0 -118 54 -180t144 -62q44 0 95 18q114 42 195 165t81 255q0 76 -29 132l24 13q36 -63 36 -145q0 -142 -87 -269.5t-209 -172.5q-58 -20 -106 -20q-101 0 -165 68.5t-64 197.5
q0 139 79.5 263t201.5 172q39 15 83 15q61 0 101.5 -38t40.5 -102q0 -63 -39 -106t-96 -43q-38 0 -64 17l11 22q28 -15 53 -15q47 0 76 35.5t29 90.5z" />
    <glyph glyph-name="P.swash" unicode="&#xe2ef;" horiz-adv-x="724" 
d="M494 385l12 -22q-19 -12 -26.5 -23t-7.5 -30q0 -24 21.5 -43.5t63.5 -19.5q79 0 129.5 61.5t50.5 145.5q1 82 -46.5 138.5t-133.5 78.5q-17 -21 -33 -46.5t-35.5 -64.5l-30.5 -62.5t-36 -81t-35 -78.5q-87 -194 -148.5 -270t-153.5 -76q-49 0 -74 25t-25 56
q0 21 13.5 41.5t33.5 31.5l16 -20q-33 -24 -33 -53q0 -24 18 -40.5t51 -16.5q30 0 55 8.5t48.5 29.5t42 44.5t42 67t42 82l47.5 103.5l33.5 76.5l35.5 79l29 60.5t34.5 64t32.5 47q-36 6 -76 6q-155 0 -255.5 -64.5t-100.5 -165.5q0 -50 26 -79.5t66 -29.5q39 0 62.5 20.5
t23.5 55.5q0 55 -55 71l8 23q77 -21 77 -94q0 -45 -31.5 -72.5t-84.5 -27.5q-52 0 -87.5 35.5t-35.5 97.5q0 107 108 180.5t279 73.5q51 0 94 -9q48 50 132 66l5 -24q-67 -13 -107 -49q91 -27 142 -88.5t51 -149.5q0 -95 -60 -163t-151 -68q-56 0 -85.5 27.5t-29.5 59.5
q0 51 52 75z" />
    <glyph glyph-name="Q.swash" unicode="&#xe2f0;" horiz-adv-x="649" 
d="M579 -275q-44 0 -102 27t-92.5 51t-95.5 70l-41 31t-44 32q-108 -50 -183 -50q-45 0 -70.5 19.5t-25.5 52.5t29.5 52t75.5 19q84 0 179 -64q152 75 248 159q168 146 168 349q0 98 -53 154.5t-144 56.5q-61 0 -123 -28.5t-111 -76.5t-79.5 -117.5t-30.5 -146.5
q0 -62 26 -98.5t80 -36.5q64 0 115 44t76.5 108.5t25.5 132.5q0 42 -3 58l27 3q4 -20 4 -61q0 -74 -28 -143.5t-85.5 -117.5t-131.5 -48q-66 0 -101.5 43.5t-35.5 115.5q0 85 33.5 160t87.5 125t120.5 79t132.5 29q104 0 166.5 -63t62.5 -172q0 -107 -43 -195.5t-134 -169.5
q-101 -89 -247 -159l75 -56l25 -18.5l27 -20l26 -19t28.5 -20l27.5 -17t29.5 -16.5l27 -13t28.5 -11.5t26 -6t27 -2.5q80 0 167 61l13 -20q-91 -65 -180 -65zM21 -90q60 0 158 42q-80 53 -149 53q-75 0 -75 -47q0 -24 18.5 -36t47.5 -12z" />
    <glyph glyph-name="R.swash" unicode="&#xe2f1;" horiz-adv-x="859" 
d="M633 678q-53 -64 -132 -240q87 -24 93 -138q86 25 135.5 78.5t49.5 124.5q0 131 -146 175zM405 291l58 129q-7 1 -18 1q-42 0 -67 -19t-25 -49q0 -46 52 -62zM491 415l-58 -130q22 -2 34 -2q57 0 98 10q0 102 -74 122zM467 260q-25 0 -44 3q-57 -119 -101 -173
q-76 -98 -177 -98q-49 0 -74 25t-25 56q0 21 13.5 41.5t33.5 31.5l16 -20q-33 -24 -33 -53q0 -24 18 -40.5t51 -16.5q88 0 154 87q45 58 96 167q-72 23 -72 83q0 39 33.5 65.5t88.5 26.5q10 0 28 -2q78 179 130 242q-44 10 -106 10q-178 0 -288 -74.5t-110 -177.5
q5 -102 75 -102q32 0 52.5 19.5t20.5 51.5q0 28 -13 51l26 12q17 -28 17 -63q0 -42 -28 -68.5t-75 -26.5t-75.5 31.5t-29.5 94.5q0 109 117 192.5t311 83.5q67 0 125 -13q49 46 125 59l5 -24q-62 -12 -100 -43q79 -26 118.5 -76.5t39.5 -118.5q0 -79 -59 -139.5t-158 -87.5
q-2 -19 -11.5 -68.5t-9.5 -81.5q0 -51 20 -80.5t61 -29.5q52 0 92 58t56 134l27 -3q-13 -85 -62.5 -149t-112.5 -64q-108 0 -108 134q0 32 9 79.5t10 63.5q-46 -9 -97 -9z" />
    <glyph glyph-name="S.swash" unicode="&#xe2f2;" horiz-adv-x="642" 
d="M409 350q36 -108 36 -161q0 -84 -63 -140t-168 -56q-102 0 -165 62.5t-63 153.5q0 79 50.5 133.5t130.5 54.5q62 0 99.5 -37t37.5 -97q0 -49 -30 -80.5t-69 -31.5q-32 0 -66 22l12 22q33 -20 54 -20q28 0 48 24t20 64q0 50 -28.5 80t-77.5 30q-68 0 -109 -46t-41 -118
q0 -81 54.5 -136.5t142.5 -55.5q90 0 145.5 47.5t55.5 124.5q0 59 -31 152q-3 8 -17 49t-20.5 67t-6.5 48q0 82 54 142.5t148 60.5q93 0 143.5 -54.5t50.5 -130.5q0 -75 -44.5 -118t-102.5 -43q-48 0 -81 31t-33 83q0 35 21.5 59.5t50.5 34.5l11 -24q-53 -22 -53 -70
q0 -42 23.5 -66t60.5 -24q47 0 81.5 36.5t34.5 100.5q0 68 -42 114.5t-121 46.5q-81 0 -126.5 -52.5t-45.5 -126.5q0 -14 2 -29t7 -33.5t8.5 -28.5l11.5 -34z" />
    <glyph glyph-name="T.swash" unicode="&#xe2f3;" horiz-adv-x="818" 
d="M365 715q29 0 56.5 -2.5t60.5 -8.5t49 -9.5t57 -13.5l49 -12q26 -6 76.5 -20t81.5 -20.5t54 -6.5q52 2 80 23t36 66l27 -5q-18 -110 -141 -110q-41 0 -207 42q-75 -95 -166 -299q-48 -107 -79.5 -166t-66.5 -100q-66 -81 -164 -81q-57 0 -89.5 34.5t-32.5 73.5
q0 45 29 73.5t74 34.5l6 -27q-78 -15 -78 -81q1 -39 26.5 -61.5t64.5 -22.5q86 0 144 74q52 65 141 262q96 207 161 294q-7 2 -47.5 12t-55.5 13l-46 9.5t-54.5 8.5t-46.5 2q-94 0 -154.5 -60t-60.5 -153q0 -53 28.5 -85t70.5 -32q34 0 58 22t24 57q0 56 -64 71l8 26
q86 -20 86 -97q0 -43 -30.5 -73t-81.5 -30q-58 0 -93.5 39t-35.5 102q0 103 68.5 170t177.5 67z" />
    <glyph glyph-name="U.swash" unicode="&#xe2f4;" horiz-adv-x="754" 
d="M656 700h258l-9 -26h-119l-149 -420q-48 -134 -117 -198t-196 -64q-97 0 -155 42t-58 125q0 47 20 104l145 411h-122l9 26h271l-9 -26h-118l-149 -422q-17 -50 -17 -93q0 -72 50.5 -107.5t132.5 -35.5q100 0 159 46q76 55 127 203l145 409h-108z" />
    <glyph glyph-name="V.swash" unicode="&#xe2f5;" horiz-adv-x="701" 
d="M113 -8q-31 0 -49 17.5t-18 42.5q0 21 11.5 38t27.5 28t45 21t50 15l57.5 13.5l54.5 12.5q50 77 79 132q39 75 56.5 123t17.5 102q0 65 -32.5 106t-98.5 41q-85 0 -140.5 -68t-55.5 -153q0 -48 22 -78t55 -30q40 0 61.5 28t21.5 71q0 40 -36 76l20 18q46 -40 46 -94
q0 -51 -30.5 -87t-82.5 -36q-46 0 -77 36.5t-31 95.5q0 92 65 168.5t162 76.5q80 0 120.5 -47.5t40.5 -123.5q0 -95 -82 -239q-42 -74 -65 -110q3 1 29.5 7.5l33 8t28.5 7.5t33.5 10.5l28.5 11.5t31 14q121 62 176 155t55 195q0 38 -14 62.5t-39 24.5q-33 0 -64 -60l-23 12
q32 72 87 72q38 0 60.5 -31t22.5 -80q0 -65 -23 -129.5t-82 -132.5t-148 -112q-67 -31 -210 -63q-7 -9 -26 -37t-28 -40t-28 -33.5t-34 -31.5t-36.5 -18t-44.5 -8zM113 16q30 0 59.5 20t48.5 44.5t52 71.5q-10 -2 -33 -7.5l-33 -8l-29.5 -7.5t-29 -8.5t-23.5 -9.5t-21 -11.5
t-14.5 -13t-10.5 -16t-3 -18.5q0 -15 10 -25.5t27 -10.5z" />
    <glyph glyph-name="W.swash" unicode="&#xe2f6;" horiz-adv-x="1037" 
d="M517 -8q-32 0 -51 16.5t-19 43.5q0 41 56.5 75.5t173.5 78.5q4 54 -1 154q-69 -56 -137 -92.5t-181 -72.5l-28 -51.5t-33.5 -52t-43 -51t-49.5 -33.5t-59 -15t-48 17t-18 43q0 76 148 125l113 37q44 80 60 111.5t34.5 88.5t18.5 108q0 74 -32 118t-102 44
q-87 0 -145.5 -66.5t-58.5 -150.5q0 -112 84 -112q41 0 65 28.5t24 75.5q0 40 -36 76l20 18q46 -40 46 -94q0 -56 -33.5 -92t-85.5 -36q-56 0 -85 36.5t-29 99.5q0 92 67 166.5t167 74.5q83 0 123.5 -50.5t40.5 -135.5q0 -43 -19 -100.5t-37 -93.5l-53 -103q106 35 171 71.5
t129 94.5q-3 135 -3 142q0 84 32.5 129.5t80.5 45.5q33 0 50.5 -21t17.5 -57q0 -55 -40.5 -120t-109.5 -127q6 -134 4 -166l48 18q340 130 340 364q0 38 -14 62.5t-39 24.5q-34 0 -65 -59l-22 11q32 72 87 72q38 0 60.5 -31t22.5 -80q0 -250 -361 -387l-28.5 -11l-31.5 -12
q-12 -77 -67.5 -137t-118.5 -60zM698 533q0 -63 3 -117q121 121 121 214q0 54 -38 54q-37 0 -61.5 -40.5t-24.5 -110.5zM145 16q29 0 56.5 15.5t51 45t37.5 51.5t33 56l-87 -29q-65 -23 -96.5 -46.5t-31.5 -56.5q0 -17 10.5 -26.5t26.5 -9.5zM517 16q53 0 99.5 49t56.5 113
q-98 -36 -147 -64.5t-49 -61.5q0 -16 11.5 -26t28.5 -10z" />
    <glyph glyph-name="X.swash" unicode="&#xe2f7;" horiz-adv-x="775" 
d="M717 195q0 -88 -61.5 -145.5t-152.5 -57.5q-78 0 -115.5 45.5t-37.5 123.5q0 37 17 95l-7 -14q-127 -250 -284 -250q-67 0 -103 34.5t-36 101.5q0 53 28.5 83t65.5 30q51 0 75 -53l-24 -14q-24 43 -52 43q-25 0 -43.5 -23.5t-18.5 -65.5q0 -55 29 -83.5t79 -28.5
q45 0 87 23.5t78.5 68t60 82t52.5 91.5q82 152 82 269q0 135 -103 135q-75 0 -129.5 -66t-54.5 -142q0 -91 67 -91q31 0 52 24t26 66l25 -3q-5 -53 -34.5 -82t-68.5 -29q-46 0 -72 30t-26 84q0 83 64 158t151 75q69 0 100.5 -43.5t31.5 -115.5q0 -42 -15 -92q3 3 4 6
q35 57 64 96.5t66.5 79t80 59.5t88.5 20q61 0 98 -33t37 -87q0 -43 -23.5 -66t-60.5 -23q-54 0 -72 52l24 11q17 -39 48 -39q24 0 38.5 17t14.5 48q0 45 -28 70.5t-76 25.5q-42 0 -80 -19t-75 -59t-61.5 -74.5t-62.5 -93.5q-51 -79 -73 -158t-22 -130q0 -64 30.5 -104.5
t93.5 -40.5q78 0 130.5 49t52.5 130q0 97 -65 97q-28 0 -51 -25t-29 -66l-27 4q8 54 38 82.5t69 28.5q44 0 70 -31.5t26 -89.5z" />
    <glyph glyph-name="Y.swash" unicode="&#xe2f8;" horiz-adv-x="938" 
d="M129 -256q-72 0 -113 30.5t-41 76.5q0 57 62 83l14 -25q-46 -20 -46 -58t34 -60.5t91 -22.5q137 0 244.5 93t195.5 300q-90 -110 -195 -110q-121 0 -121 108q0 39 25 89t74 126q4 6 15.5 24.5l16 25.5t14 23t13.5 24t10 21.5t9 23t5 21t2 22.5q0 57 -32.5 91t-104.5 34
q-82 0 -139.5 -60t-57.5 -128q0 -46 22 -69.5t57 -23.5q39 0 61.5 23.5t22.5 59.5q0 34 -30 48l11 23q49 -17 49 -71q0 -43 -31.5 -75t-82.5 -32q-48 0 -79 30t-31 87q0 73 67 142.5t161 69.5q87 0 126.5 -42t39.5 -107q0 -42 -23 -88.5t-68 -112.5q-92 -142 -92 -199
q0 -84 91 -84q71 0 140 61.5t90 121.5q38 108 63.5 172.5t55 124t56 89.5t59 47t72.5 17q64 0 97.5 -36t33.5 -95q0 -64 -38 -100.5t-87 -36.5q-61 0 -91 57l24 15q17 -24 31.5 -36t35.5 -12q38 0 66 30t28 83q0 107 -100 107q-36 0 -65.5 -17t-53.5 -48t-49 -85
t-49.5 -118.5l-57.5 -157.5q-3 -10 -5 -15q-97 -269 -218.5 -384t-283.5 -115z" />
    <glyph glyph-name="Z.swash" unicode="&#xe2f9;" horiz-adv-x="942" 
d="M751 586q40 0 62 16.5t22 45.5q0 18 -10 29.5t-27 11.5q-22 0 -40.5 -16t-55.5 -59q-8 -9 -12 -14q36 -14 61 -14zM699 -31q-24 0 -51.5 5t-49 11t-53 18.5t-46 19l-47.5 22t-39 18.5q-87 40 -136 55q-37 -43 -57 -63.5t-54.5 -41.5t-66.5 -21t-52.5 17t-20.5 46
q0 42 44 72.5t118 30.5q40 0 79 -10l380 443q-16 7 -48 24t-48 24q-92 43 -138 52q-25 5 -49 5q-81 0 -131.5 -42.5t-50.5 -106.5q0 -54 26 -83t65 -29t67 28t30 68l26 -1q-2 -49 -37 -84t-86 -35q-50 0 -86 35.5t-36 100.5q0 72 59 122.5t154 50.5q83 0 201 -57
q15 -7 48.5 -25t50.5 -26q50 58 77 79.5t57 21.5q29 0 48 -18t19 -47q0 -38 -29.5 -62t-84.5 -24q-34 0 -78 18l-106 -122l-163 -191l-108 -127q33 -10 131 -53q5 -2 57 -26.5t75.5 -34.5t65.5 -21.5t74 -11.5q69 0 109 42.5t40 127.5q0 61 -31 94t-75 33q-40 0 -69.5 -25
t-40.5 -71l-24 6q9 51 45 82.5t89 31.5q55 0 95.5 -40t40.5 -111q0 -91 -47 -142.5t-132 -51.5zM99 16q8 0 17 2t16 4.5t16 8l15 9t15.5 12.5l14 13t14.5 15t13.5 14.5t14.5 16t13 15.5q-37 8 -60 8q-59 0 -95.5 -21.5t-36.5 -57.5q0 -18 11.5 -28.5t31.5 -10.5z" />
    <glyph glyph-name="Aacute.swash" unicode="&#xe31a;" horiz-adv-x="806" 
d="M409 342l-33 -62h177q63 224 232 394q-71 -14 -130.5 -47.5t-104.5 -82t-77 -95t-64 -107.5zM767 180l29 -4q-12 -81 -59 -132.5t-114 -51.5q-95 0 -95 121q0 67 18 141h-184q-139 -262 -300 -262q-56 0 -94 31t-38 84q0 46 26.5 74.5t63.5 28.5q47 0 81 -38l-18 -20
q-33 33 -63 33q-23 0 -41.5 -22t-18.5 -56q0 -45 30.5 -68t71.5 -23q111 0 215 154q35 52 107 187q35 66 69 115t86 101.5t122.5 86.5t156.5 45l12 -23q-127 -119 -199 -276t-72 -293q0 -97 64 -97q56 0 93.5 47t50.5 117zM883 962l20 -18l-152 -175l-20 18z" />
    <glyph glyph-name="Acircumflex.swash" unicode="&#xe31b;" horiz-adv-x="806" 
d="M409 342l-33 -62h177q63 224 232 394q-71 -14 -130.5 -47.5t-104.5 -82t-77 -95t-64 -107.5zM767 180l29 -4q-12 -81 -59 -132.5t-114 -51.5q-95 0 -95 121q0 67 18 141h-184q-139 -262 -300 -262q-56 0 -94 31t-38 84q0 46 26.5 74.5t63.5 28.5q47 0 81 -38l-18 -20
q-33 33 -63 33q-23 0 -41.5 -22t-18.5 -56q0 -45 30.5 -68t71.5 -23q111 0 215 154q35 52 107 187q35 66 69 115t86 101.5t122.5 86.5t156.5 45l12 -23q-127 -119 -199 -276t-72 -293q0 -97 64 -97q56 0 93.5 47t50.5 117zM873 771l-79 108l-144 -110l-15 21l155 121h15
l90 -125z" />
    <glyph glyph-name="Adieresis.swash" unicode="&#xe31c;" horiz-adv-x="806" 
d="M409 342l-33 -62h177q63 224 232 394q-71 -14 -130.5 -47.5t-104.5 -82t-77 -95t-64 -107.5zM767 180l29 -4q-12 -81 -59 -132.5t-114 -51.5q-95 0 -95 121q0 67 18 141h-184q-139 -262 -300 -262q-56 0 -94 31t-38 84q0 46 26.5 74.5t63.5 28.5q47 0 81 -38l-18 -20
q-33 33 -63 33q-23 0 -41.5 -22t-18.5 -56q0 -45 30.5 -68t71.5 -23q111 0 215 154q35 52 107 187q35 66 69 115t86 101.5t122.5 86.5t156.5 45l12 -23q-127 -119 -199 -276t-72 -293q0 -97 64 -97q56 0 93.5 47t50.5 117zM855 792q-15 0 -26.5 10.5t-11.5 27.5t11.5 27.5
t26.5 10.5t26.5 -10.5t11.5 -27.5t-11.5 -27.5t-26.5 -10.5zM659 792q-15 0 -26.5 10.5t-11.5 27.5t11.5 27.5t26.5 10.5t26.5 -10.5t11.5 -27.5t-11.5 -27.5t-26.5 -10.5z" />
    <glyph glyph-name="Agrave.swash" unicode="&#xe31d;" horiz-adv-x="806" 
d="M409 342l-33 -62h177q63 224 232 394q-71 -14 -130.5 -47.5t-104.5 -82t-77 -95t-64 -107.5zM767 180l29 -4q-12 -81 -59 -132.5t-114 -51.5q-95 0 -95 121q0 67 18 141h-184q-139 -262 -300 -262q-56 0 -94 31t-38 84q0 46 26.5 74.5t63.5 28.5q47 0 81 -38l-18 -20
q-33 33 -63 33q-23 0 -41.5 -22t-18.5 -56q0 -45 30.5 -68t71.5 -23q111 0 215 154q35 52 107 187q35 66 69 115t86 101.5t122.5 86.5t156.5 45l12 -23q-127 -119 -199 -276t-72 -293q0 -97 64 -97q56 0 93.5 47t50.5 117zM707 953l26 11l72 -184l-26 -11z" />
    <glyph glyph-name="Aring.swash" unicode="&#xe31e;" horiz-adv-x="806" 
d="M409 342l-33 -62h177q63 224 232 394q-71 -14 -130.5 -47.5t-104.5 -82t-77 -95t-64 -107.5zM767 180l29 -4q-12 -81 -59 -132.5t-114 -51.5q-95 0 -95 121q0 67 18 141h-184q-139 -262 -300 -262q-56 0 -94 31t-38 84q0 46 26.5 74.5t63.5 28.5q47 0 81 -38l-18 -20
q-33 33 -63 33q-23 0 -41.5 -22t-18.5 -56q0 -45 30.5 -68t71.5 -23q111 0 215 154q35 52 107 187q35 66 69 115t86 101.5t122.5 86.5t156.5 45l12 -23q-127 -119 -199 -276t-72 -293q0 -97 64 -97q56 0 93.5 47t50.5 117zM761 937q36 0 64.5 -25.5t28.5 -68.5t-28.5 -68.5
t-64.5 -25.5t-64.5 25.5t-28.5 68.5t28.5 68.5t64.5 25.5zM761 773q26 0 45 18t19 52t-19 52t-45 18t-45 -18t-19 -52t19 -52t45 -18z" />
    <glyph glyph-name="Atilde.swash" unicode="&#xe31f;" horiz-adv-x="806" 
d="M409 342l-33 -62h177q63 224 232 394q-71 -14 -130.5 -47.5t-104.5 -82t-77 -95t-64 -107.5zM767 180l29 -4q-12 -81 -59 -132.5t-114 -51.5q-95 0 -95 121q0 67 18 141h-184q-139 -262 -300 -262q-56 0 -94 31t-38 84q0 46 26.5 74.5t63.5 28.5q47 0 81 -38l-18 -20
q-33 33 -63 33q-23 0 -41.5 -22t-18.5 -56q0 -45 30.5 -68t71.5 -23q111 0 215 154q35 52 107 187q35 66 69 115t86 101.5t122.5 86.5t156.5 45l12 -23q-127 -119 -199 -276t-72 -293q0 -97 64 -97q56 0 93.5 47t50.5 117zM904 876l22 -14q-41 -70 -92 -70q-25 0 -69.5 24.5
t-66.5 24.5q-39 0 -70 -56l-22 14q41 70 92 70q28 0 72.5 -24.5t63.5 -24.5q39 0 70 56z" />
    <glyph glyph-name="Ccedilla.swash" unicode="&#xe320;" horiz-adv-x="649" 
d="M206 -238q-43 0 -87 21l13 21q34 -18 74 -18q39 0 60.5 15.5t21.5 39.5q0 44 -92 70l37 89q-73 18 -120 76.5t-47 154.5q0 124 61.5 234.5t162.5 176.5t212 66q58 0 100 -15.5t62.5 -41t29.5 -50.5t9 -50q0 -59 -40 -100.5t-98 -41.5q-56 0 -85 30.5t-29 66.5q0 61 63 88
l13 -22q-46 -22 -46 -66q0 -30 22 -51.5t62 -21.5q45 0 76 34.5t31 82.5q0 54 -40 94t-130 40q-104 0 -198 -64t-150.5 -169t-56.5 -220q0 -106 60 -160.5t140 -54.5q92 0 149.5 53.5t57.5 137.5q0 63 -38 98t-96 35q-45 0 -76.5 -29t-31.5 -74q0 -32 17.5 -51t44.5 -19
t65 30l14 -19q-31 -35 -79 -35q-40 0 -66 25t-26 69q0 55 39 91t99 36q71 0 118 -42t47 -115q0 -92 -65 -153.5t-173 -61.5q-19 0 -39 3l-28 -70q88 -33 88 -84q0 -32 -28.5 -55.5t-83.5 -23.5z" />
    <glyph glyph-name="Eacute.swash" unicode="&#xe321;" horiz-adv-x="609" 
d="M321 367q54 0 54 34q0 39 -84 39q-36 0 -63 -7q23 -66 93 -66zM519 178q0 -75 -68.5 -130.5t-170.5 -55.5q-129 0 -195.5 61.5t-66.5 154.5q0 82 48 146.5t128 93.5q-4 15 -4 39q0 94 75 157.5t172 63.5q103 0 166 -52.5t63 -129.5q0 -46 -34.5 -80.5t-89.5 -34.5
q-40 0 -69.5 22t-29.5 60q0 29 24 59l24 -15q-18 -25 -18 -44q0 -29 21 -44t48 -15q43 0 68 28t25 65q0 69 -56 113t-142 44q-85 0 -151 -56.5t-66 -140.5q0 -13 2 -31q37 8 69 8q55 0 83.5 -17.5t28.5 -45.5q0 -25 -22 -41.5t-60 -16.5q-35 0 -69.5 20t-50.5 62
q-69 -25 -110.5 -82t-41.5 -134q0 -86 60.5 -139.5t170.5 -53.5q86 0 147 47t61 115q0 40 -23 62t-58 22q-31 0 -52 -19t-21 -51q0 -12 10 -42l-26 -10q-14 23 -14 52q0 40 28 66.5t75 26.5q49 0 80.5 -29.5t31.5 -77.5zM602 962l20 -18l-152 -175l-20 18z" />
    <glyph glyph-name="Ecircumflex.swash" unicode="&#xe322;" horiz-adv-x="609" 
d="M321 367q54 0 54 34q0 39 -84 39q-36 0 -63 -7q23 -66 93 -66zM519 178q0 -75 -68.5 -130.5t-170.5 -55.5q-129 0 -195.5 61.5t-66.5 154.5q0 82 48 146.5t128 93.5q-4 15 -4 39q0 94 75 157.5t172 63.5q103 0 166 -52.5t63 -129.5q0 -46 -34.5 -80.5t-89.5 -34.5
q-40 0 -69.5 22t-29.5 60q0 29 24 59l24 -15q-18 -25 -18 -44q0 -29 21 -44t48 -15q43 0 68 28t25 65q0 69 -56 113t-142 44q-85 0 -151 -56.5t-66 -140.5q0 -13 2 -31q37 8 69 8q55 0 83.5 -17.5t28.5 -45.5q0 -25 -22 -41.5t-60 -16.5q-35 0 -69.5 20t-50.5 62
q-69 -25 -110.5 -82t-41.5 -134q0 -86 60.5 -139.5t170.5 -53.5q86 0 147 47t61 115q0 40 -23 62t-58 22q-31 0 -52 -19t-21 -51q0 -12 10 -42l-26 -10q-14 23 -14 52q0 40 28 66.5t75 26.5q49 0 80.5 -29.5t31.5 -77.5zM592 771l-79 108l-144 -110l-15 21l155 121h15
l90 -125z" />
    <glyph glyph-name="Edieresis.swash" unicode="&#xe323;" horiz-adv-x="609" 
d="M321 367q54 0 54 34q0 39 -84 39q-36 0 -63 -7q23 -66 93 -66zM519 178q0 -75 -68.5 -130.5t-170.5 -55.5q-129 0 -195.5 61.5t-66.5 154.5q0 82 48 146.5t128 93.5q-4 15 -4 39q0 94 75 157.5t172 63.5q103 0 166 -52.5t63 -129.5q0 -46 -34.5 -80.5t-89.5 -34.5
q-40 0 -69.5 22t-29.5 60q0 29 24 59l24 -15q-18 -25 -18 -44q0 -29 21 -44t48 -15q43 0 68 28t25 65q0 69 -56 113t-142 44q-85 0 -151 -56.5t-66 -140.5q0 -13 2 -31q37 8 69 8q55 0 83.5 -17.5t28.5 -45.5q0 -25 -22 -41.5t-60 -16.5q-35 0 -69.5 20t-50.5 62
q-69 -25 -110.5 -82t-41.5 -134q0 -86 60.5 -139.5t170.5 -53.5q86 0 147 47t61 115q0 40 -23 62t-58 22q-31 0 -52 -19t-21 -51q0 -12 10 -42l-26 -10q-14 23 -14 52q0 40 28 66.5t75 26.5q49 0 80.5 -29.5t31.5 -77.5zM574 792q-15 0 -26.5 10.5t-11.5 27.5t11.5 27.5
t26.5 10.5t26.5 -10.5t11.5 -27.5t-11.5 -27.5t-26.5 -10.5zM378 792q-15 0 -26.5 10.5t-11.5 27.5t11.5 27.5t26.5 10.5t26.5 -10.5t11.5 -27.5t-11.5 -27.5t-26.5 -10.5z" />
    <glyph glyph-name="Egrave.swash" unicode="&#xe324;" horiz-adv-x="609" 
d="M321 367q54 0 54 34q0 39 -84 39q-36 0 -63 -7q23 -66 93 -66zM519 178q0 -75 -68.5 -130.5t-170.5 -55.5q-129 0 -195.5 61.5t-66.5 154.5q0 82 48 146.5t128 93.5q-4 15 -4 39q0 94 75 157.5t172 63.5q103 0 166 -52.5t63 -129.5q0 -46 -34.5 -80.5t-89.5 -34.5
q-40 0 -69.5 22t-29.5 60q0 29 24 59l24 -15q-18 -25 -18 -44q0 -29 21 -44t48 -15q43 0 68 28t25 65q0 69 -56 113t-142 44q-85 0 -151 -56.5t-66 -140.5q0 -13 2 -31q37 8 69 8q55 0 83.5 -17.5t28.5 -45.5q0 -25 -22 -41.5t-60 -16.5q-35 0 -69.5 20t-50.5 62
q-69 -25 -110.5 -82t-41.5 -134q0 -86 60.5 -139.5t170.5 -53.5q86 0 147 47t61 115q0 40 -23 62t-58 22q-31 0 -52 -19t-21 -51q0 -12 10 -42l-26 -10q-14 23 -14 52q0 40 28 66.5t75 26.5q49 0 80.5 -29.5t31.5 -77.5zM406 953l26 11l72 -184l-26 -11z" />
    <glyph glyph-name="Iacute.swash" unicode="&#xe325;" horiz-adv-x="482" 
d="M96 151l-18 -18q-28 28 -45 28q-22 0 -36.5 -17t-14.5 -46q0 -43 32 -68t78 -25q101 0 175.5 80.5t117.5 214.5q37 118 89.5 227t88.5 163q-187 -20 -295 -97t-108 -158q0 -44 22.5 -68.5t56.5 -24.5q33 0 53 18.5t20 48.5q0 20 -8.5 32t-31.5 27l15 22q55 -31 55 -81
q0 -38 -28 -64.5t-75 -26.5q-46 0 -78 30t-32 87q0 94 122 180.5t346 103.5l9 -14q-28 -31 -90 -155.5t-104 -257.5q-104 -311 -320 -311q-64 0 -102.5 34.5t-38.5 82.5q0 38 24 62.5t58 24.5q33 0 63 -34zM642 962l20 -18l-152 -175l-20 18z" />
    <glyph glyph-name="Icircumflex.swash" unicode="&#xe326;" horiz-adv-x="482" 
d="M96 151l-18 -18q-28 28 -45 28q-22 0 -36.5 -17t-14.5 -46q0 -43 32 -68t78 -25q101 0 175.5 80.5t117.5 214.5q37 118 89.5 227t88.5 163q-187 -20 -295 -97t-108 -158q0 -44 22.5 -68.5t56.5 -24.5q33 0 53 18.5t20 48.5q0 20 -8.5 32t-31.5 27l15 22q55 -31 55 -81
q0 -38 -28 -64.5t-75 -26.5q-46 0 -78 30t-32 87q0 94 122 180.5t346 103.5l9 -14q-28 -31 -90 -155.5t-104 -257.5q-104 -311 -320 -311q-64 0 -102.5 34.5t-38.5 82.5q0 38 24 62.5t58 24.5q33 0 63 -34zM632 771l-79 108l-144 -110l-15 21l155 121h15l90 -125z" />
    <glyph glyph-name="Idieresis.swash" unicode="&#xe327;" horiz-adv-x="482" 
d="M96 151l-18 -18q-28 28 -45 28q-22 0 -36.5 -17t-14.5 -46q0 -43 32 -68t78 -25q101 0 175.5 80.5t117.5 214.5q37 118 89.5 227t88.5 163q-187 -20 -295 -97t-108 -158q0 -44 22.5 -68.5t56.5 -24.5q33 0 53 18.5t20 48.5q0 20 -8.5 32t-31.5 27l15 22q55 -31 55 -81
q0 -38 -28 -64.5t-75 -26.5q-46 0 -78 30t-32 87q0 94 122 180.5t346 103.5l9 -14q-28 -31 -90 -155.5t-104 -257.5q-104 -311 -320 -311q-64 0 -102.5 34.5t-38.5 82.5q0 38 24 62.5t58 24.5q33 0 63 -34zM615 792q-15 0 -26.5 10.5t-11.5 27.5t11.5 27.5t26.5 10.5
t26.5 -10.5t11.5 -27.5t-11.5 -27.5t-26.5 -10.5zM419 792q-15 0 -26.5 10.5t-11.5 27.5t11.5 27.5t26.5 10.5t26.5 -10.5t11.5 -27.5t-11.5 -27.5t-26.5 -10.5z" />
    <glyph glyph-name="Igrave.swash" unicode="&#xe328;" horiz-adv-x="482" 
d="M96 151l-18 -18q-28 28 -45 28q-22 0 -36.5 -17t-14.5 -46q0 -43 32 -68t78 -25q101 0 175.5 80.5t117.5 214.5q37 118 89.5 227t88.5 163q-187 -20 -295 -97t-108 -158q0 -44 22.5 -68.5t56.5 -24.5q33 0 53 18.5t20 48.5q0 20 -8.5 32t-31.5 27l15 22q55 -31 55 -81
q0 -38 -28 -64.5t-75 -26.5q-46 0 -78 30t-32 87q0 94 122 180.5t346 103.5l9 -14q-28 -31 -90 -155.5t-104 -257.5q-104 -311 -320 -311q-64 0 -102.5 34.5t-38.5 82.5q0 38 24 62.5t58 24.5q33 0 63 -34zM446 953l26 11l72 -184l-26 -11z" />
    <glyph glyph-name="Ntilde.swash" unicode="&#xe329;" horiz-adv-x="1002" 
d="M1006 437l-10 25q109 41 109 128q0 39 -23 66.5t-71 27.5q-232 0 -348 -658q-2 -16 -2 -26h-31l2 13l3 22q1 3 0.5 15.5t-0.5 16.5q0 78 -29.5 209t-48 192l-53.5 169q-32 -184 -103 -356q-28 -68 -54.5 -115.5t-63.5 -91.5t-86 -66.5t-110 -22.5q-64 0 -106.5 40.5
t-42.5 109.5q0 54 36 91t87 37q50 0 95 -47l-17 -19q-40 42 -78 42q-37 0 -64.5 -30t-27.5 -74q0 -60 34 -93t84 -33q55 0 100 22.5t79.5 66.5t58 88t50.5 107q49 121 79.5 247.5t30.5 159.5h27q120 -329 147 -557q11 59 25.5 115.5t36 124t50 123t63.5 102.5t80.5 73.5
t96.5 26.5q64 0 94.5 -35.5t30.5 -82.5q0 -54 -37 -93.5t-93 -59.5zM896 876l22 -14q-41 -70 -92 -70q-25 0 -69.5 24.5t-66.5 24.5q-39 0 -70 -56l-22 14q41 70 92 70q28 0 72.5 -24.5t63.5 -24.5q39 0 70 56z" />
    <glyph glyph-name="Oacute.swash" unicode="&#xe32a;" horiz-adv-x="690" 
d="M542 569q0 56 -30 85.5t-82 29.5q-37 0 -71 -13q-110 -41 -186 -164t-76 -249q0 -118 54 -180t144 -62q44 0 95 18q114 42 195 165t81 255q0 76 -29 132l24 13q36 -63 36 -145q0 -142 -87 -269.5t-209 -172.5q-58 -20 -106 -20q-101 0 -165 68.5t-64 197.5
q0 139 79.5 263t201.5 172q39 15 83 15q61 0 101.5 -38t40.5 -102q0 -63 -39 -106t-96 -43q-38 0 -64 17l11 22q28 -15 53 -15q47 0 76 35.5t29 90.5zM610 962l20 -18l-152 -175l-20 18z" />
    <glyph glyph-name="Ocircumflex.swash" unicode="&#xe32b;" horiz-adv-x="690" 
d="M542 569q0 56 -30 85.5t-82 29.5q-37 0 -71 -13q-110 -41 -186 -164t-76 -249q0 -118 54 -180t144 -62q44 0 95 18q114 42 195 165t81 255q0 76 -29 132l24 13q36 -63 36 -145q0 -142 -87 -269.5t-209 -172.5q-58 -20 -106 -20q-101 0 -165 68.5t-64 197.5
q0 139 79.5 263t201.5 172q39 15 83 15q61 0 101.5 -38t40.5 -102q0 -63 -39 -106t-96 -43q-38 0 -64 17l11 22q28 -15 53 -15q47 0 76 35.5t29 90.5zM600 771l-79 108l-144 -110l-15 21l155 121h15l90 -125z" />
    <glyph glyph-name="Odieresis.swash" unicode="&#xe32c;" horiz-adv-x="690" 
d="M542 569q0 56 -30 85.5t-82 29.5q-37 0 -71 -13q-110 -41 -186 -164t-76 -249q0 -118 54 -180t144 -62q44 0 95 18q114 42 195 165t81 255q0 76 -29 132l24 13q36 -63 36 -145q0 -142 -87 -269.5t-209 -172.5q-58 -20 -106 -20q-101 0 -165 68.5t-64 197.5
q0 139 79.5 263t201.5 172q39 15 83 15q61 0 101.5 -38t40.5 -102q0 -63 -39 -106t-96 -43q-38 0 -64 17l11 22q28 -15 53 -15q47 0 76 35.5t29 90.5zM582 792q-15 0 -26.5 10.5t-11.5 27.5t11.5 27.5t26.5 10.5t26.5 -10.5t11.5 -27.5t-11.5 -27.5t-26.5 -10.5zM386 792
q-15 0 -26.5 10.5t-11.5 27.5t11.5 27.5t26.5 10.5t26.5 -10.5t11.5 -27.5t-11.5 -27.5t-26.5 -10.5z" />
    <glyph glyph-name="Ograve.swash" unicode="&#xe32d;" horiz-adv-x="690" 
d="M542 569q0 56 -30 85.5t-82 29.5q-37 0 -71 -13q-110 -41 -186 -164t-76 -249q0 -118 54 -180t144 -62q44 0 95 18q114 42 195 165t81 255q0 76 -29 132l24 13q36 -63 36 -145q0 -142 -87 -269.5t-209 -172.5q-58 -20 -106 -20q-101 0 -165 68.5t-64 197.5
q0 139 79.5 263t201.5 172q39 15 83 15q61 0 101.5 -38t40.5 -102q0 -63 -39 -106t-96 -43q-38 0 -64 17l11 22q28 -15 53 -15q47 0 76 35.5t29 90.5zM432 953l26 11l72 -184l-26 -11z" />
    <glyph glyph-name="Otilde.swash" unicode="&#xe32e;" horiz-adv-x="690" 
d="M542 569q0 56 -30 85.5t-82 29.5q-37 0 -71 -13q-110 -41 -186 -164t-76 -249q0 -118 54 -180t144 -62q44 0 95 18q114 42 195 165t81 255q0 76 -29 132l24 13q36 -63 36 -145q0 -142 -87 -269.5t-209 -172.5q-58 -20 -106 -20q-101 0 -165 68.5t-64 197.5
q0 139 79.5 263t201.5 172q39 15 83 15q61 0 101.5 -38t40.5 -102q0 -63 -39 -106t-96 -43q-38 0 -64 17l11 22q28 -15 53 -15q47 0 76 35.5t29 90.5zM631 876l22 -14q-41 -70 -92 -70q-25 0 -69.5 24.5t-66.5 24.5q-39 0 -70 -56l-22 14q41 70 92 70q28 0 72.5 -24.5
t63.5 -24.5q39 0 70 56z" />
    <glyph glyph-name="Scaron.swash" unicode="&#xe32f;" horiz-adv-x="642" 
d="M409 350q36 -108 36 -161q0 -84 -63 -140t-168 -56q-102 0 -165 62.5t-63 153.5q0 79 50.5 133.5t130.5 54.5q62 0 99.5 -37t37.5 -97q0 -49 -30 -80.5t-69 -31.5q-32 0 -66 22l12 22q33 -20 54 -20q28 0 48 24t20 64q0 50 -28.5 80t-77.5 30q-68 0 -109 -46t-41 -118
q0 -81 54.5 -136.5t142.5 -55.5q90 0 145.5 47.5t55.5 124.5q0 59 -31 152q-3 8 -17 49t-20.5 67t-6.5 48q0 82 54 142.5t148 60.5q93 0 143.5 -54.5t50.5 -130.5q0 -75 -44.5 -118t-102.5 -43q-48 0 -81 31t-33 83q0 35 21.5 59.5t50.5 34.5l11 -24q-53 -22 -53 -70
q0 -42 23.5 -66t60.5 -24q47 0 81.5 36.5t34.5 100.5q0 68 -42 114.5t-121 46.5q-81 0 -126.5 -52.5t-45.5 -126.5q0 -14 2 -29t7 -33.5t8.5 -28.5l11.5 -34zM574 769l-90 125l22 15l79 -108l144 110l15 -21l-155 -121h-15z" />
    <glyph glyph-name="Uacute.swash" unicode="&#xe330;" horiz-adv-x="754" 
d="M656 700h258l-9 -26h-119l-149 -420q-48 -134 -117 -198t-196 -64q-97 0 -155 42t-58 125q0 47 20 104l145 411h-122l9 26h271l-9 -26h-118l-149 -422q-17 -50 -17 -93q0 -72 50.5 -107.5t132.5 -35.5q100 0 159 46q76 55 127 203l145 409h-108zM677 962l20 -18
l-152 -175l-20 18z" />
    <glyph glyph-name="Ucircumflex.swash" unicode="&#xe331;" horiz-adv-x="754" 
d="M656 700h258l-9 -26h-119l-149 -420q-48 -134 -117 -198t-196 -64q-97 0 -155 42t-58 125q0 47 20 104l145 411h-122l9 26h271l-9 -26h-118l-149 -422q-17 -50 -17 -93q0 -72 50.5 -107.5t132.5 -35.5q100 0 159 46q76 55 127 203l145 409h-108zM667 771l-79 108
l-144 -110l-15 21l155 121h15l90 -125z" />
    <glyph glyph-name="Udieresis.swash" unicode="&#xe332;" horiz-adv-x="754" 
d="M656 700h258l-9 -26h-119l-149 -420q-48 -134 -117 -198t-196 -64q-97 0 -155 42t-58 125q0 47 20 104l145 411h-122l9 26h271l-9 -26h-118l-149 -422q-17 -50 -17 -93q0 -72 50.5 -107.5t132.5 -35.5q100 0 159 46q76 55 127 203l145 409h-108zM650 792
q-15 0 -26.5 10.5t-11.5 27.5t11.5 27.5t26.5 10.5t26.5 -10.5t11.5 -27.5t-11.5 -27.5t-26.5 -10.5zM454 792q-15 0 -26.5 10.5t-11.5 27.5t11.5 27.5t26.5 10.5t26.5 -10.5t11.5 -27.5t-11.5 -27.5t-26.5 -10.5z" />
    <glyph glyph-name="Ugrave.swash" unicode="&#xe333;" horiz-adv-x="754" 
d="M656 700h258l-9 -26h-119l-149 -420q-48 -134 -117 -198t-196 -64q-97 0 -155 42t-58 125q0 47 20 104l145 411h-122l9 26h271l-9 -26h-118l-149 -422q-17 -50 -17 -93q0 -72 50.5 -107.5t132.5 -35.5q100 0 159 46q76 55 127 203l145 409h-108zM481 953l26 11l72 -184
l-26 -11z" />
    <glyph glyph-name="Yacute.swash" unicode="&#xe334;" horiz-adv-x="938" 
d="M129 -256q-72 0 -113 30.5t-41 76.5q0 57 62 83l14 -25q-46 -20 -46 -58t34 -60.5t91 -22.5q137 0 244.5 93t195.5 300q-90 -110 -195 -110q-121 0 -121 108q0 39 25 89t74 126q4 6 15.5 24.5l16 25.5t14 23t13.5 24t10 21.5t9 23t5 21t2 22.5q0 57 -32.5 91t-104.5 34
q-82 0 -139.5 -60t-57.5 -128q0 -46 22 -69.5t57 -23.5q39 0 61.5 23.5t22.5 59.5q0 34 -30 48l11 23q49 -17 49 -71q0 -43 -31.5 -75t-82.5 -32q-48 0 -79 30t-31 87q0 73 67 142.5t161 69.5q87 0 126.5 -42t39.5 -107q0 -42 -23 -88.5t-68 -112.5q-92 -142 -92 -199
q0 -84 91 -84q71 0 140 61.5t90 121.5q38 108 63.5 172.5t55 124t56 89.5t59 47t72.5 17q64 0 97.5 -36t33.5 -95q0 -64 -38 -100.5t-87 -36.5q-61 0 -91 57l24 15q17 -24 31.5 -36t35.5 -12q38 0 66 30t28 83q0 107 -100 107q-36 0 -65.5 -17t-53.5 -48t-49 -85
t-49.5 -118.5l-57.5 -157.5q-3 -10 -5 -15q-97 -269 -218.5 -384t-283.5 -115zM741 962l20 -18l-152 -175l-20 18z" />
    <glyph glyph-name="Ydieresis.swash" unicode="&#xe335;" horiz-adv-x="938" 
d="M129 -256q-72 0 -113 30.5t-41 76.5q0 57 62 83l14 -25q-46 -20 -46 -58t34 -60.5t91 -22.5q137 0 244.5 93t195.5 300q-90 -110 -195 -110q-121 0 -121 108q0 39 25 89t74 126q4 6 15.5 24.5l16 25.5t14 23t13.5 24t10 21.5t9 23t5 21t2 22.5q0 57 -32.5 91t-104.5 34
q-82 0 -139.5 -60t-57.5 -128q0 -46 22 -69.5t57 -23.5q39 0 61.5 23.5t22.5 59.5q0 34 -30 48l11 23q49 -17 49 -71q0 -43 -31.5 -75t-82.5 -32q-48 0 -79 30t-31 87q0 73 67 142.5t161 69.5q87 0 126.5 -42t39.5 -107q0 -42 -23 -88.5t-68 -112.5q-92 -142 -92 -199
q0 -84 91 -84q71 0 140 61.5t90 121.5q38 108 63.5 172.5t55 124t56 89.5t59 47t72.5 17q64 0 97.5 -36t33.5 -95q0 -64 -38 -100.5t-87 -36.5q-61 0 -91 57l24 15q17 -24 31.5 -36t35.5 -12q38 0 66 30t28 83q0 107 -100 107q-36 0 -65.5 -17t-53.5 -48t-49 -85
t-49.5 -118.5l-57.5 -157.5q-3 -10 -5 -15q-97 -269 -218.5 -384t-283.5 -115zM746 792q-15 0 -26.5 10.5t-11.5 27.5t11.5 27.5t26.5 10.5t26.5 -10.5t11.5 -27.5t-11.5 -27.5t-26.5 -10.5zM550 792q-15 0 -26.5 10.5t-11.5 27.5t11.5 27.5t26.5 10.5t26.5 -10.5
t11.5 -27.5t-11.5 -27.5t-26.5 -10.5z" />
    <glyph glyph-name="Zcaron.swash" unicode="&#xe336;" horiz-adv-x="942" 
d="M751 586q40 0 62 16.5t22 45.5q0 18 -10 29.5t-27 11.5q-22 0 -40.5 -16t-55.5 -59q-8 -9 -12 -14q36 -14 61 -14zM699 -31q-24 0 -51.5 5t-49 11t-53 18.5t-46 19l-47.5 22t-39 18.5q-87 40 -136 55q-37 -43 -57 -63.5t-54.5 -41.5t-66.5 -21t-52.5 17t-20.5 46
q0 42 44 72.5t118 30.5q40 0 79 -10l380 443q-16 7 -48 24t-48 24q-92 43 -138 52q-25 5 -49 5q-81 0 -131.5 -42.5t-50.5 -106.5q0 -54 26 -83t65 -29t67 28t30 68l26 -1q-2 -49 -37 -84t-86 -35q-50 0 -86 35.5t-36 100.5q0 72 59 122.5t154 50.5q83 0 201 -57
q15 -7 48.5 -25t50.5 -26q50 58 77 79.5t57 21.5q29 0 48 -18t19 -47q0 -38 -29.5 -62t-84.5 -24q-34 0 -78 18l-106 -122l-163 -191l-108 -127q33 -10 131 -53q5 -2 57 -26.5t75.5 -34.5t65.5 -21.5t74 -11.5q69 0 109 42.5t40 127.5q0 61 -31 94t-75 33q-40 0 -69.5 -25
t-40.5 -71l-24 6q9 51 45 82.5t89 31.5q55 0 95.5 -40t40.5 -111q0 -91 -47 -142.5t-132 -51.5zM99 16q8 0 17 2t16 4.5t16 8l15 9t15.5 12.5l14 13t14.5 15t13.5 14.5t14.5 16t13 15.5q-37 8 -60 8q-59 0 -95.5 -21.5t-36.5 -57.5q0 -18 11.5 -28.5t31.5 -10.5zM562 769
l-90 125l22 15l79 -108l144 110l15 -21l-155 -121h-15z" />
    <glyph glyph-name="Abreve.swash" unicode="&#xe337;" horiz-adv-x="806" 
d="M409 342l-33 -62h177q63 224 232 394q-71 -14 -130.5 -47.5t-104.5 -82t-77 -95t-64 -107.5zM767 180l29 -4q-12 -81 -59 -132.5t-114 -51.5q-95 0 -95 121q0 67 18 141h-184q-139 -262 -300 -262q-56 0 -94 31t-38 84q0 46 26.5 74.5t63.5 28.5q47 0 81 -38l-18 -20
q-33 33 -63 33q-23 0 -41.5 -22t-18.5 -56q0 -45 30.5 -68t71.5 -23q111 0 215 154q35 52 107 187q35 66 69 115t86 101.5t122.5 86.5t156.5 45l12 -23q-127 -119 -199 -276t-72 -293q0 -97 64 -97q56 0 93.5 47t50.5 117zM664 894l26 3q0 -55 15 -79.5t58 -24.5
q77 0 125 104l27 -4q-28 -61 -64 -92.5t-88 -31.5q-57 0 -81 35t-18 90z" />
    <glyph glyph-name="Amacron.swash" unicode="&#xe338;" horiz-adv-x="806" 
d="M409 342l-33 -62h177q63 224 232 394q-71 -14 -130.5 -47.5t-104.5 -82t-77 -95t-64 -107.5zM767 180l29 -4q-12 -81 -59 -132.5t-114 -51.5q-95 0 -95 121q0 67 18 141h-184q-139 -262 -300 -262q-56 0 -94 31t-38 84q0 46 26.5 74.5t63.5 28.5q47 0 81 -38l-18 -20
q-33 33 -63 33q-23 0 -41.5 -22t-18.5 -56q0 -45 30.5 -68t71.5 -23q111 0 215 154q35 52 107 187q35 66 69 115t86 101.5t122.5 86.5t156.5 45l12 -23q-127 -119 -199 -276t-72 -293q0 -97 64 -97q56 0 93.5 47t50.5 117zM632 818h261l-9 -26h-261z" />
    <glyph glyph-name="Aogonek.swash" unicode="&#xe339;" horiz-adv-x="806" 
d="M409 342l-33 -62h177q63 224 232 394q-71 -14 -130.5 -47.5t-104.5 -82t-77 -95t-64 -107.5zM649 -223l23 -10q-41 -91 -110 -91q-39 0 -62 22.5t-23 63.5q0 102 165 231q-7 -1 -19 -1q-95 0 -95 121q0 67 18 141h-184q-139 -262 -300 -262q-56 0 -94 31t-38 84
q0 46 26.5 74.5t63.5 28.5q47 0 81 -38l-18 -20q-33 33 -63 33q-23 0 -41.5 -22t-18.5 -56q0 -45 30.5 -68t71.5 -23q111 0 215 154q35 52 107 187q35 66 69 115t86 101.5t122.5 86.5t156.5 45l12 -23q-127 -119 -199 -276t-72 -293q0 -97 64 -97q56 0 93.5 47t50.5 117
l29 -4q-16 -104 -92 -162q-197 -153 -197 -252q0 -62 55 -62q52 0 87 77z" />
    <glyph glyph-name="Aringacute.swash" unicode="&#xe33a;" horiz-adv-x="806" 
d="M409 342l-33 -62h177q63 224 232 394q-71 -14 -130.5 -47.5t-104.5 -82t-77 -95t-64 -107.5zM767 180l29 -4q-12 -81 -59 -132.5t-114 -51.5q-95 0 -95 121q0 67 18 141h-184q-139 -262 -300 -262q-56 0 -94 31t-38 84q0 46 26.5 74.5t63.5 28.5q47 0 81 -38l-18 -20
q-33 33 -63 33q-23 0 -41.5 -22t-18.5 -56q0 -45 30.5 -68t71.5 -23q111 0 215 154q35 52 107 187q35 66 69 115t86 101.5t122.5 86.5t156.5 45l12 -23q-127 -119 -199 -276t-72 -293q0 -97 64 -97q56 0 93.5 47t50.5 117zM761 937q36 0 64.5 -25.5t28.5 -68.5t-28.5 -68.5
t-64.5 -25.5t-64.5 25.5t-28.5 68.5t28.5 68.5t64.5 25.5zM761 773q26 0 45 18t19 52t-19 52t-45 18t-45 -18t-19 -52t19 -52t45 -18zM908 1178l20 -18l-152 -175l-20 18z" />
    <glyph glyph-name="AEacute.swash" unicode="&#xe33b;" horiz-adv-x="1005" 
d="M649 676h-1l-299 -327h184zM940 213l-75 -213h-578l9 26h122l105 297h-198l-274 -297h103l-9 -26h-222l9 26h83l598 648h-89l9 26h525l-80 -222h-29l70 196h-340l-115 -325h191l41 115h28l-87 -242h-28l36 101h-191l-105 -297h397l65 187h29zM923 962l20 -18l-152 -175
l-20 18z" />
    <glyph glyph-name="Cacute.swash" unicode="&#xe33c;" horiz-adv-x="649" 
d="M451 506q0 61 63 88l13 -22q-46 -22 -46 -66q0 -30 22 -51.5t62 -21.5q45 0 76 34.5t31 82.5q0 54 -40 94t-130 40q-104 0 -198 -64t-150.5 -169t-56.5 -220q0 -106 60 -160.5t140 -54.5q92 0 149.5 53.5t57.5 137.5q0 63 -38 98t-96 35q-45 0 -76.5 -29t-31.5 -74
q0 -32 17.5 -51t44.5 -19t65 30l14 -19q-31 -35 -79 -35q-40 0 -66 25t-26 69q0 55 39 91t99 36q71 0 118 -42t47 -115q0 -92 -65 -153.5t-173 -61.5q-94 0 -162.5 60.5t-68.5 178.5q0 124 61.5 234.5t162.5 176.5t212 66q58 0 100 -15.5t62.5 -41t29.5 -50.5t9 -50
q0 -59 -40 -100.5t-98 -41.5q-56 0 -85 30.5t-29 66.5zM646 962l20 -18l-152 -175l-20 18z" />
    <glyph glyph-name="Ccaron.swash" unicode="&#xe33d;" horiz-adv-x="649" 
d="M451 506q0 61 63 88l13 -22q-46 -22 -46 -66q0 -30 22 -51.5t62 -21.5q45 0 76 34.5t31 82.5q0 54 -40 94t-130 40q-104 0 -198 -64t-150.5 -169t-56.5 -220q0 -106 60 -160.5t140 -54.5q92 0 149.5 53.5t57.5 137.5q0 63 -38 98t-96 35q-45 0 -76.5 -29t-31.5 -74
q0 -32 17.5 -51t44.5 -19t65 30l14 -19q-31 -35 -79 -35q-40 0 -66 25t-26 69q0 55 39 91t99 36q71 0 118 -42t47 -115q0 -92 -65 -153.5t-173 -61.5q-94 0 -162.5 60.5t-68.5 178.5q0 124 61.5 234.5t162.5 176.5t212 66q58 0 100 -15.5t62.5 -41t29.5 -50.5t9 -50
q0 -59 -40 -100.5t-98 -41.5q-56 0 -85 30.5t-29 66.5zM511 769l-90 125l22 15l79 -108l144 110l15 -21l-155 -121h-15z" />
    <glyph glyph-name="Ccircumflex.swash" unicode="&#xe33e;" horiz-adv-x="649" 
d="M451 506q0 61 63 88l13 -22q-46 -22 -46 -66q0 -30 22 -51.5t62 -21.5q45 0 76 34.5t31 82.5q0 54 -40 94t-130 40q-104 0 -198 -64t-150.5 -169t-56.5 -220q0 -106 60 -160.5t140 -54.5q92 0 149.5 53.5t57.5 137.5q0 63 -38 98t-96 35q-45 0 -76.5 -29t-31.5 -74
q0 -32 17.5 -51t44.5 -19t65 30l14 -19q-31 -35 -79 -35q-40 0 -66 25t-26 69q0 55 39 91t99 36q71 0 118 -42t47 -115q0 -92 -65 -153.5t-173 -61.5q-94 0 -162.5 60.5t-68.5 178.5q0 124 61.5 234.5t162.5 176.5t212 66q58 0 100 -15.5t62.5 -41t29.5 -50.5t9 -50
q0 -59 -40 -100.5t-98 -41.5q-56 0 -85 30.5t-29 66.5zM636 771l-79 108l-144 -110l-15 21l155 121h15l90 -125z" />
    <glyph glyph-name="Cdotaccent.swash" unicode="&#xe33f;" horiz-adv-x="649" 
d="M451 506q0 61 63 88l13 -22q-46 -22 -46 -66q0 -30 22 -51.5t62 -21.5q45 0 76 34.5t31 82.5q0 54 -40 94t-130 40q-104 0 -198 -64t-150.5 -169t-56.5 -220q0 -106 60 -160.5t140 -54.5q92 0 149.5 53.5t57.5 137.5q0 63 -38 98t-96 35q-45 0 -76.5 -29t-31.5 -74
q0 -32 17.5 -51t44.5 -19t65 30l14 -19q-31 -35 -79 -35q-40 0 -66 25t-26 69q0 55 39 91t99 36q71 0 118 -42t47 -115q0 -92 -65 -153.5t-173 -61.5q-94 0 -162.5 60.5t-68.5 178.5q0 124 61.5 234.5t162.5 176.5t212 66q58 0 100 -15.5t62.5 -41t29.5 -50.5t9 -50
q0 -59 -40 -100.5t-98 -41.5q-56 0 -85 30.5t-29 66.5zM522 792q-15 0 -26.5 10.5t-11.5 27.5t11.5 27.5t26.5 10.5t26.5 -10.5t11.5 -27.5t-11.5 -27.5t-26.5 -10.5z" />
    <glyph glyph-name="Dcaron.swash" unicode="&#xe340;" horiz-adv-x="847" 
d="M448 388q-75 -207 -164 -299l31 -13q9 -3 40 -16.5t43 -18t36 -12t43.5 -10.5t40.5 -3q119 0 202 87.5t83 243.5q0 111 -49.5 187.5t-140.5 115.5q-100 -84 -165 -262zM738 755l11 -26q-63 -25 -115 -62q95 -43 147.5 -126t52.5 -194q0 -169 -92 -262t-224 -93
q-37 0 -79 10.5t-64 19t-75 31.5l-38 15q-87 -76 -206 -76q-53 0 -81 20t-28 57q0 35 30.5 58.5t87.5 23.5q70 0 192 -51q90 90 165 298q63 175 161 263q-72 23 -155 23q-141 0 -227.5 -70.5t-86.5 -166.5q0 -62 28 -95t66 -33q37 0 62.5 23.5t25.5 63.5q0 31 -26 66l22 16
q34 -38 34 -82q0 -48 -32.5 -79.5t-85.5 -31.5q-51 0 -88 39t-37 113q0 101 93.5 181t251.5 80q95 0 176 -29q55 45 134 76zM65 127q-40 0 -63.5 -16t-23.5 -42t22 -39.5t56 -13.5q101 0 178 63q-115 48 -169 48zM552 769l-90 125l22 15l79 -108l144 110l15 -21l-155 -121
h-15z" />
    <glyph glyph-name="Dcroat.swash" unicode="&#xe341;" horiz-adv-x="847" 
d="M518 16q119 0 202 87.5t83 243.5q0 111 -49.5 187.5t-140.5 115.5q-100 -84 -165 -262q-1 -3 -28 -72h184l-13 -26h-182q-56 -127 -125 -201l31 -13q9 -3 40 -16.5t43 -18t36 -12t43.5 -10.5t40.5 -3zM518 -8q-37 0 -79 10.5t-64 19t-75 31.5l-38 15q-87 -76 -206 -76
q-53 0 -81 20t-28 57q0 35 30.5 58.5t87.5 23.5q70 0 192 -51q65 65 121 190h-137l13 26h136q7 15 32 82q63 175 161 263q-72 23 -155 23q-144 0 -232 -62t-88 -155q0 -87 84 -87q38 0 68 27.5t30 68.5q0 31 -26 66l22 16q34 -38 34 -82q0 -50 -37.5 -85t-90.5 -35
q-51 0 -83 27t-32 84q0 98 95 169.5t256 71.5q95 0 176 -29q55 45 134 76l11 -26q-63 -25 -115 -62q95 -43 147.5 -126t52.5 -194q0 -169 -92 -262t-224 -93zM65 127q-40 0 -63.5 -16t-23.5 -42t22 -39.5t56 -13.5q101 0 178 63q-115 48 -169 48z" />
    </font>
</defs>
</svg>
